<svg width="120" height="176" viewBox="0 0 120 176" fill="none" xmlns="http://www.w3.org/2000/svg">
<path d="M58.3055 122.098C49.6021 130.729 49.9865 155.78 65.5229 159.688C65.5229 159.688 69.0143 173.52 77.8601 170.151C82.1818 168.505 83.717 163.436 82.5447 159.329C80.9751 153.827 78.3032 148.962 76.096 146.174C73.3694 142.731 73.9154 134.426 79.5846 126.978L58.3055 122.098Z" fill="white"/>
<path d="M77.8601 170.152C74.298 171.506 71.6064 170.077 69.6569 167.882C66.7675 164.626 65.5223 159.687 65.5223 159.687C51.8675 156.251 49.918 136.485 55.5545 125.89C56.3311 124.43 57.2513 123.144 58.3055 122.099L77.7306 126.554L79.5846 126.979C79.2641 127.399 78.9622 127.821 78.6734 128.245C73.8645 135.349 73.5236 142.924 76.0949 146.173C76.1129 146.198 76.1355 146.225 76.1587 146.257C77.3559 147.783 78.6779 149.902 79.8864 152.396C80.2069 153.057 80.5178 153.742 80.8179 154.45C81.4673 155.986 82.058 157.627 82.5441 159.329C83.7164 163.437 82.1807 168.504 77.8601 170.152Z" fill="white"/>
<g opacity="0.35">
<path d="M77.8601 170.152C74.2981 171.506 71.6065 170.077 69.657 167.882C72.8398 168.221 76.3674 167.887 78.4915 164.825C79.8452 162.874 76.8879 161.301 74.4298 155.373C72.5577 150.866 73.2417 147.117 72.0061 145.815C68.8052 142.438 57.2175 141.385 55.5546 125.89C56.3312 124.43 57.2514 123.144 58.3055 122.099L77.7307 126.554C77.976 127.194 78.2874 127.759 78.6622 128.231C78.6667 128.236 78.669 128.24 78.6735 128.245C73.8645 135.348 73.5237 142.923 76.0949 146.173C76.113 146.198 76.1356 146.225 76.1588 146.257C76.7359 147.06 78.6396 150.457 80.818 154.45C81.4674 155.986 82.0581 157.627 82.5442 159.329C83.7164 163.437 82.1807 168.504 77.8601 170.152Z" fill="#371A45"/>
</g>
<path d="M75.1623 171.637C73.9889 171.637 72.8573 171.357 71.7783 170.796C67.4317 168.536 65.3093 162.361 64.748 160.469C58.8911 158.783 54.6237 154.024 52.6985 147.006C50.1539 137.732 52.2746 126.732 57.6318 121.42C58.0071 121.049 58.613 121.05 58.985 121.425C59.3574 121.8 59.3552 122.405 58.9799 122.777C54.1557 127.561 52.2073 137.982 54.544 146.501C56.338 153.04 60.32 157.394 65.7564 158.762C66.0978 158.848 66.3646 159.114 66.4505 159.455C66.4691 159.529 68.3768 166.877 72.6652 169.102C74.1641 169.88 75.7524 169.931 77.5193 169.258C81.3945 167.782 82.6499 163.184 81.6246 159.591C80.0154 153.95 77.326 149.268 75.3455 146.767C72.3311 142.961 72.8082 134.302 78.8227 126.4C79.1427 125.98 79.7424 125.898 80.1635 126.218C80.584 126.537 80.6659 127.136 80.346 127.557C75.1358 134.402 74.3297 142.404 76.8467 145.582C78.9409 148.226 81.7789 153.158 83.465 159.067C84.7265 163.489 83.1026 169.177 78.201 171.044C77.1621 171.439 76.1475 171.637 75.1623 171.637Z" fill="#371A45"/>
<path d="M61.6517 149.099C58.3677 149.099 55.2375 148.239 52.7392 146.071C52.3859 145.764 52.3481 145.229 52.6556 144.876C52.963 144.522 53.4989 144.486 53.8516 144.792C59.6977 149.869 69.6813 146.391 74.6587 143.536C75.0646 143.303 75.5829 143.443 75.8163 143.849C76.0497 144.255 75.9096 144.772 75.5032 145.005C71.55 147.272 66.4381 149.099 61.6517 149.099Z" fill="#371A45"/>
<path d="M111.188 130.374C107.065 137.309 94.0935 136.615 94.0935 136.615L90.1137 103.881L88.9369 94.2023L88.8731 93.6783L87.8167 85.0022C87.8167 85.0022 92.5713 84.564 97.4464 85.2563C98.6006 85.4172 99.7633 85.6442 100.868 85.9531C102.346 86.3681 103.728 86.9334 104.863 87.6962C105.867 88.3682 106.681 89.1988 107.201 90.2152C111.067 97.7602 114.577 124.673 111.188 130.374Z" fill="white"/>
<g opacity="0.35">
<path d="M111.526 107.876C112.817 117.275 113.09 127.172 111.188 130.373C107.064 137.31 94.0923 136.616 94.0923 136.616L93.0941 125.217C93.0941 125.217 106.066 125.911 110.189 118.975C111.306 117.095 111.674 112.911 111.526 107.876Z" fill="#371A45"/>
</g>
<path d="M95.1555 137.594C94.5281 137.594 94.1296 137.575 94.042 137.571C93.5147 137.542 93.11 137.092 93.1377 136.566C93.1654 136.039 93.6153 135.635 94.1438 135.662C94.2675 135.669 106.588 136.24 110.365 129.886C111.766 127.528 111.996 120.327 110.964 111.092C109.987 102.344 108.133 94.1289 106.35 90.6511C103.787 85.6499 92.1677 85.5652 87.9065 85.9531C87.3763 86.0017 86.9145 85.6137 86.8665 85.0886C86.8184 84.5635 87.2056 84.0982 87.7318 84.0496C88.4095 83.9869 104.378 82.608 108.053 89.7798C109.931 93.4439 111.865 101.923 112.866 110.88C113.391 115.573 114.357 126.914 112.011 130.861C108.332 137.05 98.5 137.594 95.1555 137.594Z" fill="#371A45"/>
<path d="M111.065 111.947L102.481 113.626C101.715 113.775 101.146 114.421 101.098 115.2C100.925 118.051 100.867 124.657 103.84 126.484C106.307 127.999 109.945 127.355 111.876 125.286C114.035 122.971 113.51 116.561 113.095 113.406C112.967 112.425 112.037 111.758 111.065 111.947Z" fill="white"/>
<g opacity="0.35">
<path d="M101.099 115.2C100.924 118.051 100.867 124.657 103.84 126.482C106.309 127.999 109.945 127.355 111.877 125.285C113.203 123.86 113.516 120.887 113.463 118.076C113.238 119.51 112.76 120.71 112.086 121.54C108.225 126.296 104.372 121.687 104.372 121.687C104.372 121.687 103.95 122.967 103.508 123.09C101.657 123.601 101.346 117.661 101.256 114.583C101.167 114.771 101.112 114.98 101.099 115.2Z" fill="#371A45"/>
</g>
<path d="M106.97 128.272C105.681 128.272 104.41 127.956 103.339 127.298C100.039 125.271 99.9203 118.812 100.144 115.142C100.217 113.93 101.103 112.921 102.298 112.688L110.882 111.009C111.604 110.868 112.36 111.033 112.956 111.462C113.552 111.89 113.949 112.553 114.045 113.281C114.628 117.712 114.846 123.504 112.576 125.937C111.158 127.457 109.04 128.272 106.97 128.272ZM111.249 112.885L102.665 114.563C102.325 114.63 102.074 114.915 102.053 115.257C101.723 120.694 102.578 124.586 104.34 125.669C106.364 126.912 109.493 126.437 111.175 124.634C112.509 123.203 112.872 119.052 112.146 113.53C112.118 113.32 112.009 113.137 111.838 113.013C111.666 112.89 111.456 112.845 111.249 112.885Z" fill="#371A45"/>
<path d="M104.59 116.474C104.82 117.552 104.941 118.586 105.139 119.603C105.33 120.616 105.569 121.609 105.934 122.52C106.297 123.428 106.795 124.252 107.455 124.831C108.112 125.416 108.927 125.733 109.816 125.831H109.818C110.343 125.89 110.721 126.363 110.663 126.888C110.605 127.412 110.131 127.791 109.606 127.733C109.582 127.73 109.558 127.726 109.535 127.722C108.938 127.61 108.342 127.424 107.784 127.142C107.227 126.862 106.715 126.486 106.286 126.046C105.421 125.162 104.899 124.076 104.556 123.01C104.214 121.936 104.039 120.853 103.914 119.787C103.787 118.724 103.735 117.657 103.595 116.663L103.593 116.649C103.554 116.373 103.747 116.116 104.024 116.077C104.289 116.041 104.534 116.217 104.59 116.474Z" fill="#371A45"/>
<path d="M103.164 90.9391C102.917 90.777 102.598 90.7019 102.281 90.6494C101.96 90.6042 101.637 90.5721 101.308 90.5675C100.652 90.554 99.9928 90.5879 99.3394 90.663C98.0326 90.8086 96.7438 91.0842 95.5207 91.4834C94.3026 91.8894 93.1422 92.4247 92.1604 93.1142C91.1735 93.8036 90.4026 94.6512 89.9069 95.6631L89.8944 95.6885C89.6621 96.1634 89.0878 96.3604 88.6125 96.1283C88.1824 95.9183 87.9806 95.4293 88.1174 94.9866C88.3519 94.2254 88.7589 93.5162 89.2648 92.9143C89.7678 92.3078 90.3681 91.8053 91.0023 91.3936C92.274 90.5591 93.6871 90.1113 95.0843 89.8165C96.4889 89.5342 97.9088 89.445 99.3151 89.5246C100.018 89.572 100.719 89.6562 101.409 89.8227C101.753 89.9007 102.097 90.008 102.429 90.1418C102.76 90.2784 103.095 90.4501 103.356 90.7443C103.406 90.8007 103.401 90.8866 103.345 90.9368C103.298 90.9786 103.23 90.982 103.18 90.9487L103.164 90.9391Z" fill="#371A45"/>
<g opacity="0.35">
<path d="M104.863 87.6957C100.3 91.1068 94.8587 93.4101 88.9368 94.2023L88.8729 93.6783L87.8165 85.0022C87.8165 85.0022 92.5712 84.564 97.4463 85.2563C98.6005 85.4172 99.7632 85.6442 100.868 85.9531C102.346 86.3681 103.728 86.9328 104.863 87.6957Z" fill="#371A45"/>
</g>
<path d="M60.8976 75.6181L60.5364 79.0315L59.4732 89.0825L59.1505 92.1396L58.7689 95.75C57.5288 95.3254 56.3272 94.8607 55.1662 94.3564C30.2962 83.5951 23.3744 55.638 26.3526 41.6022C27.8222 34.676 28.7401 33.5297 33.9628 33.0351C42.2931 32.2474 44.2601 34.2559 45.6167 43.5265C46.0508 46.4859 46.6047 49.3906 47.2728 52.1704C47.3547 52.5199 47.4407 52.8672 47.5271 53.2122C47.6792 53.8158 47.8386 54.4149 48.0042 55.005C48.5332 56.9204 49.1217 58.7606 49.7626 60.5015C52.4751 67.8771 56.1435 73.4802 60.5641 75.4752C60.589 75.4865 60.6138 75.4978 60.6393 75.5068C60.7252 75.5452 60.8111 75.5814 60.8976 75.6181Z" fill="white"/>
<g opacity="0.35">
<path d="M60.8976 75.6181L60.5364 79.0315L59.1505 92.1396L58.7689 95.75C57.5288 95.3254 56.3272 94.8607 55.1662 94.3564C32.5243 84.5595 24.7598 60.5105 25.7958 45.6892C29.3969 63.7573 38.5321 40.7066 36.7121 46.6147C36.0344 48.8146 36.9189 51.7187 36.5532 55.005C35.9128 60.755 34.6349 67.6761 37.3344 74.0494C40.251 80.9349 47.2146 85.4692 55.1662 88.9097C56.3272 89.4134 57.5288 89.8786 58.7689 90.3033L59.1505 86.6928L60.3476 75.3753C60.5296 75.4611 60.7139 75.543 60.8976 75.6181Z" fill="#371A45"/>
</g>
<path d="M58.7695 96.706C58.6667 96.706 58.5621 96.689 58.4598 96.654C42.5311 91.2033 34.2472 79.7102 30.1023 71.029C24.5026 59.2998 24.0109 48.0354 25.4177 41.4045C26.8896 34.4693 27.9121 32.6483 33.8724 32.0842C42.6221 31.2558 45.1125 33.4744 46.5635 43.3876C48.9985 60.0277 54.6292 72.0381 61.2582 74.7321C61.7477 74.9309 61.9834 75.4888 61.7839 75.9777C61.5849 76.4667 61.0265 76.7016 60.537 76.5029C51.8659 72.9794 46.6545 57.2292 44.6699 43.6643C43.3586 34.7042 41.7715 33.257 34.0527 33.9877C29.497 34.4191 28.7469 34.9329 27.2892 41.8015C24.4715 55.0807 31.0661 85.2603 59.0793 94.846C59.5795 95.0171 59.8457 95.5608 59.6745 96.06C59.5382 96.4564 59.1669 96.706 58.7695 96.706Z" fill="#371A45"/>
<path d="M36.5538 80.6227C36.3125 80.6227 36.0728 80.5205 35.9055 80.3223C35.6037 79.9648 35.6489 79.4301 36.0067 79.1286C46.1288 70.5937 48.9719 60.5331 48.9996 60.4326C49.1228 59.9814 49.5902 59.716 50.0401 59.8385C50.4918 59.9616 50.7585 60.4263 50.6359 60.8775C50.5183 61.3084 47.647 71.5305 37.1004 80.4233C36.941 80.5572 36.7466 80.6227 36.5538 80.6227Z" fill="#371A45"/>
<path d="M94.1115 174.618C84.6112 177.786 80.5704 162.356 80.5704 162.356C72.7036 152.005 75.5998 137.667 75.5998 137.667C70.502 137.113 67.9963 136.8 64.2913 134.982C61.3425 133.534 58.9143 130.925 57.1672 127.03C56.5607 125.673 56.0361 124.162 55.6021 122.489C53.8595 115.792 53.5644 106.519 55.1657 94.3553C55.3703 92.7985 55.6066 91.1937 55.8745 89.5421L55.9429 89.3902L56.9399 87.1411L60.5359 79.0303L60.7247 78.6057L85.3697 75.1629L90.6128 85.4319L93.1297 90.3586C93.1682 91.2412 93.2366 92.113 93.3276 92.9753C93.4389 94.0261 93.5842 95.0606 93.7549 96.0865C94.8814 102.856 97.1123 109.186 97.7482 116.168C97.9229 118.088 97.9777 120.056 97.855 122.096C97.8257 122.577 97.7985 123.049 97.7708 123.515C97.4758 128.707 97.33 133.019 97.2983 136.647C97.1983 148.133 98.266 152.801 99.536 157.058C102.19 165.965 101.313 172.219 94.1115 174.618Z" fill="white"/>
<g opacity="0.35">
<path d="M79.3139 132.296C80.389 135.203 77.1401 134.904 75.432 138.712C75.5252 138.04 75.5998 137.668 75.5998 137.668C70.502 137.114 67.9964 136.801 64.2913 134.983C61.1611 133.446 58.6142 130.596 56.8518 126.293C57.5154 127.06 58.1914 127.781 58.9279 128.408C66.719 135.043 78.2394 129.389 79.3139 132.296Z" fill="#371A45"/>
</g>
<g opacity="0.35">
<path d="M94.1115 174.618C87.6758 176.765 83.7458 170.376 81.8811 166.033C83.9165 167.964 87.1083 171.109 90.5291 170.68C101.635 169.284 99.6134 160.986 96.2627 150.542C94.9067 146.312 94.3862 139.351 94.207 129.956C94.1708 128.149 94.2567 126.063 94.2138 123.86C91.4877 124.021 87.7826 124.04 82.8052 123.731L82.7668 124.691C82.6758 126.942 80.7608 128.71 78.5095 128.621L59.4913 127.87C58.6169 127.836 57.8148 127.528 57.1677 127.031C56.5612 125.674 56.0366 124.162 55.6025 122.49L55.641 121.516L55.9592 113.508C56.0457 111.256 57.9629 109.488 60.2165 109.579L79.2324 110.328C79.5117 110.339 79.7847 110.378 80.0458 110.444C81.8947 110.898 83.2421 112.609 83.1647 114.581L83.0963 116.315C84.7021 116.483 88.8984 116.844 93.3371 116.619C93.2642 116.336 93.1828 116.052 93.0941 115.768C92.9804 115.396 91.3859 104.038 91.395 103.654L97.5492 114.37C97.6266 114.965 97.6922 115.566 97.747 116.17H97.7493C97.9239 118.088 97.9788 120.055 97.8561 122.098C97.8267 122.579 97.7996 123.051 97.7719 123.516C97.4768 128.709 97.331 133.021 97.2994 136.649C97.1993 148.134 98.267 152.802 99.5371 157.06C102.19 165.965 101.313 172.219 94.1115 174.618Z" fill="#371A45"/>
</g>
<path d="M56.1887 89.5946C56.0022 94.6625 55.433 99.6355 55.2499 104.632C55.134 107.126 55.1086 109.62 55.1877 112.106C55.2725 114.59 55.4924 117.069 55.9287 119.497C56.0412 120.103 56.1542 120.709 56.3012 121.306C56.4295 121.909 56.5996 122.497 56.7585 123.089C57.1072 124.262 57.5046 125.418 57.9929 126.528C58.9793 128.734 60.2996 130.79 62.0688 132.343C62.9534 133.125 63.925 133.752 65.0057 134.263C66.1068 134.794 67.2293 135.23 68.3869 135.558C70.7009 136.204 73.1975 136.434 75.7038 136.718L76.7319 136.834L76.538 137.857C76.4482 138.331 76.3724 138.868 76.3097 139.382C76.2458 139.901 76.1949 140.424 76.1548 140.948C76.0745 141.996 76.035 143.049 76.0378 144.101C76.0474 146.204 76.2085 148.309 76.577 150.371C76.7579 151.403 76.9829 152.425 77.2717 153.428C77.4034 153.934 77.5752 154.426 77.7324 154.922C77.9115 155.411 78.0783 155.905 78.284 156.382C79.0584 158.312 80.0961 160.123 81.3323 161.778L81.4453 161.93L81.4956 162.114C81.6307 162.608 81.8059 163.148 81.9846 163.66C82.166 164.178 82.3593 164.693 82.5696 165.2C82.985 166.216 83.4559 167.207 83.9883 168.155C84.5207 169.102 85.1148 170.007 85.788 170.829C86.4589 171.652 87.2157 172.388 88.0596 172.948C88.9012 173.511 89.8265 173.894 90.7914 174.029C91.7551 174.168 92.755 174.054 93.7215 173.736C94.7253 173.418 95.6857 172.967 96.5318 172.4C96.9518 172.111 97.3395 171.787 97.6967 171.435C98.0455 171.076 98.3569 170.685 98.6294 170.268C99.714 168.58 100.035 166.435 99.9328 164.298C99.8407 162.149 99.3698 159.979 98.7673 157.85L98.2948 156.215C98.1467 155.657 97.9884 155.104 97.859 154.539C97.5769 153.417 97.365 152.278 97.1683 151.139C96.8071 148.857 96.5957 146.565 96.4832 144.281C96.2605 139.711 96.3283 135.158 96.4849 130.617C96.5691 128.347 96.6709 126.079 96.8026 123.814L96.8964 122.114L96.9495 120.459C96.9812 119.908 96.9439 119.355 96.9365 118.803L96.9167 117.975L96.8568 117.147C96.5686 112.725 95.5223 108.353 94.4077 103.965C93.8453 101.772 93.3242 99.5434 92.9963 97.2684C92.9104 96.7015 92.8443 96.1295 92.79 95.5563C92.7431 94.9821 92.6787 94.4112 92.6787 93.8319C92.6668 93.2542 92.6408 92.6799 92.6736 92.1017C92.7092 91.523 92.7425 90.947 92.8126 90.3733C92.8341 90.1966 92.9952 90.0706 93.1727 90.0921C93.3072 90.1085 93.4123 90.2056 93.4457 90.3287L93.4502 90.3451C93.5977 90.9007 93.7091 91.4541 93.8216 92.0046C93.8685 92.2807 93.9318 92.5552 93.9968 92.829C94.0601 93.1029 94.1126 93.3773 94.1709 93.6512C94.2325 93.9245 94.2777 94.1983 94.3399 94.4716L94.5247 95.2898C94.5852 95.5626 94.6366 95.8364 94.6926 96.1092C94.7485 96.3825 94.8186 96.6541 94.8802 96.9262L96.3622 103.5C97.3356 107.912 98.4739 112.381 98.7656 117.015L98.8278 117.88L98.8492 118.75C98.8572 119.33 98.895 119.909 98.8628 120.489L98.8069 122.228L98.7136 123.919C98.5825 126.174 98.4818 128.429 98.3982 130.684C98.2422 135.192 98.1766 139.704 98.3948 144.181C98.5045 146.418 98.7113 148.642 99.0578 150.833C99.2466 151.925 99.4484 153.013 99.7186 154.087C99.8424 154.626 99.9955 155.162 100.138 155.698L100.609 157.325C101.236 159.547 101.741 161.835 101.846 164.216C101.901 165.404 101.84 166.617 101.604 167.824C101.365 169.028 100.925 170.226 100.243 171.296C99.8972 171.828 99.5004 172.325 99.0589 172.778C98.6102 173.222 98.1252 173.625 97.6114 173.979C96.5759 174.673 95.4607 175.189 94.3065 175.556C93.1235 175.946 91.8127 176.108 90.5297 175.923C89.246 175.746 88.0308 175.233 86.9936 174.536C85.9496 173.84 85.069 172.972 84.3093 172.043C83.5474 171.112 82.8963 170.116 82.3192 169.09C81.7421 168.063 81.2407 167.005 80.7993 165.925C80.576 165.387 80.3708 164.841 80.1781 164.29C79.9848 163.733 79.8084 163.196 79.6445 162.598L79.8084 162.934C78.4643 161.137 77.344 159.175 76.5126 157.104C76.2922 156.59 76.113 156.063 75.9219 155.539C75.7535 155.009 75.5709 154.482 75.4302 153.945C75.1233 152.877 74.8842 151.792 74.6931 150.701C74.3031 148.52 74.1347 146.31 74.1245 144.106C74.1217 143.003 74.1629 141.901 74.2472 140.8C74.289 140.25 74.3427 139.7 74.41 139.15C74.4789 138.594 74.5513 138.064 74.662 137.479L75.4969 138.618C74.2404 138.481 72.9782 138.345 71.7048 138.166C70.433 137.989 69.142 137.754 67.8674 137.398C66.5946 137.038 65.3556 136.555 64.1816 135.99C62.9788 135.424 61.8082 134.672 60.8032 133.778C58.7673 131.987 57.3096 129.689 56.2424 127.301C55.7134 126.1 55.2894 124.866 54.9198 123.621C54.5654 122.372 54.2771 121.11 54.0409 119.843C53.561 117.307 53.3236 114.748 53.184 112.193C53.0483 109.637 53.0783 107.081 53.2015 104.536C53.2659 103.263 53.3694 101.994 53.4954 100.728C53.5649 100.095 53.6198 99.4616 53.7029 98.8314L53.9589 96.9426C54.345 94.431 54.852 91.9397 55.5596 89.493C55.6088 89.3225 55.7868 89.2248 55.9575 89.2739C56.1017 89.3151 56.1944 89.4506 56.1887 89.5946Z" fill="#371A45"/>
<path d="M56.6901 41.9144L40.819 43.1166L32.8137 56.8605C31.2085 59.6189 27.1343 59.3377 25.9202 56.389L19.8712 41.6807L4.31046 38.3198C1.19097 37.6478 0.200131 33.6912 2.63174 31.6268L9.51055 25.7927C9.51055 25.7893 9.51394 25.7893 9.51394 25.7893L14.7655 21.3324L13.1568 5.51282C12.8313 2.34167 16.291 0.175052 19.0081 1.84871L32.5571 10.1961L47.123 3.77704C50.0413 2.4913 53.1715 5.10682 52.4181 8.20513L48.6588 23.6588L57.3695 33.3874L59.2709 35.51C61.3961 37.8884 59.8751 41.6699 56.6901 41.9144Z" fill="#FFDA22"/>
<g opacity="0.7">
<path d="M47.1231 8.15375L32.5572 14.5728L19.0081 6.22486C16.8653 4.9058 14.2579 5.97641 13.4129 8.0442L13.1569 5.51225C12.8313 2.3411 16.2911 0.174487 19.0081 1.84815L32.5572 10.1961L47.1231 3.77704C50.0413 2.4913 53.1716 5.10682 52.4181 8.20513L52.0343 9.78337C51.1164 8.17972 49.0725 7.29546 47.1231 8.15375Z" fill="white"/>
</g>
<g opacity="0.35">
<path d="M1.44133 33.1333C1.81947 34.388 2.82218 35.4575 4.31099 35.7788L19.8717 39.1397L25.9202 53.848C27.1343 56.7961 31.2079 57.0773 32.8137 54.3195L40.819 40.5756L56.6906 39.3734C58.4157 39.2407 59.6507 38.0708 60.0848 36.6484C60.126 36.7805 60.1588 36.9143 60.1848 37.0487C60.0599 36.4073 59.7654 35.7799 59.272 35.2282L57.3706 33.1057C55.8789 35.7675 48.1913 35.1322 43.0161 34.3671C40.264 33.96 37.608 35.5145 36.6041 38.1063C35.1345 41.9009 32.8702 46.6672 30.7659 46.6672C28.9114 46.6672 26.5041 41.9381 24.9452 38.3514C23.9481 36.0577 21.6092 34.637 19.1126 34.8132C15.7376 35.0509 11.2028 35.1402 8.8345 34.2017C5.22496 32.7697 7.14899 28.7436 9.51108 25.5104L2.63226 31.3445C1.9246 31.9453 1.50859 32.7065 1.34863 33.5004C1.3735 33.3767 1.40403 33.2542 1.44133 33.1333Z" fill="#371A45"/>
</g>
<path d="M29.4931 60.0436C29.3738 60.0436 29.254 60.0396 29.133 60.0312C27.1734 59.8968 25.4924 58.6856 24.7451 56.8708L18.9487 42.7801L4.0437 39.5621C2.12362 39.1477 0.634251 37.7078 0.156634 35.8037C-0.320983 33.9002 0.312637 31.9284 1.80992 30.6585L13.4333 20.7972L11.8907 5.64165C11.6918 3.68904 12.6024 1.82904 14.267 0.787235C15.9316 -0.254569 18.0042 -0.26191 19.6762 0.767472L32.6561 8.76367L46.6081 2.61449C48.4056 1.8217 50.4579 2.11307 51.9637 3.37227C53.4706 4.63147 54.1177 6.59875 53.6543 8.50562L50.0526 23.3088L60.2177 34.6648C61.5267 36.1278 61.8845 38.1674 61.1509 39.9879C60.4172 41.8084 58.7447 43.0314 56.7862 43.1799L41.5804 44.333L33.912 57.4998C32.9845 59.0916 31.3148 60.0436 29.4931 60.0436ZM16.9868 2.53769C16.516 2.53769 16.0457 2.67208 15.6179 2.93973C14.7672 3.47221 14.3195 4.3864 14.4213 5.38416L16.0989 21.869L3.45643 32.5959C2.69111 33.2452 2.37967 34.2136 2.62385 35.1865C2.86803 36.1595 3.59943 36.867 4.58123 37.0787L20.7931 40.5791L27.0976 55.9057C27.4792 56.8335 28.3055 57.4286 29.3071 57.497C30.3115 57.5653 31.2085 57.0887 31.7133 56.222L40.0555 41.8998L56.5946 40.6457C57.5956 40.57 58.4174 39.9692 58.7922 39.0387C59.1675 38.1081 58.9917 37.1064 58.3219 36.3582L47.2655 24.0068L51.1825 7.90539C51.4193 6.93078 51.1017 5.96407 50.3319 5.32035C49.562 4.67664 48.5542 4.53378 47.6352 4.93864L32.4594 11.6276L18.3411 2.93013C17.9166 2.66869 17.4515 2.53769 16.9868 2.53769Z" fill="#371A45"/>
<path d="M46.1639 48.0156C45.225 41.1651 41.2972 39.3644 35.5726 39.4819C34.3529 39.5067 33.44 40.1764 34.1641 43.1601C34.6055 44.9789 37.8245 45.5288 37.8245 45.5288C37.8245 45.5288 36.1311 48.3194 36.6844 53.7532L46.1639 48.0156Z" fill="white"/>
<path d="M36.6822 54.7086C36.1972 54.7086 35.7818 54.3415 35.7315 53.8492C35.3516 50.1156 35.9869 47.5385 36.4894 46.1731C35.303 45.7863 33.6175 44.9693 33.2337 43.3848C32.781 41.518 32.8663 40.2645 33.5028 39.4384C33.9549 38.8517 34.6451 38.5445 35.5523 38.5259C40.333 38.4305 45.9491 39.4045 47.1112 47.8857C47.1824 48.4086 46.8167 48.8908 46.2927 48.962C45.7682 49.0343 45.2866 48.6678 45.2148 48.1444C44.4478 42.5457 41.6584 40.3096 35.5913 40.4361C35.2923 40.4423 35.099 40.4988 35.0181 40.6038C34.9305 40.7173 34.6773 41.221 35.0927 42.9336C35.3121 43.8388 37.1366 44.4373 37.9861 44.5858C38.2976 44.6401 38.5627 44.8445 38.6932 45.1324C38.8238 45.4199 38.8052 45.7536 38.6412 46.0235C38.6294 46.0444 37.1264 48.6616 37.6346 53.6555C37.6883 54.1806 37.305 54.6493 36.7794 54.7029C36.7477 54.7069 36.7149 54.7086 36.6822 54.7086Z" fill="#371A45"/>
<path d="M82.5549 148.117C77.5029 148.117 74.9187 146.828 74.7378 146.734C74.3224 146.518 74.1602 146.007 74.3755 145.592C74.5909 145.178 75.1001 145.016 75.5161 145.229C75.6235 145.283 82.8398 148.767 97.1406 143.448C97.5786 143.285 98.0676 143.507 98.2309 143.946C98.3943 144.384 98.171 144.872 97.7324 145.035C91.3221 147.419 86.2713 148.117 82.5549 148.117Z" fill="#371A45"/>
<g opacity="0.35">
<path d="M47.5266 53.2122C47.6786 53.8158 47.838 54.4149 48.0036 55.005C47.6492 54.0474 47.3587 53.101 47.2722 52.1704C47.3542 52.5199 47.4401 52.8672 47.5266 53.2122Z" fill="#371A45"/>
</g>
<path d="M81.3159 161.667C81.3114 161.67 81.3577 161.724 81.3843 161.759C81.412 161.797 81.4566 161.839 81.4922 161.879C81.5629 161.963 81.6539 162.04 81.7375 162.121C81.8189 162.205 81.919 162.274 82.0111 162.35C82.1021 162.429 82.201 162.499 82.3045 162.564C82.7024 162.85 83.1591 163.062 83.6277 163.256C84.5761 163.627 85.6314 163.781 86.6991 163.787C87.7736 163.819 88.8537 163.621 89.9328 163.4C90.4613 163.249 90.9971 163.105 91.5278 162.94L93.0946 162.357L91.6194 163.161C91.113 163.401 90.5952 163.624 90.0775 163.856C89.0148 164.237 87.9223 164.607 86.7624 164.741C85.6127 164.899 84.4071 164.905 83.2167 164.63C82.6261 164.483 82.032 164.302 81.4713 164.015C81.3283 163.95 81.1881 163.878 81.0525 163.794C80.9163 163.711 80.775 163.638 80.6438 163.541C80.5104 163.448 80.3759 163.361 80.2459 163.25C80.1798 163.195 80.1159 163.149 80.0486 163.085C79.9791 163.019 79.9249 162.977 79.831 162.872C79.4975 162.462 79.5603 161.86 79.9701 161.528C80.3799 161.195 80.9824 161.257 81.3159 161.667Z" fill="#371A45"/>
<path d="M65.7964 158.817C65.9337 158.893 66.1276 158.984 66.3045 159.061C66.486 159.142 66.6725 159.215 66.8607 159.287C67.0484 159.361 67.2417 159.42 67.4327 159.488L68.0172 159.662C68.8034 159.875 69.6145 160.012 70.4364 160.068C70.8484 160.106 71.2599 160.093 71.6759 160.089C71.8828 160.08 72.0885 160.055 72.2965 160.039L72.6085 160.01L72.9166 159.956C73.7503 159.844 74.5495 159.563 75.3448 159.25C74.6168 159.687 73.852 160.109 73.0189 160.366L72.7097 160.474L72.3937 160.557C72.1818 160.61 71.9704 160.671 71.7562 160.717C71.3255 160.793 70.8908 160.878 70.451 160.911C69.5721 160.997 68.6791 160.996 67.7911 160.907L67.1252 160.824C66.9048 160.785 66.6821 160.755 66.4611 160.708C66.2401 160.664 66.0191 160.616 65.7975 160.559C65.5709 160.502 65.3657 160.446 65.1102 160.358L65.1074 160.357C64.6654 160.204 64.4308 159.721 64.584 159.279C64.7372 158.837 65.2199 158.603 65.6619 158.756C65.7082 158.773 65.7551 158.795 65.7964 158.817Z" fill="#371A45"/>
<path d="M54.917 119.25C56.8746 119.25 58.4615 117.665 58.4615 115.709C58.4615 113.754 56.8746 112.168 54.917 112.168C52.9594 112.168 51.3724 113.754 51.3724 115.709C51.3724 117.665 52.9594 119.25 54.917 119.25Z" fill="white"/>
<g opacity="0.35">
<path d="M51.3729 115.719C51.3792 117.675 52.9697 119.257 54.9271 119.251C56.8845 119.245 58.4682 117.653 58.462 115.697C58.4603 115.157 58.3377 114.643 58.1167 114.185C57.5514 115.382 56.3317 116.216 54.918 116.22C53.5044 116.224 52.279 115.399 51.7093 114.204C51.4911 114.664 51.3712 115.18 51.3729 115.719Z" fill="#371A45"/>
</g>
<path d="M54.9164 120.097C53.7486 120.097 52.6498 119.644 51.8206 118.821C50.9886 117.995 50.5279 116.894 50.5246 115.723C50.5212 114.551 50.9745 113.448 51.8014 112.616C52.6283 111.785 53.73 111.325 54.9028 111.321C54.9073 111.321 54.9124 111.321 54.9169 111.321C57.3322 111.321 59.3014 113.281 59.3093 115.695C59.3127 116.867 58.8594 117.971 58.0325 118.802C57.2055 119.633 56.1039 120.093 54.9305 120.097C54.926 120.097 54.9209 120.097 54.9164 120.097ZM54.9169 113.015C54.9141 113.015 54.9113 113.015 54.9085 113.015C54.1884 113.017 53.5118 113.3 53.0042 113.81C52.4966 114.321 52.218 114.998 52.2202 115.717C52.2225 116.436 52.5051 117.112 53.0161 117.619C53.5248 118.125 54.1997 118.403 54.9164 118.403C54.9192 118.403 54.922 118.403 54.9248 118.403C55.6449 118.4 56.3215 118.118 56.8297 117.608C57.3372 117.097 57.6159 116.42 57.6136 115.701C57.6085 114.218 56.3995 113.015 54.9169 113.015Z" fill="#371A45"/>
<path d="M58.639 124.481L77.3469 125.534C79.5609 125.66 81.4764 123.952 81.6019 121.736L82.162 111.791C82.2717 109.852 80.9734 108.146 79.1607 107.667C78.9041 107.598 78.6367 107.557 78.3603 107.54L59.6553 106.487C57.4384 106.362 55.5229 108.07 55.4002 110.285L54.9543 118.162L54.8367 120.23C54.7123 122.445 56.425 124.356 58.639 124.481Z" fill="white"/>
<path d="M102.535 116.263C102.452 119.017 99.7236 120.076 99.7236 120.076C99.7236 120.076 95.9507 122.046 80.3555 120.684C80.3555 120.684 75.9326 116.19 81.3899 113.409C81.3899 113.409 92.2536 114.977 99.4732 112.989C100.775 112.631 102.609 113.803 102.535 116.263Z" fill="white"/>
<path d="M58.639 124.481L77.3469 125.534C79.5609 125.66 81.4764 123.952 81.6019 121.736L82.162 111.791C82.2717 109.852 80.9734 108.146 79.1607 107.667C78.9041 107.598 78.6367 107.557 78.3603 107.54L59.6553 106.487C57.4384 106.362 55.5229 108.07 55.4002 110.285L54.9543 118.162L54.8367 120.23C54.7123 122.445 56.425 124.356 58.639 124.481Z" fill="white"/>
<g opacity="0.35">
<path d="M58.6389 124.481L77.3468 125.534C79.5608 125.66 81.4764 123.952 81.6019 121.736L82.162 111.791C82.2717 109.852 80.9733 108.146 79.1607 107.667C78.0585 108.312 77.3587 108.725 77.3587 108.725C75.9976 116.657 73.4976 120.51 63.5655 120.114C59.2782 119.941 56.6115 119.136 54.9548 118.163L54.8372 120.231C54.7123 122.445 56.425 124.356 58.6389 124.481Z" fill="#371A45"/>
</g>
<path d="M77.5763 126.389C77.4836 126.389 77.3909 126.386 77.2976 126.381L58.5914 125.328C55.9038 125.176 53.8401 122.869 53.9916 120.183L54.5529 110.236C54.6258 108.94 55.2029 107.747 56.1779 106.877C57.1529 106.007 58.4094 105.568 59.7021 105.641L78.4083 106.694C81.0959 106.846 83.1596 109.153 83.0087 111.839L82.4474 121.786C82.3745 123.082 81.7968 124.275 80.8224 125.145C79.9174 125.953 78.774 126.389 77.5763 126.389ZM59.4263 107.327C58.6462 107.327 57.8996 107.612 57.3078 108.14C56.6708 108.708 56.2938 109.487 56.2457 110.331L55.6845 120.278C55.5855 122.031 56.9325 123.537 58.6869 123.636L77.3931 124.69C78.2348 124.735 79.0543 124.451 79.6925 123.882C80.3295 123.313 80.7065 122.535 80.7545 121.69L81.3158 111.744C81.4147 109.991 80.0678 108.485 78.3133 108.385L59.6071 107.332C59.5467 107.328 59.4862 107.327 59.4263 107.327Z" fill="#371A45"/>
<path d="M57.8923 124.365C58.132 124.429 58.3801 124.468 58.639 124.481L77.3469 125.534C78.9697 125.625 80.4313 124.734 81.1452 123.376C81.4058 122.883 81.5674 122.328 81.5991 121.736L81.8501 117.318L81.9326 115.86L82.1621 111.79C82.2875 109.576 80.5749 107.665 78.3603 107.54L74.3178 107.313C76.161 107.769 77.4876 109.489 77.378 111.448L77.0767 116.82L76.8178 121.396C76.6924 123.608 74.7768 125.32 72.5628 125.194L57.8923 124.365Z" fill="white"/>
<g opacity="0.35">
<path d="M57.8923 124.365C58.132 124.429 58.3801 124.468 58.639 124.481L77.3469 125.534C79.5609 125.66 81.4764 123.952 81.5991 121.736L81.9326 115.861C81.4035 116.872 80.4862 118.099 79.1262 118.157C78.3801 118.19 77.6798 117.615 77.0773 116.821L76.8184 121.397C76.6929 123.609 74.7774 125.32 72.5634 125.195L57.8923 124.365Z" fill="#371A45"/>
</g>
<path d="M77.5792 126.389C77.4859 126.389 77.3921 126.386 77.2988 126.381L58.5909 125.327C58.2868 125.311 57.9782 125.264 57.6781 125.186L57.9387 123.521L72.6114 124.348C73.4575 124.394 74.272 124.11 74.9091 123.54C75.5461 122.971 75.9231 122.193 75.9705 121.349L76.5318 111.402C76.6177 109.877 75.6015 108.502 74.1155 108.134L74.367 106.466L78.4078 106.693C81.0977 106.846 83.1608 109.155 83.0076 111.839L82.4464 121.785C82.374 123.081 81.7969 124.275 80.8213 125.145C79.9175 125.953 78.7752 126.389 77.5792 126.389ZM76.2311 124.624L77.3949 124.69C78.2388 124.735 79.0556 124.451 79.6926 123.882C80.3296 123.313 80.7066 122.535 80.7541 121.691V121.69L81.3153 111.744C81.4154 109.991 80.0679 108.485 78.3129 108.385L77.2768 108.327C77.9353 109.216 78.2919 110.328 78.2258 111.498L77.6645 121.444C77.5967 122.653 77.0903 123.772 76.2311 124.624Z" fill="#371A45"/>
<path d="M68.8696 115.523C68.8509 115.892 69.2183 118.888 69.2183 118.888C69.2183 118.888 70.16 118.935 71.3165 118.994C72.7612 119.067 74.0081 117.632 74.1013 115.788C74.1946 113.945 73.0992 112.391 71.6545 112.318C70.6794 112.269 69.5563 112.212 69.5563 112.212C69.5563 112.212 68.9001 114.924 68.8696 115.523Z" fill="#22A7F0"/>
<g opacity="0.35">
<path d="M68.8696 115.523C68.8509 115.892 69.2183 118.888 69.2183 118.888C69.2183 118.888 70.16 118.935 71.3165 118.994C72.7612 119.067 74.0081 117.632 74.1013 115.788C74.1946 113.945 73.0992 112.391 71.6545 112.318C70.6794 112.269 69.5563 112.212 69.5563 112.212C69.5563 112.212 68.9001 114.924 68.8696 115.523Z" fill="#371A45"/>
</g>
<path d="M71.4244 119.561C71.3792 119.561 71.3334 119.56 71.2876 119.558L68.7153 119.428L68.6571 118.957C68.5695 118.243 68.2852 115.883 68.3049 115.496C68.3372 114.862 68.9386 112.364 69.007 112.081L69.1172 111.626L71.6833 111.755C73.4366 111.844 74.7751 113.666 74.666 115.818C74.6146 116.835 74.2511 117.78 73.6429 118.481C73.0336 119.181 72.2508 119.561 71.4244 119.561ZM69.7225 118.348L71.3453 118.43C71.8698 118.453 72.3797 118.211 72.7895 117.74C73.2332 117.229 73.4988 116.526 73.5378 115.76C73.6153 114.231 72.7578 112.939 71.6268 112.882L69.9984 112.8C69.7559 113.83 69.4535 115.204 69.4354 115.551C69.4286 115.757 69.5688 117.059 69.7225 118.348Z" fill="#371A45"/>
<path d="M71.9982 115.679C72.0915 113.836 70.996 112.282 69.5513 112.209C68.1066 112.136 66.8598 113.571 66.7665 115.415C66.6732 117.258 67.7687 118.812 69.2134 118.885C70.6581 118.958 71.9049 117.523 71.9982 115.679Z" fill="#22A7F0"/>
<g opacity="0.35">
<path d="M69.2195 118.887C70.6625 118.96 71.9094 117.525 72.0032 115.682C72.0242 115.259 71.9846 114.85 71.8896 114.473C71.5465 115.937 70.4506 116.982 69.2133 116.92C68.0998 116.864 67.1937 115.928 66.88 114.659C66.8229 114.901 66.7856 115.155 66.7726 115.417C66.6782 117.262 67.7742 118.814 69.2195 118.887Z" fill="#371A45"/>
</g>
<g opacity="0.7">
<path d="M66.8173 116.287C67.0558 114.644 68.223 113.42 69.5604 113.488C70.7694 113.548 71.7365 114.649 71.9626 116.09C71.9824 115.958 71.9959 115.82 72.0033 115.682C72.0977 113.839 71.0017 112.285 69.5564 112.212C68.1111 112.138 66.8648 113.574 66.7727 115.417C66.7574 115.717 66.7721 116.008 66.8173 116.287Z" fill="white"/>
</g>
<path d="M69.3229 119.455C69.2783 119.455 69.2348 119.454 69.1901 119.452C67.4368 119.363 66.0983 117.541 66.2074 115.39C66.2588 114.373 66.6223 113.427 67.2305 112.727C67.8731 111.987 68.7017 111.6 69.5858 111.649C71.3391 111.737 72.6776 113.559 72.5685 115.711C72.4616 117.807 71.0192 119.455 69.3229 119.455ZM69.4518 112.774C68.9572 112.774 68.474 113.018 68.0845 113.466C67.6408 113.977 67.3752 114.68 67.3362 115.446C67.2587 116.976 68.1162 118.267 69.2472 118.324C70.381 118.369 71.3611 117.183 71.4391 115.654C71.5166 114.125 70.6591 112.833 69.5281 112.776C69.5027 112.775 69.4772 112.774 69.4518 112.774Z" fill="#371A45"/>
<path d="M64.4591 125.442C64.4512 125.442 64.4433 125.442 64.4354 125.442C64.0454 125.429 63.7396 125.103 63.7526 124.713L63.9103 119.887C63.9482 118.729 63.5418 117.617 62.7652 116.757L62.5199 116.484C61.4697 115.321 60.9231 113.757 61.0197 112.193L61.3668 106.585C61.3911 106.197 61.7195 105.902 62.1157 105.925C62.5052 105.948 62.8013 106.284 62.777 106.673L62.43 112.281C62.3565 113.468 62.7719 114.656 63.5695 115.54L63.8148 115.812C64.8373 116.945 65.3731 118.409 65.3228 119.933L65.1651 124.76C65.1521 125.141 64.8384 125.442 64.4591 125.442Z" fill="#371A45"/>
<path d="M102.535 116.263C102.452 119.017 99.7236 120.076 99.7236 120.076C99.7236 120.076 95.9507 122.046 80.3555 120.684C80.3555 120.684 75.9326 116.19 81.3899 113.409C81.3899 113.409 92.2536 114.977 99.4732 112.989C100.775 112.631 102.609 113.803 102.535 116.263Z" fill="white"/>
<g opacity="0.35">
<path d="M102.534 116.263C102.453 119.016 99.7242 120.076 99.7242 120.076C99.7242 120.076 95.9508 122.046 80.3556 120.684C80.3556 120.684 77.8528 118.141 78.9369 115.697C78.9414 115.71 78.9465 115.723 78.9516 115.736C79.4586 117.07 80.7145 117.977 82.1383 118.084C96.2339 119.146 99.7152 117.328 99.7152 117.328C99.7152 117.328 101.625 116.586 102.297 114.733C102.463 115.168 102.552 115.678 102.534 116.263Z" fill="#371A45"/>
</g>
<path d="M90.1136 122.007C87.5068 122.007 84.2726 121.877 80.2815 121.529L79.9701 121.501L79.7508 121.278C79.6564 121.183 77.4503 118.906 77.8691 116.333C78.1139 114.828 79.1686 113.591 81.0044 112.655L81.2441 112.533L81.5109 112.571C81.6177 112.587 92.2858 114.09 99.2483 112.173C100.118 111.933 101.108 112.16 101.897 112.779C102.885 113.554 103.426 114.833 103.382 116.289C103.288 119.424 100.427 120.702 100.064 120.852C99.6761 121.032 97.2378 122.007 90.1136 122.007ZM80.7665 119.87C95.4268 121.117 99.3042 119.338 99.3427 119.319L99.4161 119.286C99.5026 119.251 101.623 118.381 101.687 116.237C101.725 114.989 101.179 114.369 100.849 114.111C100.487 113.827 100.047 113.709 99.6988 113.806C92.9511 115.665 83.3315 114.523 81.5453 114.286C80.3601 114.938 79.6869 115.718 79.5428 116.604C79.3229 117.958 80.3296 119.344 80.7665 119.87Z" fill="#371A45"/>
<path d="M110.636 137.318C109.954 137.681 109.125 137.969 108.355 138.069C105.865 138.392 103.896 137.645 103.896 137.645C103.896 137.645 103.044 138.175 102.195 138.232C99.5004 138.414 98.0489 137.833 97.2994 136.649C95.6891 134.114 97.2813 128.796 96.6929 122.217C95.7795 112.037 91.3934 102.989 91.3934 102.989L91.1345 97.1295L90.9892 93.8821L90.6145 85.433L90.5303 83.5245C90.5303 83.5245 94.0923 85.8255 98.522 90.1988C99.1421 90.8115 99.7785 91.4653 100.423 92.1571C106.525 98.7043 113.478 108.824 115.046 121.995C116.156 131.327 113.941 135.555 110.636 137.318Z" fill="white"/>
<g opacity="0.35">
<path d="M114.084 133.537C113.246 135.378 112.039 136.569 110.635 137.318C109.954 137.681 109.124 137.969 108.355 138.069C105.865 138.392 103.896 137.645 103.896 137.645C103.896 137.645 103.044 138.175 102.194 138.232C99.4998 138.414 98.0483 137.833 97.2988 136.649C95.6885 134.114 97.2807 128.796 96.6923 122.217C95.9247 113.668 92.7103 105.918 91.6991 103.654C95.1227 107.616 98.1613 110.413 99.0702 118.903C99.7734 125.471 98.505 130.711 100.116 133.247C100.865 134.431 102.317 135.012 105.011 134.83C105.861 134.774 106.713 134.243 106.713 134.243C106.713 134.243 108.682 134.989 111.172 134.667C111.942 134.567 112.771 134.279 113.452 133.916C113.668 133.8 113.88 133.676 114.084 133.537Z" fill="#371A45"/>
</g>
<path d="M90.7032 83.258C93.5412 84.4313 95.8773 86.3546 98.0924 88.3631C100.286 90.4066 102.27 92.6613 104.147 94.9934C106.034 97.3186 107.755 99.7828 109.271 102.372C110.79 104.959 112.108 107.669 113.175 110.48C114.242 113.291 115.057 116.201 115.583 119.164C115.84 120.647 116.04 122.14 116.171 123.64C116.278 125.146 116.325 126.665 116.239 128.196C116.142 129.725 115.907 131.272 115.408 132.783C115.262 133.156 115.135 133.534 114.964 133.9C114.785 134.263 114.622 134.632 114.396 134.977C113.988 135.684 113.451 136.331 112.846 136.9C111.619 138.035 110.088 138.814 108.38 139.028C107.574 139.12 106.762 139.131 105.963 139.048C105.562 139.011 105.165 138.951 104.769 138.869C104.572 138.828 104.374 138.782 104.177 138.73C103.972 138.673 103.797 138.625 103.555 138.537L104.402 138.454C104.257 138.542 104.16 138.593 104.039 138.655C103.923 138.713 103.807 138.768 103.687 138.818C103.447 138.92 103.198 139.009 102.927 139.077C102.792 139.111 102.652 139.139 102.506 139.16C102.433 139.171 102.355 139.177 102.281 139.184L102.101 139.194C101.868 139.203 101.637 139.216 101.402 139.22C100.467 139.226 99.4766 139.156 98.4671 138.762C98.215 138.676 97.9703 138.53 97.7273 138.395C97.4949 138.23 97.2559 138.07 97.0575 137.858C96.6454 137.454 96.3272 136.957 96.1333 136.461C95.9287 135.964 95.806 135.465 95.7354 134.985C95.6546 134.499 95.6291 134.033 95.6071 133.568C95.5585 131.727 95.723 129.994 95.7959 128.268C95.8812 126.545 95.9055 124.84 95.801 123.149C95.7507 122.308 95.6393 121.457 95.5489 120.61C95.498 120.186 95.4245 119.765 95.364 119.342C95.303 118.919 95.2374 118.496 95.1532 118.077C94.8627 116.391 94.4563 114.722 94.0103 113.065C93.5655 111.405 92.9324 109.804 92.4073 108.171C91.8709 106.538 91.3577 104.901 91.1039 103.128L91.1022 103.115C91.0762 102.935 91.2023 102.767 91.3831 102.742C91.4973 102.725 91.607 102.771 91.6782 102.851C92.8985 104.236 93.6712 105.842 94.3133 107.489C94.9622 109.136 95.3974 110.855 95.8597 112.561C96.3131 114.269 96.7364 115.989 97.0371 117.738C97.1242 118.172 97.192 118.611 97.2559 119.05C97.3192 119.49 97.3943 119.927 97.448 120.368C97.543 121.253 97.6572 122.131 97.7114 123.03C97.8222 124.818 97.7945 126.603 97.708 128.359C97.6317 130.113 97.474 131.858 97.5198 133.503C97.5543 134.313 97.6402 135.114 97.9008 135.729C98.0223 136.044 98.1936 136.293 98.4027 136.498C98.4982 136.61 98.6305 136.686 98.7486 136.779C98.8899 136.849 99.016 136.937 99.1799 136.989C99.7982 137.236 100.582 137.321 101.384 137.309L101.992 137.286L102.139 137.279L102.239 137.268C102.309 137.257 102.382 137.243 102.459 137.224C102.612 137.186 102.774 137.129 102.936 137.06C103.017 137.026 103.097 136.988 103.177 136.948C103.251 136.912 103.345 136.859 103.387 136.834L103.789 136.592L104.234 136.751C104.339 136.789 104.519 136.843 104.67 136.883C104.829 136.925 104.992 136.964 105.155 136.997C105.483 137.065 105.816 137.116 106.15 137.147C106.819 137.217 107.492 137.205 108.152 137.13C108.76 137.063 109.385 136.861 109.963 136.587C110.527 136.292 111.087 135.949 111.544 135.5C112.01 135.059 112.43 134.562 112.758 133.989C112.94 133.717 113.073 133.408 113.221 133.111C113.363 132.809 113.469 132.485 113.594 132.173C114.021 130.88 114.241 129.488 114.33 128.077C114.409 126.662 114.366 125.228 114.264 123.792C114.139 122.355 113.946 120.922 113.7 119.499C113.195 116.655 112.413 113.86 111.386 111.157C110.36 108.453 109.089 105.839 107.622 103.339C106.155 100.838 104.491 98.4491 102.657 96.1955C101.741 95.0673 100.772 93.9826 99.7717 92.929C98.7644 91.8815 97.7278 90.8634 96.6827 89.8549C95.6416 88.8408 94.5682 87.8622 93.5027 86.8701C92.4424 85.8729 91.3814 84.8605 90.3573 83.7921L90.3454 83.7797C90.2216 83.6504 90.2261 83.4454 90.355 83.3218C90.4511 83.2314 90.5884 83.2105 90.7032 83.258Z" fill="#371A45"/>
<path d="M94.9594 113.728C94.6626 113.728 94.3749 113.572 94.2189 113.295C93.99 112.887 94.1353 112.371 94.5434 112.142C95.0453 111.861 106.899 105.287 112.171 108.655C112.565 108.907 112.68 109.431 112.428 109.825C112.176 110.22 111.652 110.335 111.257 110.083C107.586 107.738 98.5469 111.841 95.3737 113.62C95.242 113.693 95.0996 113.728 94.9594 113.728Z" fill="#371A45"/>
<g opacity="0.35">
<path d="M98.5208 90.1988C97.01 91.1813 95.4177 92.0509 93.7548 92.7929C93.6141 92.8567 93.4711 92.9177 93.3275 92.9769C92.6074 93.2881 91.876 93.5738 91.1333 93.8347C91.0858 93.8505 91.0355 93.8686 90.9881 93.8821C87.4808 95.0939 83.7164 95.75 79.8 95.75C72.1897 95.75 65.1589 93.274 59.4733 89.0825C59.3642 89.0051 59.2573 88.9261 59.1505 88.8442C58.4101 88.2857 57.6306 87.7549 56.9399 87.1423C56.5765 86.8221 56.2379 86.4771 55.9428 86.096C49.8163 78.2031 49.8163 71.0364 49.8163 61.3846C49.8163 61.0898 49.7983 60.7945 49.7621 60.502C52.4746 67.8777 56.1429 73.4808 60.5636 75.4758L60.5364 75.7366L60.6387 75.5074C60.7252 75.5458 60.8111 75.5825 60.8976 75.6186L60.5364 79.032L60.7252 78.6074L85.3703 75.1646L90.6133 85.4336L90.5291 83.525C90.5291 83.5245 94.0912 85.8255 98.5208 90.1988Z" fill="#371A45"/>
</g>
<path d="M48.5146 56.9565C54.4461 103.708 119.716 97.798 118.888 52.4211C113.953 4.42019 46.4905 10.5931 48.5146 56.9565Z" fill="white"/>
<path d="M48.5146 56.9565C54.4461 103.708 119.716 97.798 118.888 52.4211C113.953 4.42019 46.4905 10.5931 48.5146 56.9565Z" fill="white"/>
<path d="M48.5146 56.9565C54.4461 103.708 119.716 97.798 118.888 52.4211C113.953 4.42019 46.4905 10.5931 48.5146 56.9565Z" fill="white"/>
<path d="M83.3338 90.135C75.3183 90.135 67.6804 87.6177 61.5759 82.9192C53.9194 77.0252 49.133 68.0821 47.7341 57.0559L47.7284 56.9915C47.2468 45.9619 50.6116 36.396 57.4594 29.3281C63.5689 23.0213 72.0032 19.1782 81.2091 18.5057C90.3963 17.8332 99.2291 20.4245 106.082 25.7972C113.81 31.8561 118.508 41.0347 119.671 52.3415L119.675 52.4076C119.872 63.2181 116.379 72.5745 109.572 79.4657C103.484 85.6284 95.1532 89.3823 86.1147 90.0351C85.1838 90.1011 84.2562 90.135 83.3338 90.135ZM49.2998 56.8899C52.2864 80.3189 69.8819 89.6268 86.0011 88.4664C101.75 87.3292 118.507 75.5785 118.101 52.4691C115.625 28.5483 97.3017 18.9055 81.3238 20.0738C65.1843 21.2517 48.2835 33.2739 49.2998 56.8899Z" fill="#371A45"/>
<g opacity="0.35">
<path d="M48.5152 56.9554C52.9347 97.4254 107.402 100.671 117.843 62.9594C110.685 73.5277 106.506 72.2566 97.8804 75.4696C70.8642 86.5737 47.7775 59.7166 54.2177 34.868C49.8451 41.4887 47.929 49.2901 48.5152 56.9554Z" fill="#371A45"/>
</g>
<path d="M83.3337 90.4518C75.2487 90.4518 67.5424 87.9114 61.3826 83.1699C53.6576 77.2234 48.8294 68.2069 47.4198 57.0954L47.4119 57.0051C46.9263 45.8863 50.3216 36.2396 57.2316 29.1073C63.3954 22.7447 71.9026 18.8677 81.1859 18.1895C90.4556 17.5142 99.363 20.1263 106.278 25.5477C114.074 31.6607 118.815 40.9144 119.986 52.3088L119.992 52.4014C120.191 63.2994 116.665 72.7349 109.797 79.6876C103.655 85.9051 95.2527 89.6923 86.1373 90.3501C85.1996 90.4179 84.2635 90.4518 83.3337 90.4518ZM49.6157 56.8628C52.5826 80.0738 70.0142 89.3044 85.9784 88.1502C101.58 87.0237 118.181 75.3832 117.785 52.4878C115.326 28.7866 97.1733 19.2319 81.3475 20.3889C65.359 21.5566 48.6175 33.4693 49.6157 56.8628Z" fill="#293856"/>
<path d="M83.3337 90.4518C75.2487 90.4518 67.5424 87.9114 61.3826 83.1699C53.6576 77.2234 48.8294 68.2069 47.4198 57.0954L47.4119 57.0051C46.9263 45.8863 50.3216 36.2396 57.2316 29.1073C63.3954 22.7447 71.9026 18.8677 81.1859 18.1895C90.4556 17.5142 99.363 20.1263 106.278 25.5477C114.074 31.6607 118.815 40.9144 119.986 52.3088L119.992 52.4014C120.191 63.2994 116.665 72.7349 109.797 79.6876C103.655 85.9051 95.2527 89.6923 86.1373 90.3501C85.1996 90.4179 84.2635 90.4518 83.3337 90.4518ZM49.6157 56.8628C52.5826 80.0738 70.0142 89.3044 85.9784 88.1502C101.58 87.0237 118.181 75.3832 117.785 52.4878C115.326 28.7866 97.1733 19.2319 81.3475 20.3889C65.359 21.5566 48.6175 33.4693 49.6157 56.8628Z" fill="#371A45"/>
<path d="M50.3522 65.7946C72.707 100.625 118.499 77.1421 105.23 43.4289C88.0698 6.56931 38.353 25.4488 50.3522 65.7946Z" fill="#371A45"/>
<path d="M52.8957 39.6281C35.8846 72.9393 82.2666 99.8252 102.822 71.9206C78.4298 82.1653 53.6876 60.2987 52.8957 39.6281Z" fill="#21102B"/>
<path d="M79.0149 87.7013C78.9652 87.7013 78.9165 87.7013 78.8662 87.7013C71.1741 87.668 63.9216 84.987 58.4463 80.1523C52.2808 74.7078 48.5062 66.7212 47.5306 57.0559L47.53 57.0485C46.7608 48.7948 49.3071 39.9466 54.5168 32.7725C60.0334 25.1755 67.8839 20.2426 76.6223 18.8818L76.7054 18.8688L76.7896 18.8699C86.3351 19.0151 95.7569 23.451 102.64 31.0407C109.498 38.6038 112.979 48.3482 112.191 57.7758C111.192 66.8844 107.155 74.5802 100.513 80.0569C94.5304 84.9892 86.8998 87.7013 79.0149 87.7013ZM49.4999 56.8616C51.6432 78.0817 66.663 85.6719 78.8753 85.7244C78.9194 85.7244 78.9629 85.7244 79.007 85.7244C93.0082 85.7244 108.195 76.0805 110.223 57.585C110.964 48.7265 107.666 39.5253 101.175 32.3665C94.679 25.2038 85.8157 21.0083 76.8444 20.8463C58.743 23.7159 48.0936 41.7676 49.4999 56.8616Z" fill="#371A45"/>
<path d="M78.8136 84.1027C76.0717 84.1027 73.3202 83.7368 70.6252 82.9977C62.2542 80.7017 54.922 74.9591 49.4224 66.3898L49.3382 66.2582L49.2935 66.1086C46.399 56.3755 46.8331 47.1477 50.5489 39.4237C53.8769 32.5054 59.662 27.1999 66.837 24.4849C73.8492 21.8316 81.4872 21.9293 88.3451 24.7605C95.9666 27.9074 102.151 34.2017 106.23 42.9641L106.256 43.0257C109.368 50.9327 109.515 58.8216 106.679 65.8392C104.111 72.1934 99.198 77.4786 92.8448 80.7215C88.4553 82.9626 83.6514 84.1027 78.8136 84.1027ZM51.3656 65.331C62.8075 83.0372 79.926 84.8402 91.8399 78.7582C102.654 73.2374 110.67 60.3095 104.214 43.8642C95.68 25.5663 79.6875 21.9807 67.6187 26.5477C55.2171 31.24 45.4014 45.046 51.3656 65.331Z" fill="#371A45"/>
<path d="M116.098 78.7068C106.658 92.3886 92.1378 84.0892 99.8316 70.1199C109.198 55.4178 124.721 64.2875 116.098 78.7068Z" fill="white"/>
<g opacity="0.35">
<path d="M101.361 84.7447C96.9897 82.289 96.4244 75.2059 100.274 69.4085C99.8989 77.2838 112.002 69.9392 113.993 67.1086C124.093 75.6937 109.292 89.4275 101.361 84.7447Z" fill="#371A45"/>
</g>
<path d="M105.247 86.7973C103.523 86.7973 101.944 86.3388 100.647 85.5386C96.7211 83.1168 94.6473 77.2454 98.8645 69.5886L98.9001 69.5282C104.031 61.4744 111.185 60.0147 115.601 62.7353C119.59 65.1933 121.744 71.4164 117.046 79.2726L117.007 79.333C113.311 84.6894 108.944 86.7973 105.247 86.7973ZM100.782 70.6829C97.2852 77.0551 98.7752 81.7921 101.806 83.6623C105.021 85.6459 110.571 84.7532 115.168 78.1111C119.076 71.5531 117.534 66.518 114.442 64.6128C110.951 62.4625 105.143 63.859 100.782 70.6829Z" fill="#371A45"/>
<path d="M116.273 79.8147C108.612 90.8939 97.6289 84.8599 103.849 73.5604C111.468 61.4766 123.398 68.0471 116.273 79.8147Z" fill="white"/>
<path d="M107.423 86.6685C106.145 86.6685 104.986 86.3359 104.035 85.7487C101.054 83.9079 99.5727 79.2782 102.983 73.0844L103.012 73.0342C107.251 66.3118 112.959 64.9465 116.407 67.073C119.47 68.9624 121 73.9156 117.119 80.3262L117.086 80.3765C113.964 84.8904 110.377 86.6685 107.423 86.6685ZM104.702 74.0619C101.935 79.1054 102.894 82.7204 105.075 84.0671C107.453 85.5353 111.708 84.6606 115.442 79.2771C118.607 74.0308 117.625 70.1453 115.369 68.754C112.752 67.1408 108.252 68.4485 104.702 74.0619Z" fill="#371A45"/>
<g opacity="0.5">
<path d="M99.9758 62.3287C95.3302 67.5033 89.3608 62.3197 92.6222 57.17C97.1027 50.9078 104.236 56.904 99.9758 62.3287Z" fill="white"/>
</g>
<g opacity="0.5">
<path d="M91.6952 69.9703C89.804 71.8467 87.1497 69.6298 89.0155 67.4011C90.9062 65.5247 93.561 67.7416 91.6952 69.9703Z" fill="white"/>
</g>
<g opacity="0.5">
<path d="M55.168 43.7964C62.538 18.277 88.5022 26.983 93.5141 35.5597C77.2989 29.0932 65.6863 35.4355 55.168 43.7964Z" fill="white"/>
</g>
<g opacity="0.35">
<path d="M101.934 75.9874C102.533 74.19 103.628 72.5508 105 71.2306C103.23 80.3692 113.12 80.7215 117.819 75.8157C113.838 88.6748 98.9335 88.4054 101.934 75.9874Z" fill="#371A45"/>
</g>
<path d="M106.025 61.9651C105.079 61.9651 104.537 61.5636 104.235 61.179C103.225 59.8933 104.118 57.7713 104.416 57.1513C104.68 56.6024 105.339 56.3709 105.889 56.6341C106.438 56.8972 106.67 57.5545 106.407 58.1033C106.134 58.6776 105.942 59.4342 105.974 59.7589C106.058 59.7634 106.201 59.7578 106.428 59.7098C107.025 59.5861 107.61 59.9661 107.736 60.5624C107.861 61.1587 107.479 61.7431 106.883 61.8685C106.565 61.9363 106.28 61.9651 106.025 61.9651Z" fill="#371A45"/>
</svg>
