<svg width="679" height="452" viewBox="0 0 679 452" fill="none" xmlns="http://www.w3.org/2000/svg">
<path d="M456.787 269.52H249.46C237.882 269.52 228.48 278.878 228.48 290.468V352.444C228.48 364.005 237.853 373.393 249.46 373.393H281.146L276.765 391.791C276.039 394.776 279.434 397.007 281.901 395.21L311.585 373.422H456.787C468.365 373.422 477.766 364.063 477.766 352.473V290.497C477.737 278.907 468.365 269.52 456.787 269.52Z" fill="white"/>
<path d="M279.957 396.34C279.231 396.34 278.477 396.137 277.839 395.703C276.475 394.805 275.865 393.211 276.243 391.617L280.479 373.885H249.46C237.592 373.885 227.958 364.237 227.958 352.415V290.439C227.958 278.588 237.621 268.969 249.46 268.969H456.758C468.626 268.969 478.26 278.617 478.26 290.439V352.415C478.26 364.266 468.626 373.885 456.758 373.885H311.731L282.191 395.587C281.553 396.108 280.74 396.34 279.957 396.34ZM249.46 270.07C238.201 270.07 229.032 279.226 229.032 290.468V352.444C229.032 363.686 238.201 372.842 249.46 372.842H281.147C281.321 372.842 281.466 372.929 281.582 373.045C281.698 373.161 281.727 373.335 281.698 373.508L277.316 391.907C276.997 393.269 277.694 394.312 278.477 394.834C279.26 395.355 280.479 395.587 281.611 394.747L311.295 372.958C311.382 372.9 311.498 372.842 311.615 372.842H456.816C468.075 372.842 477.244 363.686 477.244 352.444V290.468C477.244 279.226 468.075 270.07 456.816 270.07H249.46Z" fill="black"/>
<path d="M426.116 106.973C426.029 106.915 423.388 106.365 422.518 102.251C421.618 98.1361 422.431 94.949 424.085 92.5151C425.739 90.0813 428.728 88.3718 428.728 88.3718C428.728 88.3718 429.685 84.1705 433.051 82.3162C436.388 80.4618 439.986 80.6067 443.091 80.0851C446.196 79.5926 449.794 79.129 454.64 80.4328C459.486 81.7077 463.374 85.5033 465.086 87.2128C466.827 88.9223 470.396 95.7892 471.557 99.8456C472.718 103.902 472.485 110.972 472.34 113.464C472.195 115.926 472.921 122.822 475.3 123.981C477.679 125.14 477.447 124.735 476.867 125.633C476.258 126.56 472.079 128.588 470.831 128.762C469.584 128.936 468.133 127.661 467.523 125.227C467.523 125.227 468.539 128.733 467.901 129.255C467.262 129.776 466.276 130.79 461.923 131.544C457.571 132.297 456.468 131.717 455.888 131.833C455.307 131.949 452.115 132.703 449.098 132.876C446.08 133.05 445.093 133.369 444.629 132.674C444.165 131.978 438.535 134.702 434.705 135.832C430.875 136.962 425.42 137.136 423.127 136.556C420.835 135.977 419.848 135.948 420.835 135.194C421.851 134.441 425.971 131.457 427.248 126.821C428.525 122.185 427.016 107.234 427.016 107.234L426.116 106.973Z" fill="#976566"/>
<path d="M317.012 122.619C317.012 122.591 310.019 102.946 310.019 102.946C310.019 102.946 309.641 101.787 310.802 101.613C311.963 101.439 316.663 101.178 316.663 101.178C316.663 101.178 317.505 101.439 317.621 102.279C317.737 103.12 326.268 125.488 326.268 125.488L326.007 125.894C326.007 125.894 321.596 124.995 320.203 124.416C319.362 124.097 317.012 122.619 317.012 122.619Z" fill="#72B3E4"/>
<path d="M415.177 203.023C411.666 197.634 409.286 193.114 408.358 192.274C407.429 191.405 406.733 190.999 406.907 190.999C407.081 190.999 409.373 186.305 409.373 186.305C409.373 186.305 409.605 177.7 409.286 175.034C408.967 172.339 408.967 168.66 408.967 168.66C408.967 168.66 402.728 171.181 398.898 172.542C395.068 173.904 393.849 173.643 393.849 173.643L378.093 153.216C378.093 153.216 371.97 145.133 368.256 142.119C364.542 139.135 361.727 138.034 357.346 136.73C352.964 135.455 340.254 131.283 340.254 131.283C340.254 131.283 338.92 130.993 338.717 132.355C338.484 133.717 339.906 134.354 341.415 135.281C342.924 136.208 349.656 138.961 349.975 139.772C350.294 140.584 349.453 141.656 349.801 142.931C350.12 144.234 350.585 144.959 350.585 144.959C350.585 144.959 350.323 146.465 351.252 147.653C352.181 148.841 352.181 148.841 352.181 148.841C352.181 148.841 351.687 149.826 353.544 151.159C355.401 152.492 359.957 154.404 361.379 154.52C362.772 154.636 363.903 154.462 363.903 154.462L374.379 175.99C374.379 175.99 374.524 176.599 372.173 174.715C369.823 172.832 350.556 151.739 350.556 151.739C350.556 151.739 338.252 139.28 337.353 137.281C336.453 135.281 336.221 134.064 336.163 133.456C336.105 132.847 335.409 126.908 333.726 123.46C332.043 120.012 323.947 113.377 323.947 113.377C323.947 113.377 322.38 112.478 322.032 113.782C321.684 115.086 323.25 117.114 323.889 117.665C324.527 118.215 326.704 120.997 326.82 121.808C326.936 122.619 326.413 123.17 325.427 123.025L326.558 126.009C326.558 126.009 323.454 125.372 320.958 124.358C318.434 123.315 316.577 122.648 316.577 122.648C316.693 122.648 315.097 122.648 314.748 124.155C314.313 126.038 316.054 126.966 316.054 126.966C316.054 126.966 315.184 128.298 315.416 129.399C315.648 130.472 316.083 131.544 316.083 131.544C316.083 131.544 315.387 132.297 315.909 133.224C316.431 134.151 317.302 135.339 317.302 135.339C317.302 135.339 317.273 137.396 318.347 138.121C319.42 138.845 320.871 139.685 320.871 139.685C320.871 139.685 322.119 141.714 323.86 142.554C325.601 143.394 328.183 145.422 328.793 146.031C329.402 146.639 344.375 167.791 344.462 167.877C344.549 167.964 347.625 172.977 347.625 172.977C347.625 172.977 341.676 173.122 335.757 178.888C329.837 184.654 318.55 202.705 318.55 202.705C318.55 202.705 303.693 227.449 303.867 227.536C304.012 227.623 292.434 226.927 286.428 228.55C280.421 230.172 276.939 231.853 270.468 237.474C264.027 243.095 240.871 269.056 240.871 269.056C240.871 269.056 220.008 291.772 216.7 293.626C216.7 293.626 218.151 295.365 218.76 296.9C219.369 298.465 220.762 302.261 223.606 303.68C226.449 305.1 231.208 305.216 231.411 305.274C231.644 305.332 237.534 298.755 244.73 293.249C251.926 287.773 265.39 280.182 265.39 280.182L306.421 260.132C306.421 260.132 308.974 258.77 311.557 258.886C314.139 259.002 345.361 260.856 350.149 260.74C354.937 260.624 355.459 260.74 355.459 260.74C355.459 260.74 354.357 252.048 355.111 246.311C355.866 240.574 356.562 236.518 358.39 232.867C359.406 230.868 360.16 229.39 360.857 228.405L360.828 228.434L331.491 229.013C331.491 229.013 341.705 217.134 344.781 213.396C347.857 209.63 351.049 205.052 351.049 205.052C351.049 205.052 356.823 213.599 360.189 218.032C363.555 222.436 367.531 226.927 367.531 226.927C367.531 226.927 378.383 239.995 378.499 240.082C378.586 240.139 382.619 245.181 382.619 245.181C382.619 245.181 383.983 233.649 385.289 228.144C386.595 222.639 389.99 213.657 391.208 211.049C392.456 208.442 394.255 204.849 394.255 204.849C394.255 204.849 402.293 213.918 403.918 215.279C405.543 216.67 407.864 218.206 412.014 218.727C412.014 218.727 417.614 218.669 420.806 216.381C423.998 214.092 424.665 212.121 424.665 212.121C424.665 212.121 418.688 208.413 415.177 203.023Z" fill="#FFCDB4"/>
<path d="M367.444 226.927H362.888C362.888 226.927 361.988 227.246 361.147 228.318C360.305 229.39 356.591 234.055 355.547 241.472C354.502 248.89 354.502 254.54 355.024 258.104C355.547 261.667 356.562 266.39 358.39 268.303C360.218 270.215 359.174 270.244 361.205 270.331C363.207 270.447 386.653 272.243 396.287 272.04C405.891 271.837 419.152 271.142 419.152 271.142C419.152 271.142 424.491 272.214 429.54 271.461C434.618 270.736 439.696 268.332 442.482 264.478C445.267 260.624 445.935 255.902 445.935 255.902C445.935 255.902 447.879 247.818 447.008 241.762C446.109 235.706 445.819 227.883 445.819 227.883C445.819 227.883 439.899 227.478 435.663 226C431.426 224.522 421.996 221.103 419.326 216.873C419.326 216.873 415.728 219.191 411.056 218.756C406.384 218.322 400.204 211.716 399.246 210.354C398.289 208.992 394.197 204.762 394.197 204.762C394.197 204.762 390.599 211.658 388.249 218.409C385.898 225.16 385.434 227.101 384.448 231.273C383.461 235.446 382.532 245.123 382.532 245.123L367.444 226.927Z" fill="#BFE3FF"/>
<path d="M421.415 215.917C421.502 215.859 423.707 217.626 429.366 218.872C435.024 220.118 446.486 221.567 446.486 221.567L445.789 227.912C445.789 227.912 438.477 227.246 431.194 224.551C423.882 221.857 419.297 216.902 419.297 216.902L421.415 215.917Z" fill="#FFCDB4"/>
<path d="M416.976 205.428C417.092 205.428 422.431 211.049 424.549 212.092L421.415 215.917C421.415 215.917 424.114 217.424 430.498 219.162C436.881 220.9 447.821 222.117 449.678 221.857C451.535 221.596 452.318 221.799 453.015 219.742C453.711 217.684 454.001 212.208 453.508 208.528C453.015 204.878 452.725 204.414 452.957 203.632C453.16 202.849 458.006 186.218 458.006 186.218C458.006 186.218 462.358 174.078 463.171 170.659C463.983 167.24 466.189 159.62 465.173 154.926C464.157 150.261 461.546 142.09 460.559 140.613C459.573 139.106 458.789 138.439 457.716 138.034C456.642 137.657 456.352 137.541 456.352 137.541C456.352 137.541 456.207 135.078 456.178 135.02C456.149 134.963 456.091 133.89 453.363 134.035C450.635 134.151 444.716 134.992 442.192 136.411C439.667 137.831 435.227 140.091 433.66 141.887L432.239 143.278C432.239 143.278 429.105 146.552 427.741 147.769C426.377 148.986 419.21 154.115 417.092 155.708C414.973 157.302 411.985 160.808 410.215 164.516C408.445 168.225 408.735 169.529 408.88 171.615C409.025 173.701 409.344 186.276 409.344 186.276L406.878 190.97C406.878 190.97 407.197 191.607 407.748 191.926C408.329 192.245 408.822 193.201 408.822 193.201L416.976 205.428Z" fill="#72B3E4"/>
<path d="M431.745 94.1087C431.745 94.1087 427.915 96.4556 427.132 99.5269C426.319 102.598 426.986 107.466 426.725 109.262C426.493 111.059 426.348 112.536 423.911 113.869C421.473 115.202 422.286 116.129 423.127 117.143C423.969 118.128 424.636 119.056 424.926 120.388C425.187 121.721 425.855 126.647 427.364 128.704C428.873 130.761 430.875 131.109 432.442 130.848C434.038 130.587 437.607 129.371 437.607 129.371C437.607 129.371 438.419 130.964 438.332 132.442C438.245 133.919 438.39 135.803 436.939 138.15C435.459 140.497 435.459 140.497 435.459 140.497C435.459 140.497 440.45 137.049 443.642 136.122C446.863 135.194 449.591 133.862 452.493 134.093C455.365 134.325 455.771 134.528 455.771 134.528L455.336 131.978C455.336 131.978 452.26 132.789 448.198 132.963C444.136 133.137 444.31 132.818 444.6 132.123C444.89 131.428 446.486 129.081 447.095 127.284C447.705 125.488 447.995 120.591 447.995 120.591C447.995 120.591 451.738 120.128 453.218 117.346C454.698 114.565 454.146 112.884 453.363 111.406C452.58 109.958 450.751 109.523 449.765 110.334C449.765 110.334 447.647 107.582 446.631 107.089C445.615 106.597 443.149 106.452 441.002 103.062C438.854 99.6718 438.042 96.7744 436.098 95.6154C434.096 94.3695 432.935 93.2395 431.745 94.1087Z" fill="#FFCDB4"/>
<path d="M331.375 229.042L335.67 228.463C335.67 228.463 316.315 245.616 312.659 250.338C309.003 255.09 308.074 258.886 308.074 258.886L306.304 260.161C306.304 260.161 305.289 259.176 305.55 258.886C305.811 258.596 309.235 252.83 318.027 242.979C326.849 233.128 331.375 229.042 331.375 229.042Z" fill="black"/>
<path d="M255.641 275.894C255.641 275.894 257.759 280.588 261.85 282.21L264.52 280.675C264.52 280.675 257.933 278.994 255.641 275.894Z" fill="black"/>
<path d="M357.201 235.793C354.676 237.966 353.777 249.151 353.109 254.482C352.442 259.813 352.587 260.624 352.587 260.624L355.343 260.74C355.343 260.74 354.125 251.237 355.14 245.703C356.185 240.168 357.201 235.793 357.201 235.793Z" fill="black"/>
<path d="M393.704 260.161C393.704 260.161 401.713 264.739 404.991 266.68C409.199 269.172 412.565 272.069 412.565 272.069C412.565 272.069 419.761 271.287 419.094 271.171C418.426 271.055 404.817 265.521 400.175 263.116C395.59 260.682 393.704 260.161 393.704 260.161Z" fill="black"/>
<path d="M419.529 217.539C419.529 217.539 423.098 214.584 427.509 214.787C430.991 214.932 434.995 215.801 436.562 213.686C436.562 213.686 430.991 215.511 424.578 212.034C424.578 212.005 422.141 216.699 419.529 217.539Z" fill="black"/>
<path d="M428.031 219.017L445.935 223.421L446.486 221.596C446.486 221.596 426.667 217.366 428.031 219.017Z" fill="black"/>
<path d="M409.344 182.481C409.344 182.481 410.447 181.988 412.971 178.743C415.496 175.498 420.11 168.37 420.11 168.37L409.344 186.334V182.481Z" fill="black"/>
<path d="M444.455 125.43C444.426 125.459 439.58 129.428 438.071 130.616L437.839 129.313C437.839 129.342 444.803 125.024 444.455 125.43Z" fill="black"/>
<path d="M372.26 174.918C374.785 178.743 378.064 187.406 378.064 187.406C378.064 187.406 381.343 191.173 381.517 191.318C381.807 191.521 373.769 175.729 373.711 175.614L372.26 174.918Z" fill="black"/>
<path d="M381.198 244.341C380.095 243.674 382.242 233.591 386.479 222.581C386.479 222.581 382.155 238.575 382.823 244.573L381.198 244.341Z" fill="black"/>
<path d="M382.503 245.181L382.735 249.035C381.749 246.775 370.345 230.578 370.287 230.433L382.503 245.181Z" fill="black"/>
<path d="M444.629 132.674C444.629 132.674 444.339 133.137 444.629 133.282C444.919 133.427 446.776 134.151 450.723 134.064C454.698 133.977 455.771 134.064 455.771 134.064L455.278 131.949C455.307 131.949 447.502 133.108 444.629 132.674Z" fill="black"/>
<path d="M437.258 129.602C437.258 129.602 432.529 131.833 429.424 130.501C427.335 129.602 426.812 127.777 426.812 127.777L425.681 130.24C425.681 130.24 427.102 129.052 428.35 130.674C431.049 134.093 436.127 130.964 438.071 130.674L437.258 129.602Z" fill="black"/>
<path d="M340.458 297.972L341.851 302.261C342.025 302.811 342.518 303.159 343.098 303.159H347.596C348.873 303.159 349.395 304.781 348.379 305.535L344.752 308.171C344.288 308.519 344.085 309.098 344.288 309.649L345.681 313.937C346.087 315.154 344.694 316.139 343.65 315.415L340.023 312.778C339.558 312.431 338.949 312.431 338.485 312.778L334.857 315.415C333.813 316.168 332.449 315.154 332.826 313.937L334.219 309.649C334.393 309.098 334.19 308.519 333.755 308.171L330.128 305.535C329.083 304.781 329.634 303.159 330.911 303.159H335.409C335.989 303.159 336.482 302.782 336.657 302.261L338.049 297.972C338.34 296.784 340.081 296.784 340.458 297.972Z" fill="#FFD953"/>
<path d="M334.016 316.197C333.639 316.197 333.261 316.081 332.913 315.849C332.246 315.357 331.985 314.545 332.246 313.763L333.639 309.504C333.755 309.185 333.639 308.837 333.348 308.635L329.721 305.998C329.054 305.505 328.793 304.694 329.054 303.912C329.315 303.13 330.011 302.637 330.824 302.637H335.322C335.67 302.637 335.96 302.434 336.047 302.115L337.44 297.827C337.701 297.045 338.397 296.552 339.21 296.552C340.022 296.552 340.719 297.045 340.98 297.827L342.373 302.115C342.489 302.434 342.779 302.637 343.098 302.637H347.596C348.408 302.637 349.105 303.13 349.366 303.912C349.627 304.694 349.366 305.505 348.698 305.998L345.071 308.635C344.81 308.837 344.694 309.185 344.781 309.504L346.174 313.792C346.435 314.574 346.174 315.386 345.507 315.878C344.839 316.371 343.998 316.371 343.33 315.878L339.703 313.242C339.442 313.039 339.065 313.039 338.804 313.242L335.177 315.878C334.77 316.081 334.393 316.197 334.016 316.197ZM330.824 303.709C330.418 303.709 330.186 303.999 330.099 304.231C330.011 304.491 330.04 304.839 330.389 305.1L334.016 307.736C334.654 308.2 334.944 309.04 334.683 309.823L333.29 314.111C333.174 314.516 333.348 314.806 333.581 314.98C333.813 315.125 334.161 315.212 334.48 314.98L338.107 312.343C338.746 311.88 339.645 311.88 340.284 312.343L343.911 314.98C344.259 315.212 344.607 315.125 344.81 314.98C345.042 314.806 345.216 314.516 345.1 314.111L343.708 309.823C343.446 309.069 343.737 308.229 344.375 307.736L348.002 305.1C348.35 304.868 348.379 304.491 348.292 304.231C348.205 303.97 347.973 303.709 347.567 303.709H343.069C342.257 303.709 341.56 303.188 341.299 302.434L339.906 298.146C339.79 297.74 339.442 297.624 339.181 297.624C338.92 297.624 338.572 297.769 338.455 298.146L337.063 302.405C336.801 303.159 336.105 303.68 335.293 303.68H330.824V303.709Z" fill="black"/>
<path d="M367.705 297.972L369.098 302.261C369.272 302.811 369.765 303.159 370.345 303.159H374.843C376.12 303.159 376.642 304.781 375.627 305.535L371.999 308.171C371.535 308.519 371.332 309.098 371.535 309.649L372.928 313.937C373.334 315.154 371.941 316.139 370.897 315.415L367.27 312.778C366.805 312.431 366.196 312.431 365.732 312.778L362.105 315.415C361.06 316.168 359.696 315.154 360.073 313.937L361.466 309.649C361.64 309.098 361.437 308.519 361.002 308.171L357.375 305.535C356.33 304.781 356.881 303.159 358.158 303.159H362.656C363.236 303.159 363.729 302.782 363.904 302.261L365.296 297.972C365.587 296.784 367.328 296.784 367.705 297.972Z" fill="#FFD953"/>
<path d="M371.651 316.197C371.274 316.197 370.897 316.081 370.548 315.849L366.921 313.213C366.66 313.01 366.283 313.01 366.022 313.213L362.395 315.849C361.727 316.342 360.886 316.342 360.218 315.849C359.551 315.357 359.29 314.546 359.551 313.763L360.944 309.475C361.06 309.156 360.944 308.809 360.654 308.606L357.027 305.969C356.359 305.477 356.098 304.665 356.359 303.883C356.62 303.101 357.317 302.608 358.129 302.608H362.627C362.975 302.608 363.265 302.405 363.352 302.087L364.745 297.798C365.006 297.016 365.703 296.524 366.515 296.524C367.328 296.524 368.024 297.016 368.285 297.798L369.678 302.087C369.794 302.405 370.084 302.608 370.403 302.608H374.901C375.714 302.608 376.41 303.101 376.671 303.883C376.932 304.665 376.671 305.477 376.004 305.969L372.377 308.606C372.115 308.809 371.999 309.156 372.086 309.475L373.479 313.763C373.74 314.546 373.479 315.357 372.812 315.849C372.406 316.081 372.028 316.197 371.651 316.197ZM366.457 311.967C366.834 311.967 367.211 312.083 367.56 312.315L371.187 314.951C371.535 315.183 371.883 315.096 372.086 314.951C372.319 314.777 372.493 314.488 372.377 314.082L370.984 309.794C370.723 309.04 371.013 308.2 371.651 307.708L375.278 305.071C375.626 304.839 375.655 304.463 375.568 304.202C375.481 303.941 375.249 303.68 374.843 303.68H370.345C369.533 303.68 368.836 303.159 368.575 302.405L367.182 298.146C367.066 297.741 366.718 297.625 366.457 297.625C366.196 297.625 365.848 297.769 365.732 298.146L364.339 302.405C364.078 303.159 363.381 303.68 362.569 303.68H358.071C357.665 303.68 357.433 303.97 357.346 304.202C357.259 304.463 357.288 304.81 357.636 305.071L361.263 307.708C361.901 308.171 362.192 309.012 361.93 309.794L360.538 314.082C360.422 314.488 360.596 314.777 360.828 314.951C361.06 315.096 361.408 315.183 361.727 314.951L365.354 312.315C365.703 312.083 366.08 311.967 366.457 311.967Z" fill="black"/>
<path d="M394.952 297.972L396.344 302.261C396.519 302.811 397.012 303.159 397.592 303.159H402.09C403.367 303.159 403.889 304.781 402.873 305.535L399.246 308.171C398.782 308.519 398.579 309.098 398.782 309.649L400.175 313.937C400.581 315.154 399.188 316.139 398.144 315.415L394.516 312.778C394.052 312.431 393.443 312.431 392.979 312.778L389.351 315.415C388.307 316.168 386.943 315.154 387.32 313.937L388.713 309.649C388.887 309.098 388.684 308.519 388.249 308.171L384.622 305.535C383.577 304.781 384.128 303.159 385.405 303.159H389.903C390.483 303.159 390.976 302.782 391.15 302.261L392.543 297.972C392.833 296.784 394.574 296.784 394.952 297.972Z" fill="#FFD953"/>
<path d="M388.51 316.197C388.133 316.197 387.756 316.081 387.407 315.849C386.74 315.357 386.479 314.546 386.74 313.763L388.133 309.504C388.249 309.185 388.133 308.838 387.843 308.635L384.215 305.998C383.548 305.506 383.287 304.694 383.548 303.912C383.809 303.13 384.506 302.637 385.318 302.637H389.816C390.164 302.637 390.454 302.434 390.541 302.116L391.934 297.827C392.195 297.045 392.892 296.553 393.704 296.553C394.517 296.553 395.213 297.045 395.474 297.827L396.867 302.116C396.983 302.434 397.273 302.637 397.592 302.637H402.09C402.902 302.637 403.599 303.13 403.86 303.912C404.121 304.694 403.86 305.506 403.193 305.998L399.565 308.635C399.304 308.838 399.188 309.185 399.275 309.504L400.668 313.792C400.929 314.575 400.668 315.386 400.001 315.878C399.333 316.371 398.492 316.371 397.824 315.878L394.197 313.242C393.936 313.039 393.559 313.039 393.298 313.242L389.671 315.878C389.264 316.081 388.887 316.197 388.51 316.197ZM385.318 303.709C384.912 303.709 384.68 303.999 384.593 304.231C384.506 304.492 384.535 304.839 384.883 305.1L388.51 307.737C389.148 308.2 389.439 309.041 389.177 309.823L387.785 314.111C387.668 314.517 387.843 314.806 388.075 314.98C388.307 315.125 388.655 315.212 388.974 314.98L392.601 312.344C393.269 311.88 394.139 311.88 394.778 312.344L398.405 314.98C398.753 315.212 399.101 315.125 399.304 314.98C399.536 314.806 399.711 314.517 399.595 314.111L398.202 309.823C397.941 309.069 398.231 308.229 398.869 307.737L402.496 305.1C402.844 304.868 402.873 304.492 402.786 304.231C402.699 303.97 402.467 303.709 402.061 303.709H397.563C396.751 303.709 396.054 303.188 395.793 302.434L394.4 298.146C394.284 297.741 393.936 297.625 393.675 297.625C393.414 297.625 393.066 297.769 392.95 298.146L391.557 302.434C391.296 303.188 390.599 303.709 389.787 303.709H385.318Z" fill="black"/>
<path d="M422.199 297.972L423.592 302.261C423.766 302.811 424.259 303.159 424.839 303.159H429.337C430.614 303.159 431.136 304.781 430.12 305.535L426.493 308.171C426.029 308.519 425.826 309.098 426.029 309.649L427.422 313.937C427.828 315.154 426.435 316.139 425.391 315.415L421.763 312.778C421.299 312.431 420.69 312.431 420.226 312.778L416.598 315.415C415.554 316.168 414.19 315.154 414.567 313.937L415.96 309.649C416.134 309.098 415.931 308.519 415.496 308.171L411.869 305.535C410.824 304.781 411.375 303.159 412.652 303.159H417.15C417.73 303.159 418.223 302.782 418.398 302.261L419.79 297.972C420.08 296.784 421.822 296.784 422.199 297.972Z" fill="#FFD953"/>
<path d="M415.757 316.197C415.38 316.197 415.003 316.081 414.654 315.849C413.987 315.357 413.726 314.546 413.987 313.763L415.38 309.504C415.496 309.185 415.38 308.838 415.09 308.635L411.463 305.998C410.795 305.506 410.534 304.694 410.795 303.912C411.056 303.13 411.753 302.637 412.565 302.637H417.063C417.411 302.637 417.701 302.434 417.788 302.116L419.181 297.827C419.442 297.045 420.139 296.553 420.951 296.553C421.764 296.553 422.46 297.045 422.721 297.827L424.114 302.116C424.23 302.434 424.52 302.637 424.839 302.637H429.337C430.15 302.637 430.846 303.13 431.107 303.912C431.368 304.694 431.107 305.506 430.44 305.998L426.813 308.635C426.551 308.838 426.435 309.185 426.522 309.504L427.915 313.792C428.176 314.575 427.915 315.386 427.248 315.878C426.58 316.371 425.739 316.371 425.072 315.878L421.444 313.242C421.183 313.039 420.806 313.039 420.545 313.242L416.918 315.878C416.512 316.081 416.134 316.197 415.757 316.197ZM412.565 303.709C412.159 303.709 411.927 303.999 411.84 304.231C411.753 304.492 411.782 304.839 412.13 305.1L415.757 307.737C416.395 308.2 416.686 309.041 416.424 309.823L415.032 314.111C414.916 314.517 415.09 314.806 415.322 314.98C415.554 315.125 415.902 315.212 416.221 314.98L419.848 312.344C420.487 311.88 421.386 311.88 422.025 312.344L425.652 314.98C426 315.212 426.348 315.125 426.551 314.98C426.784 314.806 426.958 314.517 426.842 314.111L425.449 309.823C425.188 309.069 425.478 308.229 426.116 307.737L429.743 305.1C430.092 304.868 430.121 304.492 430.033 304.231C429.946 303.97 429.714 303.709 429.308 303.709H424.81C423.998 303.709 423.302 303.188 423.04 302.434L421.648 298.146C421.531 297.741 421.183 297.625 420.922 297.625C420.661 297.625 420.313 297.769 420.197 298.146L418.804 302.405C418.543 303.159 417.846 303.68 417.034 303.68H412.565V303.709Z" fill="black"/>
<path d="M449.446 297.972L450.839 302.261C451.013 302.811 451.506 303.159 452.086 303.159H456.584C457.861 303.159 458.383 304.781 457.367 305.535L453.74 308.171C453.276 308.519 453.073 309.098 453.276 309.649L454.669 313.937C455.075 315.154 453.682 316.139 452.638 315.415L449.011 312.778C448.546 312.431 447.937 312.431 447.473 312.778L443.845 315.415C442.801 316.168 441.437 315.154 441.814 313.937L443.207 309.649C443.381 309.098 443.178 308.519 442.743 308.171L439.116 305.535C438.071 304.781 438.622 303.159 439.899 303.159H444.397C444.977 303.159 445.47 302.782 445.645 302.261L447.037 297.972C447.328 296.784 449.069 296.784 449.446 297.972Z" fill="#FFD953"/>
<path d="M453.392 316.197C453.015 316.197 452.638 316.081 452.289 315.849L448.662 313.213C448.401 313.01 448.024 313.01 447.763 313.213L444.136 315.849C443.468 316.342 442.627 316.342 441.959 315.849C441.292 315.357 441.031 314.546 441.292 313.763L442.685 309.475C442.801 309.156 442.685 308.809 442.395 308.606L438.767 305.969C438.1 305.477 437.839 304.665 438.1 303.883C438.361 303.101 439.058 302.608 439.87 302.608H444.368C444.716 302.608 445.006 302.405 445.093 302.087L446.486 297.798C446.747 297.016 447.444 296.524 448.256 296.524C449.069 296.524 449.765 297.016 450.026 297.798L451.419 302.087C451.535 302.405 451.825 302.608 452.144 302.608H456.642C457.454 302.608 458.151 303.101 458.412 303.883C458.673 304.665 458.412 305.477 457.745 305.969L454.117 308.606C453.856 308.809 453.74 309.156 453.827 309.475L455.22 313.763C455.481 314.546 455.22 315.357 454.553 315.849C454.147 316.081 453.769 316.197 453.392 316.197ZM448.198 311.967C448.575 311.967 448.952 312.083 449.301 312.315L452.928 314.951C453.276 315.183 453.624 315.096 453.827 314.951C454.059 314.777 454.234 314.488 454.117 314.082L452.725 309.794C452.464 309.04 452.754 308.2 453.392 307.708L457.019 305.071C457.367 304.839 457.396 304.463 457.309 304.202C457.222 303.941 456.99 303.68 456.584 303.68H452.086C451.274 303.68 450.577 303.159 450.316 302.405L448.923 298.146C448.807 297.741 448.459 297.625 448.198 297.625C447.937 297.625 447.589 297.769 447.473 298.146L446.08 302.434C445.819 303.188 445.122 303.709 444.31 303.709H439.812C439.406 303.709 439.174 303.999 439.087 304.231C439 304.492 439.029 304.839 439.377 305.1L443.004 307.737C443.642 308.2 443.932 309.041 443.671 309.823L442.279 314.111C442.162 314.517 442.337 314.806 442.569 314.98C442.801 315.125 443.149 315.212 443.468 314.98L447.095 312.344C447.444 312.083 447.821 311.967 448.198 311.967Z" fill="black"/>
<path d="M284.426 353.024C300.131 353.024 312.862 340.311 312.862 324.629C312.862 308.947 300.131 296.234 284.426 296.234C268.72 296.234 255.989 308.947 255.989 324.629C255.989 340.311 268.72 353.024 284.426 353.024Z" fill="white"/>
<path d="M284.426 353.574C268.437 353.574 255.438 340.594 255.438 324.629C255.438 308.664 268.437 295.683 284.426 295.683C300.414 295.683 313.414 308.664 313.414 324.629C313.414 340.565 300.385 353.574 284.426 353.574ZM284.426 296.755C269.047 296.755 256.511 309.243 256.511 324.629C256.511 339.985 269.018 352.502 284.426 352.502C299.805 352.502 312.34 340.014 312.34 324.629C312.311 309.243 299.805 296.755 284.426 296.755Z" fill="black"/>
<path d="M284.106 323.615C288.401 323.615 291.883 320.138 291.883 315.849C291.883 311.561 288.401 308.084 284.106 308.084C279.811 308.084 276.33 311.561 276.33 315.849C276.33 320.138 279.811 323.615 284.106 323.615Z" fill="white"/>
<path d="M284.106 324.136C279.522 324.136 275.807 320.427 275.807 315.849C275.807 311.272 279.522 307.563 284.106 307.563C288.691 307.563 292.405 311.272 292.405 315.849C292.434 320.398 288.691 324.136 284.106 324.136ZM284.106 308.635C280.131 308.635 276.881 311.88 276.881 315.849C276.881 319.819 280.131 323.064 284.106 323.064C288.082 323.064 291.332 319.819 291.332 315.849C291.332 311.88 288.082 308.635 284.106 308.635Z" fill="black"/>
<path d="M284.106 326.251C276.069 326.251 269.569 332.741 269.569 340.767H298.615C298.644 332.741 292.144 326.251 284.106 326.251Z" fill="white"/>
<path d="M299.195 340.767H298.122C298.122 333.06 291.854 326.802 284.135 326.802C276.417 326.802 270.149 333.06 270.149 340.767H269.075C269.075 332.481 275.836 325.73 284.135 325.73C292.434 325.73 299.195 332.452 299.195 340.767Z" fill="black"/>
<path d="M430.411 334.016H330.998V335.088H430.411V334.016Z" fill="black"/>
<path d="M392.892 349.141H330.998V350.213H392.892V349.141Z" fill="black"/>
<path d="M352.645 201.285C346.667 210.644 339.5 219.22 332.014 227.391C328.125 231.65 324.15 235.793 320.117 239.908C318.492 241.588 316.78 243.182 315.213 244.92C313.936 246.34 312.746 247.818 311.557 249.353C310.135 251.179 308.771 253.004 307.465 254.916C306.45 256.365 305.463 257.843 304.651 259.436C304.331 260.045 305.26 260.595 305.579 259.987C307.204 256.858 309.409 253.96 311.557 251.15C312.775 249.556 314.023 247.992 315.329 246.456C316.751 244.833 318.289 243.327 319.797 241.791C327.777 233.678 335.67 225.421 342.837 216.554C346.667 211.832 350.294 206.964 353.573 201.835C353.98 201.227 353.022 200.705 352.645 201.285Z" fill="black"/>
<path d="M407.632 191.318C401.538 183.234 395.445 175.121 389.351 167.037C387.61 164.748 385.898 162.459 384.157 160.17C383.751 159.62 382.793 160.17 383.229 160.721C389.322 168.805 395.416 176.917 401.509 185.001C403.25 187.29 404.962 189.579 406.704 191.868C407.11 192.419 408.067 191.868 407.632 191.318Z" fill="black"/>
<path d="M430.062 153.796C423.359 161.938 417.556 170.688 412.391 179.873C411.462 181.495 410.563 183.147 409.663 184.798C409.228 185.61 408.793 186.421 408.358 187.232C407.893 188.131 407.458 189.058 406.965 189.927C406.559 190.593 406.326 191.26 406.907 191.926C407.226 192.303 407.632 192.419 408.009 192.651C407.864 192.564 408.126 192.766 408.184 192.853C408.677 193.433 409.286 194.563 409.75 195.374C410.563 196.765 411.375 198.156 412.217 199.517C416.453 206.326 422.489 214.005 431.136 214.729C432.297 214.816 433.428 214.787 434.56 214.613C435.315 214.497 435.982 214.352 436.591 213.889C438.042 212.817 438.942 211.02 439.696 209.427C442.221 204.124 443.759 198.358 445.442 192.766C446.399 189.579 447.357 186.392 448.372 183.234C449.562 179.641 450.694 176.019 451.651 172.368C452.783 167.935 453.769 163.444 454.379 158.895C454.408 158.635 454.437 158.403 454.466 158.142C454.553 157.447 453.45 157.447 453.392 158.142C453.044 161.126 452.406 164.372 451.738 167.414C451.013 170.688 450.171 173.933 449.214 177.149C448.227 180.481 447.066 183.755 446.051 187.058C444.223 192.969 442.627 198.967 440.48 204.791C439.696 206.935 438.855 209.108 437.636 211.049C437.23 211.716 436.765 212.382 436.156 212.904C435.605 213.396 435.024 213.512 434.299 213.599C425.594 214.816 418.92 207.63 414.538 201.082C412.826 198.532 411.404 195.838 409.779 193.259C409.373 192.593 408.996 191.955 408.3 191.607C407.922 191.405 407.574 191.202 407.748 190.767C407.835 190.506 407.719 190.825 407.864 190.593C408.126 190.13 408.358 189.637 408.619 189.174C409.518 187.464 410.418 185.755 411.346 184.074C416.511 174.628 422.17 165.444 428.902 157.012C429.54 156.201 430.208 155.389 430.875 154.578C431.252 154.028 430.498 153.245 430.062 153.796Z" fill="black"/>
<path d="M434.589 148.494C437.636 146.378 441.524 145.335 445.209 146.118C448.633 146.842 451.477 149.16 452.841 152.376C453.595 154.144 453.827 156.114 453.392 157.997C453.247 158.664 454.292 158.953 454.437 158.287C455.278 154.636 453.914 150.812 451.332 148.204C448.488 145.364 444.397 144.35 440.479 144.959C438.187 145.306 435.953 146.234 434.038 147.566C433.486 147.972 434.009 148.899 434.589 148.494Z" fill="black"/>
<path d="M231.498 305.911C238.259 298.726 245.891 292.554 254.277 287.368C261.27 283.022 268.611 279.226 275.401 274.561C279.667 271.635 283.729 268.361 287.472 264.797C287.966 264.304 287.211 263.551 286.718 264.043C280.276 270.186 272.993 275.141 265.332 279.632C257.991 283.949 250.563 288.092 243.802 293.278C239.13 296.871 234.777 300.87 230.715 305.187C230.251 305.651 231.005 306.404 231.498 305.911Z" fill="black"/>
<path d="M303.722 228.115C303.983 228.086 304.186 227.999 304.302 227.709C304.36 227.536 304.302 227.304 304.157 227.188C303.954 226.985 303.606 226.985 303.345 226.985C302.88 226.956 302.387 226.927 301.923 226.927C300.298 226.869 298.673 226.869 297.048 226.898C292.927 226.956 288.662 227.188 284.658 228.231C282.655 228.753 280.885 229.68 279.115 230.723C276.533 232.258 274.066 233.968 271.687 235.793C269.395 237.59 267.16 239.473 265.158 241.588C263.939 242.834 262.837 244.196 261.676 245.5C256.366 251.497 250.969 257.379 245.543 263.232C239.623 269.606 233.675 275.923 227.639 282.181C225.347 284.557 223.025 286.933 220.675 289.251C219.282 290.613 217.918 292.033 216.38 293.22C216.438 293.192 216.264 293.307 216.177 293.365C216.119 293.423 216.032 293.452 215.945 293.51C215.336 293.858 215.887 294.785 216.496 294.437C217.773 293.713 218.847 292.496 219.891 291.482C222.01 289.454 224.099 287.339 226.159 285.224C231.992 279.255 237.708 273.199 243.395 267.115C249.054 261.059 254.683 254.945 260.196 248.774C262.663 246.021 265.013 243.095 267.741 240.574C271.977 236.605 276.794 233.041 281.959 230.375C285.354 228.608 289.532 228.347 293.305 228.115C296.555 227.912 299.834 227.854 303.083 228.057C303.258 228.057 303.403 228.086 303.577 228.086C303.838 228.115 303.577 228.115 303.432 227.97C303.374 227.796 303.345 227.623 303.287 227.449C303.374 227.333 303.461 227.246 303.548 227.13C303.606 227.101 303.751 227.072 303.78 227.072C303.054 227.101 303.025 228.173 303.722 228.115Z" fill="black"/>
<path d="M401.19 264.101C403.918 265.898 406.936 267.288 409.925 268.505C413.523 270.012 417.295 271.287 421.154 271.953C427.538 273.025 434.966 271.953 440.073 267.781C443.062 265.347 444.948 261.986 445.964 258.335C447.618 252.454 448.43 246.195 447.27 240.139C447.212 239.792 447.27 240.284 447.241 239.937C447.183 239.502 447.125 239.067 447.096 238.633C446.892 236.952 446.718 235.272 446.573 233.591C446.283 230.056 446.022 226.319 446.718 222.813C446.747 222.639 446.776 222.494 446.834 222.32C446.863 222.233 446.95 222.002 446.892 222.146C447.212 221.538 446.283 220.987 445.964 221.596C445.616 222.291 445.558 223.218 445.471 223.972C445.267 225.884 445.209 227.825 445.267 229.767C445.383 233.041 445.703 236.315 446.109 239.56C446.312 241.154 446.573 242.747 446.631 244.37C446.863 248.687 446.37 252.975 445.18 257.118C444.31 260.161 443.207 263.029 441.031 265.405C436.794 270.041 430.033 271.606 423.969 271.229C420.226 270.997 416.54 269.867 413.058 268.592C409.692 267.375 406.414 265.927 403.309 264.13C402.757 263.812 402.235 263.493 401.713 263.145C401.161 262.797 400.61 263.725 401.19 264.101Z" fill="black"/>
<path d="M350.41 204.965C351.223 206.906 352.529 208.644 353.747 210.325C355.75 213.106 357.839 215.83 359.986 218.525C365.035 224.957 370.258 231.244 375.51 237.503C377.774 240.197 380.066 242.892 382.358 245.558C382.823 246.079 383.577 245.326 383.113 244.804C378.557 239.531 374.059 234.171 369.649 228.811C364.774 222.9 359.928 216.96 355.401 210.788C354.531 209.572 353.66 208.384 352.848 207.109C352.558 206.645 352.268 206.182 352.006 205.718C351.89 205.515 351.803 205.341 351.687 205.138C351.629 205.023 351.484 204.675 351.455 204.675C351.194 204.037 350.149 204.298 350.41 204.965Z" fill="black"/>
<path d="M331.114 229.709C334.48 229.622 337.846 229.564 341.212 229.477C346.58 229.361 351.948 229.216 357.317 229.1C358.564 229.071 359.783 229.042 361.031 229.013C361.727 228.984 361.727 227.912 361.031 227.941C357.665 228.028 354.299 228.086 350.933 228.173C345.565 228.289 340.196 228.434 334.828 228.55C333.581 228.579 332.362 228.608 331.114 228.637C330.418 228.637 330.418 229.738 331.114 229.709Z" fill="black"/>
<path d="M354.85 260.103C348.118 260.537 341.299 260.074 334.596 259.726C327.835 259.378 321.103 258.886 314.342 258.509C313.356 258.451 312.398 258.393 311.412 258.364C310.599 258.335 309.816 258.335 309.003 258.509C307.784 258.77 306.624 259.349 305.55 259.987C304.941 260.335 305.492 261.291 306.101 260.914C307.784 259.929 309.351 259.378 311.295 259.436C312.137 259.465 313.007 259.494 313.849 259.552C316.664 259.697 319.478 259.9 322.322 260.074C329.808 260.537 337.295 261.001 344.781 261.204C348.147 261.291 351.513 261.378 354.879 261.175C355.547 261.146 355.547 260.074 354.85 260.103Z" fill="black"/>
<path d="M374.321 176.541C374.292 176.193 374.233 175.845 374.175 175.469C373.421 175.585 372.957 174.918 372.492 174.397C372.057 173.933 371.622 173.469 371.187 173.006C369.562 171.267 367.908 169.529 366.283 167.79C361.466 162.662 356.649 157.534 351.861 152.434C347.944 148.262 344.056 144.118 340.138 139.946C339.703 139.483 339.297 139.048 338.862 138.584C338.513 138.208 338.368 137.889 338.078 137.454C337.846 137.136 337.498 136.73 337.353 136.527C337.121 136.151 337.005 135.658 336.918 135.165C336.366 132.355 336.25 129.486 335.496 126.705C335.06 125.111 334.422 123.547 333.523 122.185C333.029 121.432 332.42 120.794 331.781 120.157C329.692 117.984 327.603 115.782 325.311 113.782C324.498 113.058 323.367 112.276 322.206 112.768C321.277 113.145 321.161 114.188 321.48 115.028C321.887 116.1 322.67 117.027 323.367 117.926C324.121 118.94 325.079 119.896 325.717 120.968C326.007 121.489 326.442 122.533 325.456 122.619C324.759 122.677 324.759 123.749 325.456 123.692C326.384 123.605 327.11 122.996 327.168 122.04C327.226 121.229 326.674 120.388 326.21 119.78C325.398 118.708 324.498 117.694 323.715 116.593C323.308 116.042 322.119 114.709 322.409 113.985C322.931 112.739 325.311 115.26 325.688 115.608C326.733 116.593 327.777 117.607 328.793 118.621C330.65 120.446 332.536 122.272 333.61 124.706C334.915 127.632 335.118 130.877 335.583 134.006C335.757 135.252 335.902 136.527 336.714 137.512C337.15 138.034 337.411 138.642 337.846 139.135C338.165 139.483 338.513 139.83 338.833 140.178C342.547 144.147 346.261 148.088 349.975 152.057C354.85 157.244 359.696 162.43 364.571 167.588C367.066 170.224 369.533 172.861 372.028 175.527C372.754 176.309 373.334 176.715 374.437 176.512C375.046 176.396 374.901 175.44 374.292 175.44C373.624 175.469 373.624 176.541 374.321 176.541Z" fill="black"/>
<path d="M317.186 122.185C315.822 121.75 314.371 122.706 314.081 124.068C313.791 125.459 314.574 126.821 315.851 127.429C316.112 127.545 316.431 127.516 316.606 127.226C316.751 126.995 316.664 126.618 316.402 126.473C315.967 126.27 315.648 126.01 315.387 125.633C315.155 125.256 315.039 124.822 315.126 124.416C315.184 123.981 315.416 123.605 315.735 123.402C316.112 123.17 316.489 123.112 316.896 123.228C317.186 123.315 317.476 123.112 317.563 122.851C317.65 122.562 317.476 122.272 317.186 122.185Z" fill="black"/>
<path d="M327.69 131.515C327.98 134.267 329.054 136.846 330.824 139.019C330.998 139.251 331.404 139.222 331.578 139.019C331.81 138.787 331.752 138.468 331.578 138.266C330.04 136.353 329.025 133.977 328.764 131.544C328.735 131.254 328.532 130.993 328.212 130.993C327.98 130.993 327.661 131.225 327.69 131.515Z" fill="black"/>
<path d="M320.146 139.627C320.9 141.25 322.583 142.38 324.034 143.365C325.63 144.466 327.487 145.422 328.793 146.871C329.982 148.175 330.998 149.739 332.072 151.217C335.844 156.433 339.558 161.706 343.156 167.066C344.346 168.863 345.768 170.659 346.667 172.629C346.957 173.267 347.886 172.716 347.596 172.079C346.841 170.427 345.681 168.892 344.665 167.385C342.895 164.748 341.096 162.112 339.268 159.533C336.221 155.158 333.232 150.696 329.895 146.552C328.851 145.248 327.342 144.321 325.949 143.423C324.237 142.293 321.945 141.076 321.045 139.135C320.784 138.468 319.827 139.019 320.146 139.627Z" fill="black"/>
<path d="M367.008 152.202C365.934 153.101 364.513 153.941 363.12 154.086C361.06 154.288 358.912 153.419 357.084 152.521C356.214 152.086 355.343 151.71 354.473 151.304C353.66 150.927 352.964 150.377 352.587 149.566C352.413 149.189 352.383 148.841 352.325 148.465C352.296 148.175 352.18 148.088 351.977 147.885C351.629 147.566 351.397 147.19 351.252 146.726C351.078 146.147 351.107 145.596 351.078 145.017C351.049 144.698 350.904 144.553 350.7 144.292C350.41 143.829 350.265 143.307 350.236 142.757C350.178 141.916 350.381 141.076 350.439 140.236C350.497 139.772 350.497 139.251 350.12 138.874C349.511 138.324 348.524 138.034 347.799 137.715C346.464 137.136 345.129 136.556 343.823 135.919C342.576 135.339 341.328 134.731 340.167 133.948C339.848 133.717 339.442 133.456 339.21 133.137C339.094 132.992 339.123 132.992 339.123 132.876C339.123 132.529 339.152 132.152 339.471 131.949C339.964 131.631 340.545 132.036 341.038 132.181C342.373 132.616 343.707 133.05 345.071 133.485C347.77 134.354 350.439 135.165 353.167 135.977C354.531 136.382 355.866 136.788 357.229 137.165C358.39 137.512 359.667 137.744 360.798 138.179C361.611 138.468 362.423 138.99 363.178 139.396C366.457 141.221 369.504 143.394 371.912 146.292C375.742 150.898 379.398 155.621 383.055 160.344C383.142 160.46 383.229 160.576 383.316 160.692C383.751 161.242 384.505 160.46 384.07 159.938C381.604 156.751 379.108 153.564 376.584 150.377C374.959 148.32 373.363 146.205 371.593 144.292C369.475 142.003 366.805 140.207 364.106 138.671C363.294 138.208 362.481 137.773 361.64 137.367C360.479 136.817 359.115 136.585 357.897 136.237C353.544 134.992 349.192 133.659 344.868 132.268C343.765 131.92 342.692 131.573 341.589 131.196C341.038 131.022 340.428 130.674 339.848 130.732C338.716 130.79 338.049 131.746 338.078 132.847C338.107 133.572 338.629 134.064 339.181 134.499C339.993 135.107 340.893 135.6 341.792 136.064C343.823 137.107 345.971 137.976 348.031 138.932C348.379 139.077 348.698 139.251 349.047 139.425C349.163 139.483 349.25 139.541 349.337 139.598C349.511 139.685 349.395 139.685 349.395 139.627C349.482 140.091 349.337 140.613 349.279 141.047C349.192 141.772 349.134 142.496 349.221 143.191C349.337 143.974 349.656 144.669 350.178 145.277C350.12 145.162 350.062 145.017 350.033 144.901C349.888 146.35 350.352 147.943 351.571 148.812C351.484 148.667 351.397 148.494 351.31 148.349C351.281 149.044 351.542 149.797 351.919 150.377C352.761 151.739 354.154 152.202 355.517 152.84C358.245 154.173 361.553 155.882 364.658 154.752C365.818 154.346 366.892 153.68 367.85 152.898C368.314 152.521 367.53 151.768 367.008 152.202Z" fill="black"/>
<path d="M363.41 155.042C365.441 159.156 367.472 163.271 369.504 167.385C372.725 173.904 375.945 180.423 379.166 186.943C379.921 188.449 380.646 189.956 381.401 191.463C381.72 192.1 382.648 191.55 382.329 190.912C380.298 186.798 378.267 182.683 376.236 178.569C373.015 172.05 369.794 165.531 366.573 159.011C365.818 157.505 365.093 155.998 364.339 154.491C364.019 153.854 363.091 154.404 363.41 155.042Z" fill="black"/>
<path d="M452.318 204.095C452.638 205.834 452.87 207.601 453.044 209.34C453.334 212.295 453.566 215.453 452.87 218.38C452.638 219.336 452.26 220.495 451.361 221.045C450.926 221.306 450.49 221.335 449.997 221.306C449.272 221.277 448.517 221.219 447.792 221.161C443.584 220.814 439.377 220.292 435.198 219.539C432.79 219.104 430.381 218.612 428.031 217.974C426.174 217.453 424.259 216.873 422.605 215.888C421.995 215.54 421.444 216.467 422.054 216.815C423.591 217.713 425.303 218.293 426.986 218.785C429.134 219.423 431.31 219.886 433.486 220.321C437.926 221.161 442.394 221.77 446.892 222.175C447.734 222.262 448.604 222.32 449.446 222.378C450.055 222.407 450.693 222.465 451.274 222.291C452.376 221.944 453.073 220.958 453.508 219.915C454.669 217.105 454.466 213.686 454.233 210.702C454.059 208.413 453.798 206.095 453.363 203.835C453.218 203.11 452.173 203.4 452.318 204.095Z" fill="black"/>
<path d="M409.837 186.682C410.07 185.465 409.983 184.161 409.954 182.944C409.925 181.032 409.837 179.119 409.75 177.207C409.663 175.527 409.576 173.875 409.489 172.195C409.402 170.862 409.373 169.558 409.605 168.225C410.679 162.488 415.09 157.736 419.645 154.404C421.938 152.695 424.317 151.13 426.58 149.392C427.654 148.552 428.699 147.711 429.656 146.755C430.266 146.147 430.788 145.451 431.368 144.785C431.978 144.089 432.761 143.51 433.515 142.988C435.402 141.656 437.491 140.642 439.638 139.83C442.714 138.7 446.022 137.947 449.272 137.599C451.622 137.367 454.089 137.28 456.381 137.918C457.774 138.295 458.934 138.961 459.718 140.236C460.704 141.858 461.401 143.684 462.039 145.451C462.823 147.653 463.519 149.884 464.041 152.144C464.448 153.912 464.883 155.766 464.796 157.592C464.709 159.156 464.419 160.721 464.216 162.256C463.954 164.053 463.664 165.878 463.287 167.646C462.562 171.123 461.459 174.542 460.298 177.903C459.109 181.293 457.89 184.625 456.845 188.044C455.772 191.52 454.843 195.055 453.856 198.561C453.363 200.3 452.87 202.009 452.319 203.748C452.115 204.414 453.16 204.704 453.363 204.037C455.626 196.852 457.338 189.55 459.834 182.423C461.024 179.033 462.271 175.643 463.258 172.195C464.274 168.631 464.912 165.009 465.405 161.358C465.579 159.996 465.869 158.577 465.869 157.186C465.869 156.288 465.753 155.418 465.608 154.52C465.231 152.26 464.651 150.029 463.954 147.856C463.287 145.712 462.533 143.597 461.604 141.569C460.995 140.207 460.298 138.816 459.05 137.947C457.513 136.875 455.539 136.527 453.711 136.411C450.781 136.208 447.821 136.614 444.977 137.194C440.189 138.179 435.314 139.917 431.513 143.133C430.672 143.829 430.12 144.669 429.366 145.451C427.422 147.537 425.042 149.189 422.721 150.84C420.458 152.434 418.136 153.97 416.105 155.824C413.929 157.794 411.956 160.17 410.505 162.749C409.112 165.212 408.184 168.022 408.3 170.891C408.329 171.905 408.416 172.89 408.474 173.904C408.677 177.613 408.938 181.322 408.851 185.03C408.851 185.465 408.822 186.073 408.764 186.363C408.648 187.087 409.692 187.377 409.837 186.682Z" fill="black"/>
<path d="M433.312 143.075C435.169 140.757 438.071 139.222 440.712 137.947C443.584 136.556 446.631 135.339 449.794 134.847C451.042 134.644 452.289 134.557 453.537 134.644C454.089 134.702 454.843 134.731 455.336 135.021C455.888 135.339 455.772 135.948 455.684 136.498C455.539 137.165 456.584 137.483 456.729 136.788C456.903 135.977 456.961 135.049 456.323 134.412C455.568 133.688 454.263 133.63 453.305 133.572C451.216 133.456 449.04 133.804 447.008 134.354C443.41 135.368 439.87 136.933 436.707 138.903C435.198 139.83 433.661 140.902 432.529 142.322C432.123 142.844 432.906 143.626 433.312 143.075Z" fill="black"/>
<path d="M454.93 131.891C454.959 132.355 454.93 132.847 454.959 133.311C454.988 133.804 455.133 134.296 455.278 134.789C455.365 135.049 455.655 135.252 455.946 135.165C456.236 135.078 456.41 134.789 456.323 134.499C456.236 134.209 456.149 133.948 456.091 133.659C456.091 133.601 456.062 133.572 456.062 133.514C456.062 133.485 456.033 133.34 456.062 133.456C456.091 133.572 456.062 133.427 456.062 133.398C456.062 133.369 456.062 133.311 456.062 133.282C456.033 132.818 456.062 132.355 456.033 131.891C456.033 131.602 455.8 131.341 455.481 131.341C455.191 131.37 454.93 131.573 454.93 131.891Z" fill="black"/>
<path d="M435.605 141.279C435.837 140.7 436.301 140.149 436.649 139.598C437.201 138.758 437.665 137.889 438.042 136.962C438.535 135.716 438.768 134.383 438.855 133.05C438.942 131.775 438.739 130.674 438.39 129.457C438.187 128.791 437.143 129.081 437.346 129.747C437.52 130.298 437.694 130.877 437.781 131.457C437.868 132.007 437.81 132.616 437.781 133.166C437.694 134.47 437.433 135.745 436.91 136.933C436.301 138.382 435.169 139.57 434.589 141.018C434.299 141.627 435.343 141.916 435.605 141.279Z" fill="black"/>
<path d="M408.677 168.022C404.15 170.746 398.811 172.166 393.675 173.354C393.007 173.498 393.269 174.542 393.965 174.397C399.159 173.209 404.585 171.731 409.199 168.978C409.808 168.602 409.286 167.675 408.677 168.022Z" fill="black"/>
<path d="M393.675 204.53C389.584 212.411 386.247 220.582 384.331 229.274C383.287 234.026 382.387 238.923 382.184 243.79C382.097 246.34 382.271 248.977 382.997 251.439C383.664 253.699 385.202 255.235 387.059 256.655C391.325 259.929 396.751 261.059 401.161 264.101C401.742 264.507 402.293 263.551 401.713 263.174C397.94 260.566 393.443 259.407 389.554 257.061C387.668 255.931 385.434 254.366 384.477 252.309C383.432 250.078 383.258 247.354 383.258 244.949C383.258 240.111 384.186 235.243 385.173 230.52C386.014 226.493 387.088 222.523 388.51 218.669C390.193 214.005 392.34 209.485 394.603 205.081C394.952 204.472 394.023 203.922 393.675 204.53Z" fill="black"/>
<path d="M366.921 226.406C365.731 226.406 364.571 226.406 363.381 226.406C362.801 226.406 362.249 226.435 361.727 226.811C361.263 227.159 360.944 227.681 360.595 228.144C360.189 228.695 359.783 229.245 359.435 229.796C356.852 233.736 355.43 238.285 354.792 242.921C354.125 247.905 354.212 253.004 354.473 258.017C354.618 260.566 355.169 263.087 356.185 265.463C356.736 266.709 357.374 267.897 358.187 269.027C358.883 269.983 359.551 270.852 360.799 270.939C365.615 271.258 370.432 271.548 375.249 271.866C383.635 272.446 392.05 272.736 400.465 272.591C406.733 272.504 413 272.272 419.239 271.722C419.326 271.722 419.413 271.693 419.5 271.693C420.196 271.635 420.196 270.534 419.5 270.621C414.654 271.084 409.779 271.287 404.904 271.432C395.735 271.693 386.566 271.577 377.425 270.939C372.434 270.592 367.472 270.273 362.481 269.925C361.814 269.867 360.653 269.983 360.131 269.664C359.609 269.346 359.232 268.708 358.912 268.216C358.535 267.694 358.216 267.144 357.897 266.564C357.258 265.405 356.765 264.188 356.388 262.942C355.633 260.451 355.517 257.901 355.43 255.293C355.343 252.83 355.314 250.367 355.43 247.905C355.633 243.269 356.33 238.604 358.187 234.345C359.145 232.143 360.392 230.056 361.901 228.202C362.423 227.565 362.772 227.507 363.497 227.507C364.223 227.507 364.948 227.507 365.644 227.507C366.051 227.507 366.457 227.507 366.892 227.507C367.618 227.478 367.618 226.406 366.921 226.406Z" fill="black"/>
<path d="M283.555 255.264C283.555 255.264 276.707 259.697 275.082 260.856C273.428 261.986 267.276 264.362 265.361 265.231C263.475 266.101 259.268 265.55 257.788 267.723C256.308 269.896 254.683 271.258 255.408 274.503C256.134 277.748 260.719 279.863 265.913 280.733C271.107 281.602 280.74 280.472 283.758 279.632C286.805 278.791 293.682 276.995 296.555 276.966C299.427 276.937 303.519 275.894 304.476 273.286C305.463 270.707 305.782 266.216 305.811 264.391C305.811 262.537 306.769 259.697 305.144 259.697C303.519 259.697 301.691 261.87 298.47 261.436C295.249 261.03 292.811 259.089 290.635 256.887C288.43 254.685 285.238 254.221 283.555 255.264Z" fill="white"/>
<path d="M272.964 262.682C275.662 261.146 278.535 259.726 281.03 257.843C281.64 257.379 282.162 256.829 282.742 256.365C283.584 255.699 284.629 255.235 285.673 255.09C288.43 254.714 290.142 257.379 291.912 259.031C293.682 260.682 296.003 261.378 298.354 261.667C299.659 261.841 300.878 261.783 302.126 261.32C303.112 260.972 304.012 260.45 304.97 260.074C305.057 260.045 305.608 259.958 305.376 259.871C305.376 259.871 305.405 260.074 305.405 260.219C305.434 260.827 305.434 261.436 305.405 262.073C305.26 265.492 304.999 269.027 304.244 272.359C303.519 275.633 299.485 276.155 296.7 276.473C293.769 276.821 290.896 277.227 288.024 277.864C285.992 278.328 283.961 278.907 281.901 279.342C278.1 280.182 274.037 280.327 270.149 280.298C266.116 280.269 262.053 279.834 258.542 277.661C256.83 276.589 255.64 275.025 255.728 272.938C255.844 270.707 257.004 268.592 258.977 267.52C260.689 266.593 262.663 266.332 264.52 265.956C266.464 265.55 268.176 264.768 270.004 264.014C271.049 263.58 272.035 263.203 272.964 262.682C273.573 262.334 273.022 261.407 272.412 261.754C271.339 262.334 270.178 262.768 269.075 263.232C268.147 263.609 267.247 264.072 266.319 264.391C264.375 264.999 262.343 265.144 260.399 265.753C258.397 266.39 256.598 267.52 255.64 269.433C254.596 271.461 254.248 274.039 255.437 276.068C256.453 277.806 258.339 278.878 260.138 279.632C261.995 280.414 263.823 280.906 265.825 281.109C270.41 281.631 275.198 281.37 279.754 280.762C281.553 280.53 283.265 280.124 285.006 279.66C287.617 278.994 290.258 278.415 292.927 277.98C295.771 277.545 298.76 277.516 301.487 276.502C302.822 276.01 304.099 275.285 304.795 274.01C305.376 272.938 305.521 271.635 305.695 270.447C305.985 268.447 306.188 266.448 306.362 264.449C306.478 262.971 306.682 261.407 306.507 259.929C306.275 257.988 304.244 259.205 303.199 259.697C302.039 260.248 300.791 260.74 299.485 260.682C298.063 260.624 296.584 260.335 295.249 259.813C292.753 258.857 291.448 256.597 289.387 255.061C287.269 253.497 284.658 253.757 282.539 255.206C281.901 255.641 281.408 256.162 280.827 256.655C279.638 257.64 278.274 258.393 276.968 259.176C275.488 260.074 273.95 260.885 272.441 261.754C271.803 262.102 272.354 263.029 272.964 262.682Z" fill="black"/>
<path d="M257.759 274.793C261.299 276.618 265.303 277.314 269.249 277.458C271.397 277.516 273.573 277.43 275.72 277.198C277.548 276.995 279.434 276.792 281.204 276.357C282.162 276.097 283.12 275.807 284.077 275.546C285.18 275.256 286.37 274.851 287.53 274.793C289.59 274.648 291.651 274.59 293.711 274.387C295.423 274.213 297.135 273.982 298.818 273.634C300.269 273.344 301.749 272.996 303.054 272.301C303.664 271.982 303.112 271.055 302.503 271.374C300.095 272.62 297.106 272.91 294.465 273.228C292.26 273.489 290.055 273.663 287.849 273.692C286.921 273.721 286.021 273.953 285.122 274.155C283.932 274.445 282.742 274.764 281.582 275.112C278.361 276.039 274.821 276.328 271.484 276.386C267.015 276.473 262.372 275.952 258.368 273.866C257.701 273.518 257.149 274.474 257.759 274.793Z" fill="black"/>
<path d="M212.956 293.076C212.956 293.076 204.919 294.524 202.975 294.93C201.03 295.336 194.414 295.133 192.325 295.191C190.236 295.249 186.58 293.134 184.375 294.553C182.14 295.973 180.138 296.611 179.558 299.885C178.948 303.159 182.343 306.896 186.812 309.707C191.281 312.517 200.566 315.212 203.7 315.618C206.834 316.023 213.856 317.037 216.525 318.138C219.195 319.211 223.345 319.848 225.26 317.82C227.175 315.821 229.206 311.822 229.931 310.113C230.657 308.432 232.63 306.143 231.121 305.506C229.612 304.868 227.117 306.172 224.302 304.521C221.487 302.869 220.008 300.145 218.847 297.277C217.657 294.437 214.901 292.786 212.956 293.076Z" fill="white"/>
<path d="M200.218 295.828C203.207 295.481 206.224 295.249 209.155 294.611C210.026 294.408 210.838 294.061 211.709 293.829C212.927 293.51 214.32 293.452 215.51 293.945C217.628 294.785 218.208 297.451 218.992 299.363C219.862 301.478 221.371 303.043 223.286 304.26C224.331 304.926 225.434 305.564 226.681 305.795C227.784 305.998 228.916 305.94 230.018 305.882C230.396 305.853 230.773 305.882 231.15 305.882C231.15 305.882 231.411 305.911 231.295 305.853C231.208 305.824 231.324 305.737 231.266 305.853C231.063 306.23 230.947 306.723 230.773 307.128C229.409 310.199 227.726 313.184 225.927 316.023C225.434 316.835 224.94 317.617 224.099 318.081C222.735 318.834 220.994 318.631 219.514 318.37C216.642 317.849 213.885 316.806 211.041 316.197C208.749 315.705 206.457 315.328 204.135 314.98C200.595 314.43 197.2 313.416 193.834 312.17C190.12 310.779 186.145 309.185 183.272 306.375C181.734 304.868 179.964 302.956 179.935 300.667C179.906 298.175 182.082 295.712 184.433 295.046C186.609 294.437 188.872 295.075 191.019 295.51C192.035 295.712 193.08 295.915 194.095 295.944C195.111 295.944 196.126 295.915 197.142 295.915C198.187 295.915 199.202 295.944 200.218 295.828C200.914 295.741 200.914 294.669 200.218 294.756C199.086 294.872 197.926 294.814 196.794 294.814C195.749 294.814 194.705 294.901 193.66 294.814C191.339 294.64 189.133 293.829 186.812 293.713C184.2 293.597 181.966 294.64 180.37 296.697C178.832 298.697 178.484 301.073 179.587 303.362C180.515 305.274 182.198 306.983 183.852 308.287C185.506 309.591 187.421 310.547 189.307 311.416C193.08 313.155 197.113 314.633 201.175 315.531C203.091 315.965 205.035 316.168 206.95 316.487C209.823 316.98 212.695 317.588 215.481 318.428C218.557 319.326 223.286 320.949 225.84 318.052C226.74 317.037 227.378 315.792 228.045 314.633C229.003 312.981 229.931 311.301 230.802 309.591C231.353 308.49 232.108 307.273 232.34 306.056C232.659 304.173 229.554 304.839 228.568 304.839C227.175 304.839 225.985 304.578 224.766 303.883C223.606 303.217 222.503 302.463 221.574 301.478C219.95 299.74 219.601 297.364 218.441 295.336C217.889 294.351 217.106 293.481 216.061 293.018C214.843 292.467 213.45 292.409 212.173 292.612C211.273 292.757 210.49 293.134 209.648 293.365C208.198 293.771 206.718 293.945 205.238 294.148C203.555 294.38 201.901 294.553 200.218 294.756C199.521 294.814 199.521 295.915 200.218 295.828Z" fill="black"/>
<path d="M181.618 301.131C184.084 304.086 187.392 306.23 190.845 307.853C192.673 308.722 194.588 309.417 196.533 310.026C198.477 310.634 200.537 311.272 202.568 311.561C204.628 311.851 206.747 311.967 208.749 312.488C209.416 312.662 210.055 312.981 210.693 313.213C211.941 313.676 213.217 314.082 214.494 314.488C216.206 315.009 217.918 315.502 219.659 315.849C221.139 316.139 222.677 316.429 224.186 316.284C224.882 316.226 224.882 315.154 224.186 315.212C221.4 315.444 218.47 314.517 215.829 313.763C213.682 313.126 211.592 312.402 209.532 311.619C208.575 311.243 207.501 311.156 206.485 310.982C205.325 310.808 204.164 310.663 202.974 310.518C201.582 310.344 200.189 309.939 198.825 309.562C196.852 309.041 194.937 308.403 193.051 307.621C189.046 305.998 185.158 303.709 182.372 300.348C181.937 299.827 181.183 300.609 181.618 301.131Z" fill="black"/>
<path d="M424.346 211.947C423.185 213.425 421.966 214.961 420.371 216.004C418.949 216.931 417.237 217.511 415.583 217.829C413.232 218.322 410.708 218.38 408.445 217.568C406.791 216.989 405.34 215.975 404.15 214.729C400.755 211.252 397.534 207.63 394.255 204.037C389.728 199.054 385.231 194.07 380.762 189.058C376.584 184.335 372.666 179.293 367.211 175.961C360.479 171.847 351.745 170.485 344.201 173.122C338.542 175.092 333.842 179.264 330.389 184.045C329.605 185.146 328.909 186.218 328.125 187.29C326.355 189.637 324.701 192.071 323.076 194.505C319.043 200.618 315.3 206.906 311.585 213.193C307.61 219.944 303.693 226.724 299.717 233.475C296.264 239.357 292.753 245.21 288.981 250.889C288.227 251.99 287.472 253.12 286.718 254.192C286.312 254.772 287.24 255.293 287.646 254.743C291.332 249.585 294.61 244.138 297.86 238.72C301.836 232.085 305.695 225.392 309.612 218.698C313.414 212.179 317.244 205.689 321.277 199.315C323.018 196.562 324.788 193.838 326.645 191.173C327.429 190.043 328.241 188.913 329.083 187.783C329.46 187.261 329.866 186.798 330.214 186.247C332.739 182.104 336.395 178.424 340.574 175.961C347.48 171.905 356.417 171.905 363.613 175.179C367.095 176.773 370.229 179.091 372.928 181.785C374.872 183.755 376.642 185.899 378.47 187.986C382.793 192.882 387.175 197.75 391.557 202.589C395.184 206.587 398.811 210.615 402.554 214.555C404.643 216.728 407.023 218.554 410.069 219.046C412.391 219.423 414.915 219.162 417.15 218.496C418.571 218.061 420.051 217.511 421.27 216.641C422.779 215.569 423.998 214.121 425.129 212.643C425.536 212.15 424.752 211.397 424.346 211.947Z" fill="black"/>
<path d="M430.933 93.9928C429.337 95.2387 427.799 96.6585 426.929 98.5128C426.29 99.9036 426.087 101.381 426.116 102.888C426.145 104.482 426.319 106.046 426.29 107.64C426.261 108.654 426.203 109.697 425.971 110.653C425.652 111.928 424.926 112.71 423.795 113.29C422.924 113.753 421.88 114.101 421.763 115.231C421.676 116.303 422.402 117.056 423.04 117.81C424.549 119.519 424.607 121.866 425.013 123.981C425.362 125.749 426.029 127.661 427.045 129.168C427.538 129.892 428.06 130.5 428.873 130.906C429.772 131.341 430.759 131.457 431.774 131.399C434.154 131.225 436.388 130.529 438.506 129.457C440.799 128.298 442.917 126.792 445.122 125.459C445.732 125.111 445.18 124.155 444.571 124.532C441.031 126.647 437.665 129.284 433.544 130.066C431.716 130.414 429.482 130.674 428.234 128.994C427.219 127.661 426.58 125.923 426.203 124.3C425.739 122.388 425.71 120.388 424.897 118.592C424.462 117.636 423.679 117.056 423.127 116.187C422.779 115.637 422.75 115.057 423.359 114.709C423.795 114.449 424.288 114.246 424.752 113.985C426.609 112.884 427.132 111.117 427.277 109.088C427.422 107.524 427.335 105.988 427.248 104.424C427.161 102.859 427.103 101.265 427.567 99.7587C428.234 97.7305 429.801 96.1659 431.455 94.891C432.007 94.5143 431.484 93.5582 430.933 93.9928Z" fill="black"/>
<path d="M449.359 111.377C450.142 110.218 451.564 110.161 452.492 111.175C453.479 112.189 453.595 113.84 453.276 115.144C452.638 117.781 450.171 119.896 447.473 120.128C446.776 120.186 446.776 121.258 447.473 121.2C451.013 120.881 454.204 117.984 454.495 114.362C454.64 112.652 454.059 110.74 452.55 109.784C451.071 108.857 449.359 109.436 448.43 110.798C448.024 111.406 448.981 111.957 449.359 111.377Z" fill="black"/>
<path d="M449.533 115.028C449.562 114.941 449.591 114.854 449.62 114.738C449.62 114.709 449.649 114.652 449.649 114.623C449.678 114.565 449.62 114.681 449.649 114.594C449.736 114.449 449.794 114.275 449.91 114.13C449.939 114.101 449.968 114.043 449.997 114.014C450.084 113.898 449.939 114.101 450.026 113.985C450.084 113.927 450.113 113.869 450.171 113.811C450.229 113.753 450.287 113.695 450.374 113.637C450.403 113.608 450.432 113.579 450.461 113.579C450.49 113.551 450.49 113.551 450.432 113.608C450.461 113.608 450.461 113.579 450.49 113.579C450.636 113.493 450.752 113.406 450.897 113.348C450.81 113.377 450.955 113.319 450.897 113.348C450.926 113.348 450.984 113.319 451.013 113.319C451.1 113.29 451.158 113.29 451.245 113.261C451.303 113.261 451.332 113.261 451.245 113.261C451.274 113.261 451.332 113.261 451.361 113.261C451.39 113.261 451.448 113.261 451.477 113.261C451.419 113.261 451.419 113.261 451.477 113.261C451.506 113.261 451.535 113.29 451.564 113.29C451.448 113.261 451.535 113.29 451.593 113.319C451.68 113.377 451.535 113.261 451.622 113.348C451.651 113.377 451.709 113.464 451.651 113.377C451.825 113.608 452.144 113.724 452.406 113.579C452.638 113.435 452.783 113.087 452.609 112.826C451.999 111.957 450.839 112.102 450.026 112.623C449.243 113.116 448.691 113.927 448.459 114.796C448.372 115.057 448.546 115.405 448.836 115.463C449.127 115.463 449.446 115.318 449.533 115.028Z" fill="black"/>
<path d="M450.026 113.811C450.432 114.391 450.432 115.115 450.229 115.782C449.997 116.506 449.446 117.085 448.866 117.578C448.633 117.752 448.662 118.157 448.866 118.331C449.098 118.563 449.417 118.505 449.62 118.331C450.374 117.723 450.984 116.94 451.274 116.013C451.535 115.144 451.506 114.043 450.955 113.29C450.781 113.058 450.491 112.942 450.2 113.087C449.997 113.203 449.881 113.579 450.026 113.811Z" fill="black"/>
<path d="M425.594 123.489C426.696 123.663 427.741 123.576 428.815 123.286C429.859 122.996 430.846 122.591 431.861 122.243C432.529 122.011 432.239 120.968 431.571 121.2C429.743 121.837 427.857 122.735 425.884 122.446C425.594 122.417 425.304 122.504 425.216 122.822C425.158 123.054 425.303 123.431 425.594 123.489Z" fill="black"/>
<path d="M431.746 108.538C431.6 108.625 431.455 108.915 431.368 109.059C431.194 109.494 431.078 109.958 431.078 110.421C431.078 110.624 431.078 110.827 431.165 111.03C431.252 111.233 431.397 111.377 431.6 111.435C431.891 111.493 432.181 111.319 432.355 111.088C432.587 110.798 432.703 110.421 432.732 110.045C432.761 109.668 432.703 109.291 432.616 108.944C432.587 108.828 432.558 108.683 432.471 108.596C432.384 108.509 432.268 108.422 432.065 108.393C431.949 108.393 431.833 108.48 431.746 108.538Z" fill="black"/>
<path d="M431.455 108.074C430.933 108.451 430.701 109.146 430.585 109.755C430.469 110.421 430.411 111.262 430.991 111.725C431.339 112.015 431.774 112.044 432.21 111.87C432.5 111.725 432.761 111.493 432.935 111.204C433.312 110.566 433.341 109.813 433.225 109.088C433.167 108.683 433.051 108.277 432.674 108.045C432.297 107.814 431.832 107.843 431.455 108.074C431.223 108.219 431.107 108.567 431.252 108.828C431.397 109.059 431.745 109.175 432.007 109.031L432.123 108.973L431.978 109.002C431.978 109.002 432.036 109.002 432.036 109.031C432.036 109.031 432.036 109.031 432.065 109.031C432.123 109.059 432.123 109.059 432.065 109.031C432.007 108.944 432.036 109.059 432.065 109.031C432.065 109.031 432.094 109.031 432.094 109.059C432.065 109.059 432.065 109.031 432.036 109.031C432.036 109.031 432.094 109.146 432.065 109.031C432.036 108.944 432.065 109.059 432.094 109.088C432.123 109.204 432.152 109.32 432.181 109.436C432.181 109.465 432.21 109.639 432.21 109.552C432.21 109.61 432.21 109.668 432.239 109.726C432.239 109.842 432.239 109.987 432.239 110.103C432.239 110.132 432.239 110.161 432.239 110.189C432.239 110.189 432.268 110.103 432.239 110.161C432.239 110.218 432.21 110.247 432.21 110.305C432.21 110.363 432.181 110.421 432.152 110.479C432.152 110.508 432.123 110.537 432.123 110.537C432.094 110.624 432.152 110.479 432.123 110.537C432.094 110.595 432.065 110.624 432.065 110.682C432.065 110.711 432.036 110.711 432.036 110.74C432.036 110.74 431.978 110.798 432.007 110.769C432.036 110.74 432.007 110.798 431.978 110.798C431.949 110.827 431.949 110.827 431.92 110.856C431.891 110.885 431.891 110.885 431.862 110.914C431.832 110.943 431.832 110.943 431.862 110.914C431.832 110.914 431.803 110.943 431.774 110.972C431.774 110.972 431.687 111.001 431.745 110.972C431.803 110.943 431.745 110.972 431.716 110.972C431.716 110.972 431.803 110.972 431.745 110.972C431.716 110.972 431.687 110.972 431.687 110.972C431.687 110.972 431.774 110.972 431.716 110.972C431.658 110.972 431.745 110.972 431.745 110.972C431.716 110.943 431.716 110.943 431.745 110.972C431.716 110.943 431.658 110.885 431.716 110.943C431.687 110.914 431.658 110.856 431.658 110.827C431.716 110.914 431.658 110.769 431.629 110.74C431.629 110.711 431.629 110.682 431.6 110.653C431.6 110.682 431.6 110.711 431.6 110.653C431.6 110.537 431.6 110.45 431.6 110.334C431.6 110.276 431.6 110.218 431.6 110.161C431.6 110.132 431.6 110.103 431.6 110.074C431.6 109.987 431.571 110.132 431.6 110.045C431.658 109.784 431.716 109.523 431.803 109.291C431.774 109.349 431.832 109.262 431.832 109.233C431.861 109.175 431.891 109.146 431.92 109.088C431.949 109.031 431.978 109.002 432.007 108.973C432.007 108.973 431.949 109.059 431.978 109.002C432.007 108.973 432.065 108.915 431.978 109.002C432.21 108.828 432.326 108.509 432.181 108.248C432.065 108.045 431.716 107.901 431.455 108.074Z" fill="black"/>
<path d="M430.236 103.96C430.352 103.902 430.439 103.844 430.556 103.786C430.701 103.728 430.468 103.815 430.585 103.757C430.643 103.728 430.701 103.699 430.759 103.699C430.875 103.67 430.962 103.641 431.078 103.612C431.136 103.612 431.194 103.583 431.252 103.583C431.281 103.583 431.31 103.583 431.339 103.554C431.281 103.554 431.281 103.554 431.31 103.554C431.542 103.525 431.745 103.525 431.977 103.525C432.035 103.525 432.093 103.525 432.151 103.554C432.064 103.554 432.151 103.554 432.18 103.554C432.297 103.583 432.413 103.612 432.529 103.641C432.79 103.728 433.138 103.554 433.196 103.265C433.254 102.975 433.109 102.685 432.819 102.598C431.745 102.308 430.585 102.453 429.627 103.004C429.395 103.149 429.279 103.496 429.424 103.757C429.656 104.018 429.975 104.105 430.236 103.96Z" fill="black"/>
<path d="M426.522 106.713C425.362 106.423 424.694 105.612 424.172 104.597C423.679 103.699 423.185 102.743 422.924 101.729C422.692 100.802 422.75 99.7587 422.75 98.8315C422.779 97.9623 422.866 97.0641 423.04 96.2238C423.418 94.5144 424.23 92.9787 425.42 91.6749C426.145 90.8926 426.958 90.1972 427.828 89.5887C428.321 89.241 429.192 88.9513 429.279 88.3138C429.279 88.2559 429.279 88.2269 429.279 88.169C429.279 88.14 429.279 88.111 429.279 88.0821C429.279 87.9372 429.279 88.0531 429.279 88.0241C429.308 87.7633 429.366 87.5026 429.453 87.2128C429.685 86.4305 430.062 85.6772 430.556 85.0108C432.529 82.4031 436.011 81.4759 439.116 81.1862C441.408 80.9833 443.671 80.4328 445.964 80.1721C449.04 79.8244 452.086 79.9692 454.988 81.1282C455.626 81.389 455.917 80.3459 455.278 80.0851C451.999 78.7813 448.517 78.7233 445.064 79.2159C443.671 79.4187 442.279 79.7085 440.857 79.9113C439.493 80.1141 438.1 80.1721 436.736 80.4618C433.312 81.1572 429.917 82.9536 428.612 86.3726C428.379 86.981 428.176 87.7054 428.176 88.3718C428.263 88.2269 428.35 88.0531 428.437 87.9082C425.71 89.5887 423.33 91.7908 422.286 94.891C421.822 96.2528 421.647 97.6726 421.647 99.1213C421.647 99.9036 421.647 100.715 421.764 101.497C421.851 102.308 422.199 103.062 422.547 103.786C423.33 105.496 424.259 107.292 426.232 107.756C426.9 107.901 427.19 106.857 426.522 106.713Z" fill="black"/>
<path d="M430.875 94.1956C431.339 93.2685 432.384 92.8918 433.37 93.1236C434.444 93.3844 435.285 94.2536 435.895 95.1518C436.533 96.1369 436.968 97.209 437.491 98.2521C438.042 99.3531 438.68 100.425 439.319 101.468C440.479 103.294 441.727 105.351 443.671 106.423C445.644 107.495 447.937 107.437 450.113 107.234C450.809 107.176 450.809 106.075 450.113 106.162C447.676 106.394 445.006 106.423 443.091 104.684C442.162 103.844 441.466 102.801 440.799 101.787C440.073 100.686 439.406 99.5559 438.767 98.3969C437.694 96.3687 436.939 93.9349 434.908 92.66C433.283 91.6459 430.875 91.8197 429.946 93.7031C429.627 94.2536 430.556 94.8041 430.875 94.1956Z" fill="black"/>
<path d="M446.312 107.263C447.589 108.132 448.633 109.465 449.214 110.885C449.33 111.146 449.562 111.348 449.881 111.262C450.142 111.204 450.374 110.856 450.258 110.595C449.562 108.857 448.401 107.408 446.863 106.336C446.631 106.162 446.254 106.278 446.109 106.539C445.964 106.799 446.08 107.118 446.312 107.263Z" fill="black"/>
<path d="M418.92 217.713C424.665 222.494 431.484 225.855 438.797 227.42C440.857 227.854 442.975 228.173 445.064 228.347C445.761 228.405 445.761 227.333 445.064 227.275C435.779 226.493 426.842 222.929 419.674 216.96C419.152 216.496 418.368 217.279 418.92 217.713Z" fill="black"/>
<path d="M444.049 100.599C447.357 105.785 453.334 109.031 459.515 108.973C460.211 108.973 460.211 107.872 459.515 107.901C453.74 107.958 448.111 104.945 445.006 100.077C444.629 99.469 443.671 99.9905 444.049 100.599Z" fill="black"/>
<path d="M449.736 80.6356C452.493 80.6646 455.278 81.0413 457.861 82.0844C460.588 83.1854 462.707 85.1267 464.564 87.3867C466.45 89.6756 467.959 92.2254 469.293 94.8621C470.019 96.2818 470.686 97.6726 471.063 99.2082C471.441 100.715 471.615 102.279 471.731 103.844C472.05 108.364 471.528 112.942 471.934 117.433C472.137 119.577 472.688 121.837 474.081 123.518C474.604 124.126 475.271 124.648 475.996 124.995C476.287 125.14 476.664 125.314 476.983 125.372C477.041 125.372 477.186 125.43 477.244 125.43C477.128 125.459 476.954 124.822 476.983 124.793C476.896 124.793 476.635 125.053 476.548 125.111C475.271 125.981 473.907 126.734 472.572 127.516C472.166 127.748 471.789 128.009 471.325 128.096C471.063 128.154 470.802 128.154 470.541 128.154C470.367 128.154 470.222 128.154 470.048 128.154C469.961 128.154 469.903 128.154 469.816 128.154C469.961 128.212 469.99 128.183 469.874 128.154C469.148 127.487 468.713 126.415 468.365 125.546C468.104 124.879 467.901 124.184 467.756 123.489C467.697 123.17 467.639 122.851 467.639 122.504C467.61 122.156 467.697 122.185 467.581 122.417C467.378 122.504 467.175 122.591 466.972 122.677C466.856 122.591 466.769 122.504 466.653 122.417C466.537 122.214 466.653 122.504 466.682 122.648C466.711 122.909 466.74 123.17 466.798 123.431C466.885 124.213 466.972 124.995 467.088 125.778C467.204 126.879 467.32 127.98 467.465 129.081C467.523 128.965 467.581 128.82 467.61 128.704C466.943 129.515 465.84 129.892 464.883 130.182C463.838 130.529 462.736 130.761 461.662 131.022C460.298 131.341 458.934 131.631 457.512 131.573C457.164 131.544 456.758 131.544 456.439 131.457C456.236 131.399 456.062 131.254 455.829 131.254C455.597 131.225 455.336 131.341 455.133 131.399C452.841 132.094 450.461 132.21 448.111 132.355C447.211 132.413 446.109 132.558 445.209 132.297C445.122 132.268 445.006 132.21 444.977 132.181C445.093 132.21 444.948 132.355 445.064 132.268C445.064 132.268 445.267 131.978 445.354 131.891C446.863 129.892 447.85 127.487 448.082 124.966C448.14 124.271 447.066 124.271 447.008 124.966C446.834 126.937 446.08 128.82 445.006 130.501C444.629 131.08 443.758 131.862 444.02 132.616C444.426 133.746 446.457 133.514 447.356 133.485C449.272 133.427 451.245 133.311 453.131 133.021C453.914 132.905 454.698 132.703 455.452 132.471C455.539 132.442 455.655 132.413 455.742 132.384C455.771 132.355 455.946 132.297 455.829 132.355C455.742 132.413 455.539 132.268 455.858 132.413C455.975 132.471 456.091 132.5 456.207 132.529C456.468 132.587 456.729 132.616 456.99 132.645C458.992 132.847 460.936 132.355 462.852 131.92C464.506 131.544 466.363 131.138 467.756 130.153C468.133 129.892 468.568 129.573 468.597 129.081C468.597 128.762 468.539 128.443 468.481 128.125C468.336 126.821 468.191 125.488 468.046 124.184C467.988 123.634 467.93 123.112 467.843 122.562C467.785 122.243 467.785 121.779 467.378 121.692C467.146 121.634 466.885 121.721 466.769 121.953C466.653 122.127 466.682 122.359 466.682 122.562C466.711 123.257 466.856 123.923 467.03 124.59C467.349 125.778 467.843 126.995 468.51 128.038C469.003 128.82 469.409 129.313 470.367 129.313C471.412 129.313 472.224 129.11 473.153 128.588C474.458 127.806 475.822 127.053 477.07 126.212C477.505 125.923 478.695 125.111 477.824 124.532C477.563 124.358 477.215 124.358 476.925 124.242C476.519 124.097 476.141 123.865 475.793 123.605C474.952 122.967 474.342 122.069 473.965 121.084C473.037 118.824 472.979 116.332 472.979 113.898C472.979 111.406 473.066 108.915 473.008 106.423C472.95 103.294 472.746 100.019 471.586 97.0641C470.425 94.1087 468.742 91.2113 466.914 88.6036C464.941 85.7931 462.59 83.1274 459.486 81.5918C456.497 80.0851 453.102 79.5636 449.765 79.5056C449.039 79.5346 449.039 80.6356 449.736 80.6356Z" fill="black"/>
<path d="M426.29 127.545C425.158 130.848 422.779 133.166 419.964 135.136C419.616 135.368 419.616 135.832 419.964 136.064C421.212 136.933 422.779 137.078 424.259 137.223C425.855 137.396 427.48 137.425 429.105 137.309C432.209 137.107 435.314 136.44 438.129 135.107C438.767 134.818 438.216 133.862 437.578 134.18C434.937 135.426 432.006 136.064 429.105 136.237C427.683 136.324 426.232 136.324 424.81 136.208C423.388 136.093 421.734 136.006 420.516 135.165C420.516 135.484 420.516 135.803 420.516 136.093C423.562 133.948 426.116 131.428 427.335 127.864C427.567 127.168 426.522 126.879 426.29 127.545Z" fill="black"/>
<path d="M317.563 122.562C315.851 117.868 314.052 113.232 312.398 108.509C312.021 107.379 311.615 106.278 311.266 105.148C311.034 104.395 310.773 103.757 310.628 103.149C310.57 102.917 310.483 102.598 310.599 102.395C310.744 102.135 311.092 102.135 311.353 102.077C312.079 101.961 312.833 101.932 313.559 101.903C314.284 101.874 315.01 101.845 315.735 101.845C315.967 101.845 316.286 101.787 316.548 101.845C316.373 101.816 316.548 101.845 316.577 101.874C316.664 101.932 316.751 102.019 316.809 102.106C316.954 102.337 317.041 102.598 317.099 102.859C317.186 103.12 317.273 103.409 317.389 103.67C318.405 106.51 319.507 109.349 320.581 112.189C322.38 116.912 324.15 121.634 325.949 126.357C326.181 126.995 327.255 126.734 326.994 126.067C324.092 118.476 321.132 110.914 318.376 103.265C318.056 102.395 317.882 101.207 316.925 100.86C316.664 100.773 316.431 100.773 316.17 100.773C315.474 100.773 314.807 100.802 314.11 100.802C313.269 100.831 312.456 100.86 311.615 100.947C310.947 101.005 310.193 101.063 309.758 101.671C309.351 102.222 309.409 102.946 309.612 103.554C309.845 104.308 310.106 105.09 310.367 105.843C312.253 111.551 314.487 117.172 316.519 122.822C316.751 123.518 317.824 123.228 317.563 122.562Z" fill="black"/>
<path d="M311.673 103.989C313.907 110.247 315.996 116.593 318.463 122.764C318.724 123.402 319.768 123.112 319.507 122.475C317.041 116.303 314.922 109.958 312.717 103.699C312.485 103.062 311.44 103.323 311.673 103.989Z" fill="black"/>
<path d="M317.36 123.634C318.695 124.329 320.088 124.879 321.509 125.314C322.931 125.749 324.382 126.067 325.804 126.531C326.355 126.705 326.994 127.024 327.052 127.69C327.081 128.096 326.732 128.646 326.355 128.762C325.282 129.081 324.034 128.704 322.989 128.53C321.248 128.212 319.536 127.719 317.882 127.053C317.244 126.792 316.954 127.835 317.592 128.096C319.275 128.762 321.016 129.255 322.815 129.573C324.063 129.805 325.485 130.153 326.761 129.776C327.342 129.602 327.806 128.994 328.038 128.443C328.27 127.835 328.183 127.197 327.835 126.647C327.458 126.009 326.82 125.691 326.123 125.488C325.282 125.227 324.411 125.024 323.541 124.793C321.596 124.271 319.681 123.663 317.911 122.706C317.302 122.388 316.751 123.315 317.36 123.634Z" fill="black"/>
<path d="M317.969 131.804C319.246 132.413 320.552 132.847 321.945 133.05C323.337 133.253 324.904 133.369 326.268 133.079C327.545 132.789 328.473 131.225 327.748 130.037C327.168 129.052 325.891 128.878 324.875 128.849C324.179 128.82 324.179 129.921 324.875 129.921C325.311 129.921 325.775 129.979 326.21 130.124C326.442 130.211 326.674 130.356 326.761 130.472C326.965 130.761 326.936 131.109 326.79 131.399C326.674 131.63 326.645 131.659 326.471 131.833C326.413 131.891 326.529 131.804 326.413 131.862C326.384 131.891 326.355 131.92 326.297 131.92C326.268 131.949 326.384 131.891 326.268 131.92C326.123 131.978 325.978 132.007 325.833 132.036C325.195 132.152 324.556 132.123 323.918 132.123C323.337 132.094 322.786 132.065 322.206 132.007C320.9 131.833 319.681 131.428 318.492 130.877C317.882 130.587 317.331 131.515 317.969 131.804Z" fill="black"/>
<path d="M315.474 126.676C314.632 128.154 314.458 130.008 315.474 131.457C315.648 131.688 315.938 131.804 316.228 131.659C316.46 131.515 316.605 131.167 316.431 130.906C315.619 129.776 315.764 128.414 316.431 127.226C316.78 126.618 315.822 126.096 315.474 126.676Z" fill="black"/>
<path d="M315.503 131.167C315.416 131.804 315.213 132.471 315.3 133.137C315.387 133.833 315.822 134.441 316.257 134.992C316.402 135.194 316.751 135.484 316.838 135.745C316.896 135.89 316.809 136.151 316.809 136.295C316.809 136.44 316.838 136.585 316.867 136.701C316.983 137.367 317.302 137.976 317.795 138.468C318.753 139.396 320.117 139.888 321.393 140.178C322.351 140.381 323.221 140.555 324.208 140.41C325.775 140.207 328.125 139.483 327.893 137.483C327.661 135.542 325.079 136.527 323.86 136.18C322.177 135.687 320.523 134.963 318.898 134.325C318.231 134.064 317.969 135.107 318.608 135.368C319.507 135.745 320.465 136.035 321.393 136.324C322.873 136.759 324.556 137.194 326.123 137.049C327.516 136.904 329.199 135.745 328.619 134.151C327.98 132.355 325.746 132.905 324.295 132.703C323.163 132.558 322.061 132.268 320.987 131.949C320.175 131.688 319.304 131.428 318.55 130.964C317.94 130.616 317.418 131.544 317.998 131.891C319.246 132.645 320.784 133.05 322.206 133.398C323.076 133.601 323.947 133.775 324.817 133.833C325.514 133.891 326.384 133.688 327.052 133.948C327.545 134.151 327.835 134.673 327.545 135.165C327.226 135.716 326.529 135.948 325.949 135.977C324.527 136.064 323.076 135.687 321.713 135.281C320.784 135.021 319.826 134.702 318.927 134.325C318.84 134.673 318.724 135.021 318.637 135.368C319.797 135.803 320.987 136.266 322.177 136.701C322.873 136.962 323.57 137.281 324.324 137.338C325.021 137.396 325.717 137.223 326.413 137.31C326.936 137.367 327.023 137.831 326.733 138.266C326.326 138.845 325.456 139.077 324.817 139.222C324.208 139.367 323.541 139.454 322.902 139.367C321.713 139.193 320.465 138.903 319.42 138.295C318.84 137.947 318.318 137.541 318.085 136.875C317.882 136.324 318.143 135.716 317.824 135.223C317.476 134.673 317.012 134.238 316.664 133.659C316.257 132.934 316.489 132.297 316.606 131.515C316.635 130.761 315.59 130.472 315.503 131.167Z" fill="black"/>
<path d="M448.343 118.621C447.821 119.114 447.589 119.78 447.415 120.475C447.211 121.287 447.095 122.098 447.008 122.938C446.863 124.445 446.805 126.299 447.502 127.69C448.14 128.965 449.562 129.573 450.868 128.936C452.173 128.298 452.899 126.85 453.131 125.459C453.421 123.721 453.073 121.953 452.463 120.331C452.231 119.693 451.187 119.954 451.419 120.62C451.97 122.069 452.347 123.692 452.086 125.256C451.883 126.386 450.984 128.501 449.475 128.096C447.966 127.69 448.024 125.314 448.053 124.097C448.053 123.228 448.14 122.388 448.285 121.547C448.43 120.823 448.546 119.925 449.097 119.374C449.62 118.911 448.865 118.128 448.343 118.621Z" fill="black"/>
<path d="M366.631 56.2103C352.79 56.9346 341.502 68.1187 340.748 81.9685C340.341 89.4728 342.953 96.3397 347.48 101.497C348.118 102.222 348.263 103.236 347.857 104.076L344.201 111.696C343.94 112.247 344.52 112.855 345.071 112.594L354.647 108.306C355.256 108.016 355.982 108.016 356.591 108.306C360.334 110.045 364.542 110.943 368.981 110.827C383.113 110.363 394.748 98.9764 395.416 84.8659C396.17 68.6692 382.851 55.399 366.631 56.2103Z" fill="#BFE3FF"/>
<path d="M344.781 113.203C344.462 113.203 344.143 113.087 343.911 112.826C343.562 112.449 343.475 111.928 343.679 111.464L347.335 103.844C347.654 103.178 347.538 102.395 347.045 101.845C342.199 96.3398 339.761 89.27 340.167 81.9105C340.922 67.9159 352.529 56.3551 366.573 55.6598C374.466 55.2541 382.184 58.2095 387.756 63.7436C393.327 69.2777 396.316 76.9849 395.938 84.8369C395.242 99.2372 383.403 110.856 368.981 111.319C364.571 111.464 360.334 110.595 356.359 108.77C355.895 108.567 355.343 108.567 354.879 108.77L345.303 113.058C345.129 113.174 344.955 113.203 344.781 113.203ZM368.024 56.7318C367.56 56.7318 367.095 56.7318 366.631 56.7608C353.138 57.4562 341.996 68.5533 341.27 81.9974C340.893 89.0672 343.243 95.8472 347.886 101.149C348.669 102.019 348.844 103.294 348.321 104.337L344.665 111.957C344.665 111.986 344.636 112.044 344.694 112.102C344.723 112.131 344.781 112.16 344.839 112.131L354.415 107.843C355.198 107.495 356.069 107.495 356.794 107.843C360.624 109.61 364.687 110.421 368.923 110.305C382.794 109.871 394.168 98.6867 394.836 84.8369C395.184 77.2746 392.34 69.8862 386.972 64.5549C381.952 59.5423 375.104 56.7318 368.024 56.7318Z" fill="black"/>
<path d="M358.593 95.4415H355.14C354.618 95.4415 354.183 95.0069 354.183 94.4854V79.8823C354.183 79.3608 354.618 78.9262 355.14 78.9262H358.593C359.116 78.9262 359.551 79.3608 359.551 79.8823V94.4854C359.58 95.0359 359.145 95.4415 358.593 95.4415Z" fill="white"/>
<path d="M358.593 95.9921H355.14C354.299 95.9921 353.631 95.3257 353.631 94.4854V79.8823C353.631 79.0421 354.299 78.3757 355.14 78.3757H358.593C359.435 78.3757 360.102 79.0421 360.102 79.8823V94.4854C360.102 95.3257 359.435 95.9921 358.593 95.9921ZM355.14 79.4477C354.908 79.4477 354.734 79.6505 354.734 79.8823V94.4854C354.734 94.7172 354.908 94.92 355.14 94.92H358.593C358.825 94.92 359.029 94.7172 359.029 94.4854V79.8823C359.029 79.6505 358.825 79.4477 358.593 79.4477H355.14Z" fill="black"/>
<path d="M364.977 75.768C368.372 72.0303 366.602 70.3208 368.024 68.3216C369.214 66.641 371.042 67.3654 371.709 70.5526C371.97 71.8275 371.825 73.7977 371.651 74.7828C370.897 78.8972 373.798 78.4626 375.946 78.5205C378.18 78.5785 380.153 78.4046 381.053 79.2449C382.997 81.0993 381.14 82.3162 381.314 83.8228C381.488 85.3875 380.907 86.1408 380.501 86.8072C379.863 87.8793 380.443 87.7923 380.269 89.27C380.066 90.7767 379.66 91.0085 379.253 91.9357C378.847 92.8628 379.253 94.0218 376.7 95.2098C374.553 96.2239 370.577 95.7893 367.153 95.7893C365.848 95.7893 364.716 95.5285 363.787 95.2098C362.366 94.7172 361.408 93.4713 361.408 92.0805V80.0272C361.408 79.1869 361.756 78.3757 362.366 77.7672C362.975 77.1587 364.107 76.7241 364.977 75.768Z" fill="white"/>
<path d="M371.941 96.3977C371.158 96.3977 370.345 96.3687 369.533 96.3398C368.72 96.3108 367.908 96.2818 367.153 96.2818C365.964 96.2818 364.774 96.079 363.613 95.6734C361.988 95.0939 360.886 93.6451 360.886 92.0226V79.9692C360.886 78.9841 361.292 78.0569 361.988 77.3326C362.279 77.0428 362.685 76.7821 363.091 76.5213C363.613 76.2026 364.136 75.8549 364.571 75.3623C366.515 73.2182 366.66 71.7985 366.776 70.5526C366.863 69.6833 366.95 68.8431 367.589 67.9449C368.198 67.1046 368.982 66.728 369.794 66.8728C370.926 67.1046 371.825 68.3795 372.231 70.3498C372.522 71.7405 372.348 73.7977 372.173 74.7828C371.97 75.9418 372.057 76.7531 372.435 77.2167C372.986 77.8831 374.176 77.8831 375.307 77.8831C375.539 77.8831 375.743 77.8831 375.946 77.8831C376.352 77.8831 376.758 77.8831 377.135 77.9121C378.963 77.9121 380.53 77.941 381.401 78.7523C382.939 80.201 382.445 81.4759 382.097 82.4321C381.923 82.8667 381.778 83.3013 381.807 83.678C381.981 85.2716 381.43 86.1698 381.024 86.8072L380.908 86.981C380.646 87.4157 380.646 87.5316 380.704 87.8213C380.762 88.111 380.82 88.5167 380.733 89.241C380.588 90.4 380.298 90.8926 380.008 91.4141C379.892 91.588 379.805 91.7908 379.689 92.0516C379.602 92.2254 379.573 92.4282 379.515 92.631C379.312 93.4423 379.05 94.5723 376.845 95.6154C375.655 96.2818 373.856 96.3977 371.941 96.3977ZM365.383 76.1446C364.861 76.7241 364.223 77.1298 363.671 77.4775C363.294 77.7092 362.975 77.9121 362.772 78.1439C362.25 78.6654 361.959 79.3318 361.959 80.0272V92.0805C361.959 93.2395 362.772 94.2826 363.962 94.7172C365.006 95.0649 366.08 95.2677 367.124 95.2677C367.908 95.2677 368.72 95.2967 369.533 95.3257C372.173 95.3836 374.901 95.4705 376.41 94.7462C378.151 93.9349 378.296 93.2395 378.47 92.4862C378.528 92.2254 378.586 91.9936 378.702 91.7328C378.818 91.4431 378.963 91.2113 379.079 91.0085C379.341 90.5449 379.544 90.1972 379.66 89.241C379.747 88.6905 379.689 88.4008 379.631 88.14C379.544 87.6475 379.515 87.2998 379.979 86.5464L380.095 86.3436C380.472 85.7351 380.85 85.1267 380.704 83.9098C380.617 83.2723 380.85 82.6639 381.053 82.1713C381.401 81.2731 381.633 80.6357 380.617 79.6795C380.037 79.129 378.615 79.129 377.077 79.129C376.671 79.129 376.265 79.129 375.859 79.1C375.655 79.1 375.452 79.1 375.249 79.1C373.914 79.1 372.406 79.1 371.535 78.0569C370.926 77.3326 370.752 76.2316 371.042 74.7249C371.216 73.7687 371.361 71.8854 371.1 70.6975C370.723 68.901 370.026 68.1477 369.504 68.0608C369.011 67.9449 368.604 68.4085 368.401 68.6982C367.937 69.3646 367.879 69.9731 367.792 70.7844C367.734 72.0592 367.56 73.7108 365.383 76.1446Z" fill="black"/>
<path d="M255.176 108.741H293.856C296.497 108.741 298.644 110.885 298.644 113.522V132.529C298.644 135.165 296.497 137.309 293.856 137.309H287.414C287.037 137.309 286.718 137.628 286.718 138.005L286.776 142.438C286.602 143.713 285.093 144.263 284.135 143.423L277.461 137.657C277.2 137.425 276.881 137.309 276.533 137.309H255.176C252.536 137.309 250.388 135.165 250.388 132.529V113.522C250.388 110.885 252.536 108.741 255.176 108.741Z" fill="#3380B0"/>
<path d="M285.18 144.35C284.687 144.35 284.193 144.176 283.787 143.829L277.113 138.063C276.968 137.918 276.765 137.86 276.533 137.86H255.176C252.246 137.86 249.866 135.484 249.866 132.558V113.551C249.866 110.624 252.246 108.248 255.176 108.248H293.856C296.787 108.248 299.166 110.624 299.166 113.551V132.558C299.166 135.484 296.787 137.86 293.856 137.86H287.414C287.356 137.86 287.327 137.889 287.298 137.918C287.269 137.947 287.24 137.976 287.269 138.034L287.327 142.467C287.211 143.336 286.689 143.974 285.934 144.263C285.702 144.321 285.441 144.35 285.18 144.35ZM255.176 109.291C252.826 109.291 250.94 111.204 250.94 113.522V132.529C250.94 134.876 252.855 136.759 255.176 136.759H276.533C276.997 136.759 277.461 136.933 277.81 137.223L284.484 142.988C284.774 143.249 285.18 143.336 285.557 143.191C285.934 143.046 286.196 142.728 286.254 142.351L286.167 138.005C286.167 137.686 286.283 137.367 286.515 137.107C286.747 136.875 287.066 136.73 287.385 136.73H293.827C296.177 136.73 298.064 134.818 298.064 132.5V113.493C298.064 111.146 296.148 109.262 293.827 109.262H255.176V109.291Z" fill="black"/>
<path d="M264.607 125.198C265.777 125.198 266.725 124.251 266.725 123.083C266.725 121.915 265.777 120.968 264.607 120.968C263.437 120.968 262.489 121.915 262.489 123.083C262.489 124.251 263.437 125.198 264.607 125.198Z" fill="white"/>
<path d="M264.607 125.72C263.939 125.72 263.243 125.459 262.721 124.937C261.676 123.894 261.676 122.214 262.721 121.2C263.765 120.157 265.448 120.157 266.464 121.2C267.509 122.243 267.509 123.923 266.464 124.937C265.971 125.459 265.303 125.72 264.607 125.72ZM264.607 121.518C264.201 121.518 263.794 121.663 263.504 121.982C262.895 122.59 262.895 123.576 263.504 124.184C264.114 124.793 265.1 124.793 265.709 124.184C266.319 123.576 266.319 122.59 265.709 121.982C265.419 121.663 265.013 121.518 264.607 121.518Z" fill="black"/>
<path d="M274.502 125.198C275.671 125.198 276.62 124.251 276.62 123.083C276.62 121.915 275.671 120.968 274.502 120.968C273.332 120.968 272.383 121.915 272.383 123.083C272.383 124.251 273.332 125.198 274.502 125.198Z" fill="white"/>
<path d="M274.502 125.72C273.834 125.72 273.138 125.459 272.615 124.937C271.571 123.894 271.571 122.214 272.615 121.2C273.66 120.157 275.343 120.157 276.359 121.2C276.852 121.692 277.142 122.359 277.142 123.083C277.142 123.778 276.852 124.445 276.359 124.966C275.865 125.459 275.198 125.72 274.502 125.72ZM274.502 121.518C274.095 121.518 273.689 121.663 273.399 121.982C272.79 122.59 272.79 123.576 273.399 124.184C274.008 124.793 274.995 124.793 275.604 124.184C275.894 123.894 276.069 123.489 276.069 123.083C276.069 122.677 275.894 122.272 275.604 121.982C275.314 121.663 274.908 121.518 274.502 121.518Z" fill="black"/>
<path d="M284.396 125.198C285.566 125.198 286.515 124.251 286.515 123.083C286.515 121.915 285.566 120.968 284.396 120.968C283.226 120.968 282.278 121.915 282.278 123.083C282.278 124.251 283.226 125.198 284.396 125.198Z" fill="white"/>
<path d="M284.396 125.72C283.729 125.72 283.033 125.459 282.51 124.937C281.466 123.894 281.466 122.214 282.51 121.2C283.555 120.157 285.238 120.157 286.253 121.2C287.298 122.243 287.298 123.923 286.253 124.937C285.76 125.459 285.093 125.72 284.396 125.72ZM284.396 121.518C283.99 121.518 283.584 121.663 283.294 121.982C282.684 122.59 282.684 123.576 283.294 124.184C283.903 124.793 284.89 124.793 285.499 124.184C286.108 123.576 286.108 122.59 285.499 121.982C285.209 121.663 284.803 121.518 284.396 121.518Z" fill="black"/>
<path d="M228.51 318.167C228.51 318.167 230.512 312.546 232.978 308.287C240 296.234 252.826 287.773 252.826 287.773C252.826 287.773 235.619 299.885 231.817 304.578C231.585 304.868 231.411 305.129 231.295 305.332C231.295 305.332 232.166 305.274 231.643 306.809C231.092 308.345 228.51 312.778 228.51 312.778V318.167Z" fill="black"/>
<path d="M257.73 285.253C257.73 285.253 262.953 283.485 266.522 283.022C270.7 282.471 281.524 280.095 281.524 280.095C281.524 280.095 266.406 281.225 263.881 279.834L257.73 285.253Z" fill="black"/>
<path d="M281.495 199.488C290.806 199.488 298.354 191.952 298.354 182.654C298.354 173.357 290.806 165.82 281.495 165.82C272.184 165.82 264.636 173.357 264.636 182.654C264.636 191.952 272.184 199.488 281.495 199.488Z" fill="#FFEBA0"/>
<path d="M281.466 200.039C277.897 200.039 274.386 198.938 271.426 196.823C267.625 194.128 265.129 190.13 264.346 185.552C262.75 176.106 269.134 167.124 278.622 165.502C283.207 164.719 287.821 165.791 291.622 168.486C295.423 171.181 297.919 175.179 298.702 179.757C299.486 184.335 298.412 188.942 295.713 192.737C293.015 196.533 289.01 199.025 284.426 199.807C283.439 199.952 282.452 200.039 281.466 200.039ZM281.553 166.342C280.624 166.342 279.725 166.429 278.796 166.574C269.917 168.08 263.911 176.512 265.419 185.349C266.145 189.637 268.495 193.404 272.064 195.925C275.604 198.445 279.957 199.431 284.252 198.706C288.546 197.982 292.318 195.635 294.843 192.071C297.367 188.536 298.354 184.19 297.628 179.902C296.903 175.614 294.553 171.847 290.984 169.326C288.169 167.385 284.89 166.342 281.553 166.342Z" fill="black"/>
<path d="M275.754 182.625C276.339 182.527 276.681 181.666 276.518 180.704C276.355 179.741 275.749 179.041 275.164 179.14C274.579 179.239 274.238 180.099 274.401 181.061C274.563 182.024 275.17 182.724 275.754 182.625Z" fill="black"/>
<path d="M275.634 183.176C275.227 183.176 274.821 182.973 274.502 182.596C274.183 182.22 273.951 181.698 273.863 181.148C273.776 180.597 273.805 180.018 273.98 179.583C274.183 179.033 274.589 178.685 275.053 178.598C275.517 178.511 276.011 178.714 276.388 179.177C276.707 179.554 276.939 180.076 277.026 180.626C277.113 181.177 277.084 181.756 276.91 182.191C276.707 182.741 276.301 183.089 275.837 183.176C275.779 183.176 275.721 183.176 275.634 183.176ZM275.256 179.67C275.169 179.699 275.053 179.815 274.995 179.96C274.879 180.22 274.85 180.597 274.937 180.974C274.995 181.35 275.14 181.669 275.343 181.901C275.459 182.046 275.575 182.133 275.663 182.104C275.75 182.104 275.837 181.959 275.895 181.814C276.011 181.553 276.04 181.177 275.953 180.8C275.895 180.423 275.75 180.105 275.546 179.873C275.459 179.757 275.343 179.67 275.256 179.67Z" fill="black"/>
<path d="M286.927 180.743C287.511 180.644 287.853 179.784 287.69 178.822C287.527 177.859 286.921 177.159 286.336 177.258C285.752 177.356 285.41 178.217 285.573 179.179C285.736 180.142 286.342 180.842 286.927 180.743Z" fill="black"/>
<path d="M286.834 181.293C286.428 181.293 286.022 181.09 285.703 180.713C285.383 180.336 285.151 179.815 285.064 179.264C284.977 178.714 285.006 178.134 285.18 177.7C285.383 177.149 285.79 176.802 286.254 176.715C286.718 176.628 287.211 176.831 287.589 177.294C287.908 177.671 288.14 178.192 288.227 178.743C288.314 179.293 288.285 179.873 288.111 180.307C287.908 180.858 287.502 181.206 287.037 181.293C286.95 181.293 286.892 181.293 286.834 181.293ZM286.457 177.787C286.37 177.816 286.254 177.932 286.196 178.076C286.08 178.337 286.051 178.714 286.138 179.09C286.196 179.467 286.341 179.786 286.544 180.018C286.66 180.163 286.776 180.249 286.863 180.22C286.95 180.22 287.037 180.076 287.095 179.931C287.211 179.67 287.24 179.293 287.153 178.917C287.095 178.54 286.95 178.221 286.747 177.989C286.66 177.845 286.544 177.787 286.457 177.787Z" fill="black"/>
<path d="M281.118 189.637C279.028 189.637 276.997 188.913 275.343 187.609C275.111 187.435 275.082 187.087 275.256 186.856C275.459 186.624 275.779 186.595 276.011 186.769C277.839 188.217 280.189 188.855 282.452 188.449C284.745 188.073 286.747 186.711 287.995 184.74C288.14 184.48 288.488 184.422 288.749 184.567C289.01 184.712 289.068 185.059 288.923 185.32C287.53 187.551 285.238 189.087 282.656 189.521C282.133 189.608 281.64 189.637 281.118 189.637Z" fill="black"/>
</svg>
