<svg width="548" height="461" viewBox="0 0 548 461" fill="none" xmlns="http://www.w3.org/2000/svg">
<path d="M314.89 103.902C307.704 96.6031 303.268 86.5853 303.268 75.5331C303.268 53.1628 321.425 35.0183 343.812 35.0183C366.198 35.0183 384.356 53.1628 384.356 75.5331C384.356 97.9034 366.198 116.048 343.812 116.048C337.188 116.048 330.948 114.452 325.447 111.645L309.744 118.678C308.916 119.062 308.059 118.176 308.443 117.348L314.89 103.902Z" fill="#C2E4FF"/>
<path d="M309.33 119.239C309.537 119.239 309.744 119.21 309.922 119.121L325.418 112.177C331.155 115.073 337.365 116.521 343.812 116.521C366.435 116.521 384.829 98.1398 384.829 75.5331C384.829 52.9263 366.435 34.5454 343.812 34.5454C321.189 34.5454 302.795 52.9263 302.795 75.5331C302.795 86.2306 306.876 96.3076 314.328 103.991L308.029 117.141C307.763 117.703 307.881 118.353 308.295 118.796C308.561 119.092 308.946 119.239 309.33 119.239ZM325.447 111.113L309.537 118.235C309.241 118.382 309.005 118.176 308.946 118.116C308.886 118.057 308.709 117.821 308.857 117.525L315.452 103.784L315.215 103.548C307.822 96.0121 303.741 86.0533 303.741 75.5035C303.741 53.4287 321.721 35.4615 343.812 35.4615C365.903 35.4615 383.883 53.4287 383.883 75.5035C383.883 97.5783 365.903 115.546 343.812 115.546C337.424 115.546 331.332 114.068 325.654 111.201L325.447 111.113Z" fill="black"/>
<path d="M325.033 66.579H362.59V67.5247H325.033V66.579Z" fill="black"/>
<path d="M325.033 76.7447H362.59V77.6903H325.033V76.7447Z" fill="black"/>
<path d="M325.033 86.9103H362.59V87.8559H325.033V86.9103Z" fill="black"/>
<path d="M399.053 52.8377C427.68 52.8377 450.894 76.0354 450.894 104.641C450.894 118.767 445.216 131.562 436.049 140.93L444.24 158.099C444.743 159.163 443.649 160.286 442.584 159.784L422.534 150.8C415.466 154.405 407.511 156.444 399.053 156.444C370.427 156.444 347.213 133.247 347.213 104.641C347.213 76.0354 370.427 52.8377 399.053 52.8377Z" fill="white"/>
<path d="M443.117 160.375C443.56 160.375 444.004 160.198 444.359 159.843C444.861 159.311 445.009 158.543 444.684 157.892L436.581 140.989C446.104 131.178 451.338 118.294 451.338 104.612C451.338 75.799 427.887 52.3649 399.053 52.3649C370.22 52.3649 346.769 75.799 346.769 104.612C346.769 133.424 370.22 156.858 399.053 156.858C407.304 156.858 415.2 154.967 422.564 151.273L442.407 160.227C442.644 160.316 442.88 160.375 443.117 160.375ZM399.053 53.3105C427.384 53.3105 450.421 76.331 450.421 104.641C450.421 118.176 445.187 130.942 435.694 140.575L435.457 140.812L443.826 158.306C444.004 158.661 443.856 159.015 443.679 159.193C443.501 159.37 443.146 159.518 442.791 159.37L422.534 150.268L422.327 150.357C415.052 154.051 407.216 155.942 399.053 155.942C370.723 155.942 347.686 132.922 347.686 104.612C347.686 76.331 370.723 53.3105 399.053 53.3105Z" fill="black"/>
<path d="M374.981 93.3229H423.096V94.2686H374.981V93.3229Z" fill="black"/>
<path d="M374.981 106.326H423.096V107.271H374.981V106.326Z" fill="black"/>
<path d="M374.981 119.299H423.096V120.244H374.981V119.299Z" fill="black"/>
<path d="M349.164 90.486C349.164 90.486 342.954 101.184 345.29 116.048L348.425 115.782C348.425 115.782 345.616 104.05 349.164 90.486Z" fill="black"/>
<path d="M454.147 284.165L470.59 287.327C472.66 287.741 474.671 286.381 475.085 284.283L484.607 234.962C485.021 232.894 483.661 230.884 481.561 230.47L465.119 227.308C463.048 226.895 461.038 228.254 460.624 230.352L451.101 279.673C450.687 281.742 452.047 283.751 454.147 284.165Z" fill="#BFE3FF"/>
<path d="M471.299 287.859C472.157 287.859 472.985 287.593 473.695 287.12C474.641 286.47 475.292 285.495 475.499 284.372L485.021 235.051C485.228 233.928 484.991 232.775 484.37 231.83C483.72 230.884 482.744 230.234 481.62 230.027L465.178 226.865C464.054 226.658 462.901 226.895 461.954 227.515C461.008 228.165 460.357 229.141 460.15 230.264L450.628 279.585C450.421 280.708 450.658 281.86 451.279 282.806C451.929 283.751 452.905 284.401 454.029 284.608L470.471 287.77C470.767 287.829 471.033 287.859 471.299 287.859ZM464.379 227.722C464.586 227.722 464.823 227.752 465.03 227.781L481.443 230.943C482.33 231.121 483.099 231.623 483.602 232.362C484.104 233.1 484.282 234.017 484.104 234.874L474.582 284.195C474.404 285.081 473.902 285.85 473.162 286.352C472.423 286.854 471.506 287.032 470.649 286.884L454.236 283.692C453.349 283.515 452.58 283.013 452.077 282.274C451.574 281.535 451.397 280.619 451.574 279.762L461.097 230.441C461.274 229.554 461.777 228.786 462.516 228.284C463.078 227.899 463.729 227.722 464.379 227.722Z" fill="black"/>
<path d="M447.552 212.74C437.527 197.432 445.157 192.822 441.253 184.961C437.971 178.342 430.696 179.524 426.142 189.956C424.338 194.122 423.569 201.067 423.569 204.524C423.599 219.182 413.13 215.636 405.204 214.306C396.954 212.917 389.708 210.878 385.864 213.124C377.436 218.059 384.858 224.531 382.552 229.495C380.245 234.46 381.901 236.913 382.936 239.484C384.592 243.65 382.345 244.153 382.079 249.472C381.812 254.762 383.261 254.555 384.149 258.012C385.065 261.47 382.818 265.164 391.424 271.103C398.639 276.098 413.633 277.457 426.26 279.91C431.08 280.826 435.457 280.767 439.036 280.323C444.625 279.644 448.913 276.009 449.859 271.222L457.844 229.82C458.406 226.924 457.666 223.94 455.833 221.369C454.029 218.886 450.066 216.611 447.552 212.74Z" fill="#BFE3FF"/>
<path d="M433.919 281.151C435.635 281.151 437.35 281.033 439.065 280.826C444.832 280.117 449.327 276.304 450.273 271.34L458.258 229.939C458.82 226.954 458.08 223.821 456.158 221.132C455.36 220.009 454.147 218.945 452.876 217.822C451.219 216.345 449.327 214.661 447.907 212.503C441.874 203.283 442.318 198.112 442.732 193.531C442.998 190.665 443.235 187.946 441.638 184.755C440.218 181.888 438.06 180.351 435.516 180.411C431.879 180.499 428.212 184.016 425.698 189.778C423.894 193.916 423.096 200.89 423.096 204.554C423.096 209.016 422.15 212.001 420.168 213.626C417.181 216.109 412.331 215.192 407.629 214.306C406.831 214.158 406.032 214.01 405.264 213.863C403.726 213.597 402.247 213.331 400.798 213.065C394.41 211.883 388.91 210.848 385.627 212.769C380.068 216.02 381.073 220.039 381.931 223.555C382.433 225.654 382.936 227.634 382.108 229.347C379.979 233.928 381.103 236.528 382.108 238.804C382.226 239.099 382.374 239.424 382.493 239.72C383.409 242.025 383.084 243.089 382.552 244.714C382.197 245.867 381.724 247.285 381.605 249.531C381.428 253.107 382.019 254.289 382.7 255.648C383.054 256.357 383.409 257.067 383.705 258.219C383.912 258.958 383.942 259.726 384.001 260.554C384.149 263.509 384.356 266.848 391.187 271.576C396.835 275.477 407.245 277.221 417.3 278.875C420.257 279.378 423.303 279.88 426.201 280.442C428.715 280.885 431.317 281.151 433.919 281.151ZM435.694 181.327C437.793 181.327 439.597 182.686 440.839 185.168C442.289 188.094 442.081 190.576 441.845 193.443C441.46 197.934 440.958 203.52 447.168 213.006C448.647 215.252 450.569 216.966 452.284 218.502C453.526 219.596 454.679 220.63 455.419 221.664C457.193 224.146 457.873 227.042 457.341 229.761L449.356 271.163C448.469 275.743 444.299 279.23 438.947 279.91C434.718 280.442 430.459 280.294 426.319 279.496C423.421 278.935 420.375 278.432 417.388 277.93C407.422 276.275 397.131 274.561 391.66 270.778C385.213 266.316 385.036 263.213 384.888 260.465C384.829 259.608 384.799 258.781 384.563 257.953C384.237 256.712 383.823 255.914 383.498 255.205C382.847 253.905 382.345 252.9 382.522 249.561C382.64 247.462 383.054 246.133 383.409 245.01C383.942 243.325 384.385 241.995 383.321 239.395C383.202 239.07 383.054 238.774 382.936 238.449C381.99 236.233 380.984 233.958 382.936 229.761C383.883 227.722 383.321 225.506 382.818 223.349C381.96 219.832 381.132 216.493 386.071 213.597C389.058 211.853 394.41 212.858 400.621 214.01C402.07 214.276 403.578 214.572 405.116 214.808C405.885 214.926 406.653 215.074 407.452 215.222C412.124 216.109 417.447 217.113 420.76 214.365C422.978 212.533 424.042 209.341 424.042 204.554C424.042 201.008 424.811 194.181 426.556 190.163C428.922 184.725 432.293 181.415 435.546 181.356C435.605 181.327 435.635 181.327 435.694 181.327Z" fill="black"/>
<path d="M220.701 179.613C220.908 173.643 221.972 166.965 224.013 163.005C226.053 159.045 233.476 153.253 237.291 150.268C241.106 147.313 242.791 144.919 242.791 144.919C242.791 144.919 242.969 144.919 243.679 145.54C244.388 146.161 249.09 147.106 254.384 146.161C259.677 145.215 262.25 143.087 263.847 141.226C265.444 139.364 264.38 137.679 264.38 137.679C266.272 137.473 273.488 133.779 280.171 133.099C286.855 132.419 296.2 135.995 296.436 136.084C296.673 136.143 340.292 149.382 340.292 149.382L313.056 165.458L297.383 161.911C297.383 161.911 299.63 167.083 300.34 168.679C301.05 170.274 302.854 171.131 302.854 171.131L243.087 205.706L221.115 214.513C220.937 213.065 220.967 212.09 220.996 212.09C221.026 212.09 220.494 185.553 220.701 179.613Z" fill="#BFE3FF"/>
<path d="M211.917 223.792L376.578 128.814C380.955 126.302 386.544 127.78 389.058 132.153L407.777 164.571C410.291 168.945 408.812 174.53 404.435 177.042L297.116 238.952L276.593 250.772L239.745 272.02C235.369 274.531 229.779 273.054 227.266 268.68L208.546 236.262C206.062 231.889 207.541 226.304 211.917 223.792Z" fill="white"/>
<path d="M235.221 273.704C236.847 273.704 238.503 273.29 240.011 272.433L276.859 251.186L276.386 250.388L239.538 271.635C235.398 274.029 230.105 272.611 227.709 268.473L208.99 236.056C207.836 234.046 207.511 231.712 208.132 229.495C208.724 227.249 210.173 225.388 212.154 224.235L376.815 129.257C380.955 126.864 386.248 128.282 388.644 132.419L407.363 164.837C408.516 166.847 408.842 169.181 408.221 171.397C407.629 173.643 406.18 175.505 404.199 176.658L296.88 238.568L297.353 239.365L404.672 177.426C406.89 176.155 408.487 174.087 409.137 171.604C409.788 169.122 409.463 166.551 408.191 164.335L389.472 131.917C386.84 127.336 380.955 125.77 376.371 128.4L211.71 223.378C209.493 224.649 207.896 226.717 207.245 229.2C206.594 231.682 206.92 234.253 208.191 236.469L226.911 268.887C228.685 271.99 231.909 273.704 235.221 273.704Z" fill="black"/>
<path d="M337.187 215.813L370.989 244.389L382.197 253.727C382.197 253.727 388.289 259.608 391.128 265.755C393.967 271.901 399.793 291.021 399.793 291.021L411.592 331.329C411.592 331.329 418.66 357.216 418.483 358.782C418.305 360.348 418.098 360.614 417.477 361.264C416.856 361.915 410.882 367.914 401.005 371.696C391.128 375.479 382.995 374.917 381.31 374.533C379.624 374.149 379.003 373.321 377.879 370.484C376.726 367.677 372.763 355.916 371.699 350.596C370.634 345.277 364.128 317.765 364.128 317.765L358.687 293.09C358.687 293.09 356.794 285.79 355.996 284.224C355.197 282.658 338.873 266.966 338.873 266.966L321.691 250.861L328.375 278.048C328.375 278.048 331.214 289.75 331.539 295.336C331.864 300.921 330.622 303.255 329.912 304.999C329.203 306.742 315.392 334.934 315.392 334.934L292.414 375.567C292.414 375.567 288.422 381.537 287.446 381.803C286.47 382.069 278.752 380.177 271.566 376.129C264.38 372.11 256.07 365.52 255.035 361.974C253.999 358.428 254.059 357.807 254.828 356.182C255.626 354.527 269.584 330.561 269.584 330.561L283.868 305.294C283.868 305.294 287.624 297.907 287.831 296.163C288.008 294.39 286.529 283.929 284.903 278.078C283.276 272.226 277.007 255.619 277.007 255.619L275.262 251.895C275.262 251.895 277.391 250.713 277.273 250.624C277.096 250.506 337.187 215.813 337.187 215.813Z" fill="#3380B0"/>
<path d="M259.441 114.511C259.441 114.511 259.944 113.093 259.796 110.906C259.648 108.719 258.879 104.73 258.879 104.73C258.879 104.73 262.309 104.582 261.807 103.282C261.807 103.282 260.358 102.159 259.323 100.149C258.317 98.1398 256.779 96.7214 253.881 94.239C250.953 91.7863 248.795 91.343 243.058 91.7567C243.058 91.7567 240.189 92.2296 238.474 92.4955C236.788 92.7615 233.18 93.8549 229.306 95.7166C225.462 97.5783 222.8 102.779 222.712 104.848C222.623 106.887 223.066 107.921 222.623 109.133C222.179 110.344 220.227 113.595 221.44 117.851C222.652 122.106 226.408 127.277 230.223 129.139C234.038 131.001 257.962 124.293 259.441 114.511Z" fill="#976566"/>
<path d="M256.04 106.326C256.099 106.414 259.352 116.668 259.352 116.668C259.352 116.668 262.516 123.022 261.067 128.046C259.589 133.069 258.731 135.522 257.755 136.35C257.755 136.35 258.908 138.714 259.322 138.625C259.736 138.536 264.35 138.034 264.35 138.034C264.35 138.034 265.651 141.757 259.648 144.742C253.644 147.727 246.015 146.397 244.507 146.102C242.998 145.806 242.466 145.097 242.466 145.097C242.466 145.097 243.619 144.122 243.057 142.349C242.466 140.575 239.154 134.34 239.154 134.34C239.154 134.34 235.605 135.168 232.796 133.129C229.957 131.06 229.838 129.198 229.838 127.78C229.838 126.361 230.903 124.825 232.53 124.972C234.156 125.12 234.511 125.445 234.511 125.445C234.511 125.445 235.576 123.495 234.748 120.983C233.92 118.501 233.18 116.875 233.358 114.836C233.535 112.768 233.979 111.054 233.979 111.054C233.979 111.054 232.559 106.148 237.084 105.528C241.608 104.907 243.471 107.33 246.222 107.567C248.972 107.803 251.426 105.823 251.426 105.823C251.426 105.823 255.508 105.321 256.04 106.326Z" fill="#FFCDB4"/>
<path d="M271.743 233.632C271.743 233.632 282.714 233.248 286.056 233.012C288.659 232.805 292.592 234.726 294.218 235.612C294.81 235.937 295.342 236.647 294.396 237.179C294.041 237.385 293.627 237.681 292.947 237.888C292.947 237.888 296.495 238.804 297.028 239.247C297.53 239.69 297.737 240.784 297.028 241.198C296.318 241.611 294.78 241.729 294.78 241.729C294.78 241.729 295.933 242.646 294.573 243.414C293.242 244.182 291.557 244.773 291.557 244.773C291.557 244.773 289.96 246.251 288.422 246.724C288.422 246.724 288.215 247.728 286.322 248.704C284.43 249.679 281.325 250.565 279.254 250.831C277.184 251.097 269.584 249.029 267.78 248.319C265.976 247.61 263.699 247.108 263.699 247.108C263.699 247.108 267.573 242.586 269.436 238.893C271.299 235.11 271.743 233.632 271.743 233.632Z" fill="#FFCDB4"/>
<path d="M410.202 367.056L413.958 375.833C413.958 375.833 411.799 376.572 409.729 378.907C407.659 381.241 404.731 382.866 401.952 382.955C399.172 383.044 397.368 382.6 396.214 382.009C395.061 381.418 394.588 380.886 394.588 380.886L392.4 374.533C392.37 374.503 404.613 371.844 410.202 367.056Z" fill="#FFCDB4"/>
<path d="M273.251 376.868C273.251 376.868 268.786 384.314 268.165 387.358C268.165 387.358 262.664 387.89 258.938 385.881C255.212 383.871 252.609 377.754 252.462 377.902C252.314 378.02 257.341 365.136 257.341 365.136C257.341 365.136 265.444 374.09 273.251 376.868Z" fill="#FFCDB4"/>
<path d="M337.187 215.813L341.268 218.532C341.268 218.532 338.725 218.384 332.219 220.689C328.996 221.842 305.84 235.819 297.915 240.134L296.998 239.218L337.187 215.813Z" fill="black"/>
<path d="M410.202 367.056L410.971 369.568C410.971 369.568 401.153 376.808 392.843 375.922L392.34 374.503C392.37 374.503 406.387 370.484 410.202 367.056Z" fill="black"/>
<path d="M273.251 376.868C273.665 376.897 271.27 380.561 271.27 380.561C271.27 380.561 265.976 374.858 262.132 371.578C258.287 368.298 256.365 368.327 256.365 368.327L257.519 365.668C257.489 365.668 268.165 376.395 273.251 376.868Z" fill="black"/>
<path d="M294.573 244.094C294.455 243.946 286.293 249.561 283.158 252.397C280.024 255.234 278.308 258.219 278.16 258.249C278.013 258.278 275.233 251.836 275.233 251.836L277.244 250.565C277.244 250.565 282.241 250.595 285.199 249.147C288.156 247.699 287.653 247.374 287.653 247.374C287.653 247.374 291.172 246.783 291.527 244.714L294.573 244.094Z" fill="black"/>
<path d="M246.133 181.622C246.133 181.622 246.222 194.772 247.109 198.26C247.996 201.747 248.943 202.397 248.943 202.397L243.058 205.677L246.133 181.622Z" fill="black"/>
<path d="M290.995 148.141C291.232 148.466 296.762 158.04 298.861 160.168C300.961 162.296 302.587 163.064 302.587 163.064L296.791 161.823C296.762 161.852 289.753 146.397 290.995 148.141Z" fill="black"/>
<path d="M276.534 250.802L273.902 252.309C273.902 252.309 265.237 249.59 264.498 249.561C263.758 249.531 262.457 252.191 260.21 252.309C257.962 252.427 240.692 239.099 240.692 239.099C240.692 239.099 256.306 249.945 258.908 250.506C261.481 251.068 263.699 247.049 263.699 247.049C263.699 247.049 273.843 250.802 276.534 250.802Z" fill="black"/>
<path d="M221.292 218.384C221.204 218.177 219.784 219.655 219.784 219.655C219.784 219.655 223.747 226.245 232.264 231.505C232.264 231.505 223.599 224.235 221.292 218.384Z" fill="black"/>
<path d="M359.456 155.085L360.668 160.818C360.816 161.557 360.491 162.296 359.84 162.65L354.754 165.576C353.305 166.403 353.778 168.59 355.434 168.767L361.26 169.388C361.999 169.477 362.59 170.009 362.768 170.747L363.98 176.48C364.335 178.106 366.553 178.342 367.233 176.805L369.629 171.457C369.924 170.777 370.634 170.363 371.373 170.452L377.199 171.072C378.855 171.25 379.772 169.211 378.53 168.088L374.153 164.157C373.591 163.655 373.444 162.857 373.739 162.177L376.135 156.829C376.815 155.322 375.159 153.814 373.71 154.642L368.623 157.567C367.973 157.952 367.174 157.863 366.612 157.361L362.235 153.43C361.053 152.337 359.101 153.46 359.456 155.085Z" fill="#FFD953"/>
<path d="M365.725 178.312C366.583 178.312 367.351 177.81 367.706 177.012L370.102 171.663C370.309 171.161 370.841 170.866 371.373 170.925L377.199 171.545C378.175 171.634 379.033 171.131 379.417 170.274C379.802 169.388 379.595 168.413 378.885 167.763L374.508 163.832C374.094 163.478 373.976 162.887 374.212 162.414L376.608 157.065C376.992 156.179 376.785 155.203 376.075 154.553C375.366 153.903 374.36 153.814 373.532 154.287L368.446 157.213C367.972 157.479 367.381 157.42 366.997 157.065L362.62 153.135C361.91 152.485 360.905 152.396 360.077 152.869C359.249 153.342 358.835 154.258 359.042 155.203L360.254 160.936C360.372 161.468 360.136 162 359.663 162.266L354.576 165.192C353.748 165.664 353.334 166.581 353.541 167.526C353.748 168.472 354.487 169.152 355.463 169.24L361.289 169.861C361.821 169.92 362.265 170.304 362.383 170.836L363.596 176.569C363.803 177.515 364.542 178.194 365.518 178.283C365.548 178.312 365.636 178.312 365.725 178.312ZM371.225 169.979C370.368 169.979 369.599 170.481 369.244 171.279L366.849 176.628C366.583 177.249 366.021 177.396 365.577 177.367C365.133 177.308 364.631 177.042 364.483 176.392L363.27 170.659C363.063 169.743 362.295 169.033 361.348 168.945L355.522 168.324C354.872 168.265 354.517 167.763 354.428 167.349C354.339 166.935 354.458 166.344 355.02 166.019L360.106 163.094C360.934 162.621 361.348 161.675 361.141 160.759L359.929 155.026C359.781 154.376 360.136 153.903 360.52 153.696C360.905 153.489 361.496 153.401 361.969 153.844L366.346 157.774C367.056 158.395 368.091 158.513 368.889 158.04L373.976 155.115C374.567 154.79 375.099 154.967 375.425 155.262C375.75 155.558 376.016 156.09 375.721 156.681L373.325 162.03C372.941 162.887 373.148 163.891 373.857 164.542L378.234 168.472C378.737 168.915 378.707 169.506 378.53 169.92C378.352 170.334 377.938 170.718 377.258 170.659L371.432 170.038C371.373 169.979 371.285 169.979 371.225 169.979Z" fill="black"/>
<path d="M328.67 172.875L329.883 178.608C330.031 179.347 329.706 180.086 329.055 180.44L323.968 183.366C322.519 184.193 322.993 186.38 324.649 186.557L330.474 187.178C331.214 187.266 331.805 187.798 331.983 188.537L333.195 194.27C333.55 195.895 335.768 196.132 336.448 194.595L338.843 189.246C339.139 188.567 339.849 188.153 340.588 188.242L346.414 188.862C348.07 189.04 348.987 187.001 347.745 185.878L343.368 181.947C342.806 181.445 342.658 180.647 342.954 179.967L345.349 174.619C346.03 173.111 344.374 171.604 342.924 172.432L337.838 175.357C337.187 175.741 336.389 175.653 335.827 175.15L331.45 171.22C330.267 170.127 328.345 171.25 328.67 172.875Z" fill="#FFD953"/>
<path d="M334.94 196.102C335.797 196.102 336.566 195.6 336.921 194.802L339.317 189.453C339.524 188.951 340.056 188.655 340.588 188.714L346.414 189.335C347.36 189.424 348.247 188.921 348.632 188.064C349.016 187.178 348.809 186.203 348.1 185.552L343.723 181.622C343.309 181.268 343.191 180.677 343.427 180.174L345.823 174.825C346.207 173.939 346 172.964 345.29 172.314C344.58 171.663 343.575 171.575 342.747 172.048L337.66 174.973C337.187 175.239 336.596 175.18 336.211 174.825L331.835 170.895C331.125 170.245 330.119 170.156 329.291 170.629C328.463 171.102 328.049 172.018 328.256 172.964L329.469 178.697C329.587 179.229 329.351 179.76 328.877 180.026L323.791 182.952C322.963 183.425 322.549 184.341 322.756 185.287C322.963 186.232 323.702 186.912 324.678 187L330.504 187.621C331.036 187.68 331.48 188.064 331.598 188.596L332.811 194.329C333.018 195.275 333.757 195.955 334.733 196.043C334.792 196.102 334.851 196.102 334.94 196.102ZM340.44 187.769C339.583 187.769 338.814 188.271 338.459 189.069L336.064 194.418C335.797 195.038 335.236 195.216 334.792 195.157C334.348 195.098 333.846 194.832 333.698 194.181L332.485 188.449C332.278 187.532 331.509 186.823 330.563 186.735L324.737 186.114C324.087 186.055 323.732 185.552 323.643 185.139C323.554 184.696 323.673 184.134 324.234 183.809L329.321 180.883C330.149 180.411 330.563 179.465 330.356 178.549L329.144 172.816C328.996 172.166 329.351 171.693 329.735 171.486C330.119 171.279 330.681 171.191 331.184 171.634L335.561 175.564C336.271 176.185 337.306 176.303 338.104 175.83L343.191 172.905C343.782 172.579 344.314 172.757 344.64 173.052C344.965 173.348 345.231 173.88 344.935 174.471L342.54 179.82C342.156 180.677 342.363 181.681 343.072 182.331L347.449 186.262C347.952 186.705 347.922 187.296 347.745 187.68C347.567 188.094 347.124 188.478 346.473 188.419L340.647 187.798C340.588 187.769 340.529 187.769 340.44 187.769Z" fill="black"/>
<path d="M297.915 190.665L299.127 196.398C299.275 197.137 298.95 197.875 298.299 198.23L293.213 201.156C291.764 201.983 292.237 204.17 293.893 204.347L299.719 204.968C300.458 205.056 301.05 205.588 301.227 206.327L302.439 212.06C302.794 213.685 305.012 213.922 305.692 212.385L308.088 207.036C308.384 206.357 309.093 205.943 309.833 206.032L315.658 206.652C317.315 206.829 318.231 204.79 316.989 203.667L312.612 199.737C312.051 199.235 311.903 198.437 312.198 197.757L314.594 192.408C315.274 190.901 313.618 189.394 312.169 190.222L307.082 193.147C306.432 193.531 305.633 193.443 305.071 192.94L300.695 189.01C299.512 187.917 297.56 189.04 297.915 190.665Z" fill="#FFD953"/>
<path d="M304.155 213.892C305.012 213.892 305.781 213.39 306.136 212.592L308.531 207.243C308.738 206.741 309.271 206.445 309.803 206.504L315.629 207.125C316.575 207.243 317.462 206.711 317.847 205.854C318.231 204.968 318.024 203.993 317.314 203.342L312.938 199.412C312.524 199.057 312.405 198.466 312.642 197.964L315.037 192.615C315.422 191.729 315.215 190.754 314.505 190.103C313.795 189.453 312.79 189.365 311.962 189.837L306.875 192.763C306.402 193.029 305.811 192.97 305.426 192.615L301.049 188.685C300.34 188.035 299.334 187.946 298.506 188.419C297.678 188.892 297.264 189.808 297.471 190.754L298.684 196.486C298.802 197.018 298.565 197.55 298.092 197.816L293.006 200.742C292.178 201.215 291.764 202.131 291.971 203.076C292.178 204.022 292.917 204.702 293.893 204.79L299.719 205.411C300.251 205.47 300.695 205.854 300.813 206.386L302.025 212.119C302.232 213.065 302.972 213.744 303.948 213.833C304.007 213.892 304.095 213.892 304.155 213.892ZM309.685 205.559C308.827 205.559 308.058 206.061 307.703 206.859L305.308 212.208C305.042 212.828 304.48 212.976 304.036 212.947C303.593 212.887 303.09 212.621 302.942 211.971L301.73 206.238C301.523 205.322 300.754 204.613 299.807 204.524L293.982 203.904C293.331 203.845 292.976 203.342 292.887 202.929C292.799 202.515 292.917 201.924 293.479 201.599L298.565 198.673C299.393 198.2 299.807 197.255 299.6 196.339L298.388 190.606C298.24 189.956 298.595 189.483 298.979 189.276C299.364 189.069 299.926 188.98 300.428 189.424L304.805 193.354C305.515 193.975 306.55 194.093 307.348 193.62L312.435 190.694C313.026 190.369 313.559 190.547 313.884 190.842C314.209 191.138 314.475 191.67 314.18 192.29L311.784 197.639C311.4 198.496 311.607 199.501 312.317 200.151L316.693 204.081C317.196 204.524 317.167 205.115 316.989 205.5C316.812 205.913 316.398 206.298 315.718 206.238L309.892 205.618C309.833 205.559 309.744 205.559 309.685 205.559Z" fill="black"/>
<path d="M267.13 208.425L268.342 214.158C268.49 214.897 268.165 215.636 267.514 215.99L262.428 218.916C260.979 219.743 261.452 221.93 263.108 222.107L268.934 222.728C269.673 222.817 270.265 223.349 270.442 224.087L271.655 229.82C272.009 231.446 274.227 231.682 274.908 230.145L277.303 224.797C277.599 224.117 278.308 223.703 279.048 223.792L284.874 224.412C286.53 224.59 287.446 222.551 286.204 221.428L281.828 217.497C281.266 216.995 281.118 216.197 281.414 215.517L283.809 210.169C284.489 208.662 282.833 207.154 281.384 207.982L276.297 210.907C275.647 211.292 274.848 211.203 274.287 210.701L269.91 206.77C268.727 205.706 266.775 206.8 267.13 208.425Z" fill="#FFD953"/>
<path d="M273.399 231.653C274.257 231.653 275.026 231.15 275.381 230.352L277.776 225.003C277.983 224.501 278.515 224.206 279.048 224.265L284.873 224.885C285.849 224.974 286.707 224.472 287.091 223.615C287.476 222.728 287.269 221.753 286.559 221.103L282.182 217.172C281.768 216.818 281.65 216.227 281.887 215.754L284.282 210.405C284.666 209.519 284.459 208.543 283.75 207.893C283.04 207.243 282.034 207.154 281.206 207.627L276.12 210.553C275.647 210.819 275.055 210.76 274.671 210.405L270.294 206.475C269.584 205.825 268.579 205.736 267.751 206.209C266.923 206.682 266.509 207.598 266.716 208.543L267.928 214.276C268.047 214.808 267.81 215.34 267.337 215.606L262.25 218.532C261.422 219.005 261.008 219.921 261.215 220.866C261.422 221.812 262.162 222.492 263.138 222.58L268.963 223.201C269.496 223.26 269.939 223.644 270.058 224.176L271.27 229.909C271.477 230.855 272.216 231.534 273.192 231.623C273.222 231.652 273.311 231.653 273.399 231.653ZM278.9 223.319C278.042 223.319 277.273 223.821 276.918 224.619L274.523 229.968C274.257 230.589 273.695 230.736 273.251 230.707C272.808 230.648 272.305 230.382 272.157 229.732L270.945 223.999C270.738 223.083 269.969 222.373 269.022 222.285L263.197 221.664C262.546 221.605 262.191 221.103 262.103 220.689C262.014 220.275 262.132 219.684 262.694 219.359L267.78 216.434C268.608 215.961 269.023 215.015 268.815 214.099L267.603 208.366C267.455 207.716 267.81 207.243 268.194 207.036C268.579 206.829 269.17 206.741 269.644 207.184L274.02 211.114C274.73 211.735 275.765 211.853 276.564 211.38L281.65 208.455C282.241 208.13 282.774 208.307 283.099 208.603C283.424 208.898 283.691 209.43 283.395 210.021L280.999 215.37C280.615 216.227 280.822 217.231 281.532 217.882L285.909 221.812C286.411 222.255 286.382 222.846 286.204 223.26C286.027 223.674 285.613 224.058 284.933 223.999L279.107 223.378C279.048 223.349 278.988 223.319 278.9 223.319Z" fill="black"/>
<path d="M236.374 226.215L237.587 231.948C237.735 232.687 237.409 233.426 236.759 233.78L231.672 236.706C230.223 237.533 230.696 239.72 232.352 239.897L238.178 240.518C238.918 240.607 239.509 241.138 239.686 241.877L240.899 247.61C241.254 249.235 243.472 249.472 244.152 247.935L246.547 242.586C246.843 241.907 247.553 241.493 248.292 241.582L254.118 242.202C255.774 242.38 256.691 240.341 255.449 239.218L251.072 235.287C250.51 234.785 250.362 233.987 250.658 233.307L253.053 227.959C253.733 226.451 252.077 224.944 250.628 225.772L245.542 228.697C244.891 229.082 244.093 228.993 243.531 228.49L239.154 224.56C237.942 223.467 236.019 224.59 236.374 226.215Z" fill="#FFD953"/>
<path d="M242.614 249.442C243.472 249.442 244.241 248.94 244.595 248.142L246.991 242.793C247.198 242.291 247.73 241.995 248.262 242.055L254.088 242.675C255.035 242.764 255.922 242.261 256.306 241.404C256.691 240.518 256.484 239.543 255.774 238.893L251.397 234.962C250.983 234.608 250.865 234.017 251.101 233.514L253.497 228.165C253.881 227.279 253.674 226.304 252.965 225.654C252.255 225.003 251.249 224.915 250.421 225.388L245.335 228.313C244.862 228.579 244.27 228.52 243.886 228.165L239.509 224.235C238.799 223.585 237.794 223.496 236.966 223.969C236.138 224.442 235.724 225.358 235.931 226.304L237.143 232.037C237.261 232.569 237.025 233.101 236.552 233.366L231.465 236.292C230.637 236.765 230.223 237.681 230.43 238.627C230.637 239.572 231.376 240.252 232.352 240.341L238.178 240.961C238.711 241.02 239.154 241.404 239.272 241.936L240.485 247.669C240.692 248.615 241.431 249.295 242.407 249.383C242.466 249.442 242.525 249.442 242.614 249.442ZM248.115 241.109C247.257 241.109 246.488 241.611 246.133 242.409L243.738 247.758C243.472 248.379 242.91 248.556 242.466 248.497C242.023 248.438 241.52 248.172 241.372 247.522L240.16 241.789C239.953 240.872 239.184 240.163 238.237 240.075L232.412 239.454C231.761 239.395 231.406 238.893 231.317 238.479C231.229 238.036 231.347 237.474 231.909 237.149L236.995 234.223C237.823 233.751 238.237 232.805 238.03 231.889L236.818 226.156C236.67 225.506 237.025 225.033 237.409 224.826C237.794 224.619 238.385 224.531 238.858 224.974L243.235 228.904C243.945 229.525 244.98 229.643 245.778 229.17L250.865 226.245C251.456 225.92 251.989 226.097 252.314 226.392C252.639 226.688 252.905 227.22 252.61 227.811L250.214 233.16C249.83 234.017 250.037 235.021 250.747 235.671L255.123 239.602C255.626 240.045 255.596 240.636 255.419 241.02C255.242 241.434 254.828 241.818 254.147 241.759L248.322 241.138C248.292 241.109 248.203 241.109 248.115 241.109Z" fill="black"/>
<path d="M221.085 214.513C221.263 216.168 221.706 218.443 222.623 220.453C224.338 224.265 236.108 234.696 236.108 234.696C236.108 234.696 248.676 244.419 252.964 247.551C257.252 250.684 258.909 251.541 260.003 250.772C261.067 249.974 263.463 248.556 265.917 244.566C268.372 240.577 271.713 234.755 271.773 233.573C271.832 232.391 271.654 232.864 269.939 231.446C268.254 230.057 263.877 228.579 260.979 225.358C258.08 222.137 245.423 210.848 245.423 210.848C245.423 210.848 242.998 208.691 242.91 207.627C242.821 206.563 243.087 205.647 243.087 205.647L243.649 201.185L220.996 210.819L221.085 214.513Z" fill="#BFE3FF"/>
<path d="M337.838 215.37C341.357 218.443 344.876 221.487 348.425 224.531C355.759 230.855 363.122 237.149 370.516 243.384C373.798 246.162 377.022 249.058 380.422 251.688C382.463 253.254 384.326 255.028 385.982 257.007C388.821 260.406 391.187 264.248 392.843 268.355C393.464 269.892 393.996 271.428 394.529 272.995C396.303 278.196 397.959 283.426 399.585 288.686C401.715 295.572 403.785 302.457 405.825 309.372C407.925 316.524 409.995 323.705 412.006 330.886C413.662 336.855 415.318 342.854 416.826 348.853C417.654 352.192 418.689 355.62 419.015 359.048C419.103 360.112 418.63 360.673 417.891 361.471C415.85 363.628 413.425 365.461 410.971 367.116C403.105 372.376 393.612 375.892 384.06 375.242C382.936 375.183 381.724 375.124 380.629 374.828C380.452 374.769 380.275 374.681 380.097 374.592C379.683 374.326 379.328 373.942 379.032 373.528C378.145 372.346 377.554 370.928 376.962 369.568C375.04 364.899 373.68 359.994 372.379 355.147C370.634 348.616 369.067 342.026 367.558 335.437C365.961 328.462 364.453 321.488 362.945 314.514C361.644 308.515 360.372 302.487 359.012 296.488C358.184 292.824 357.444 289.041 356.232 285.465C356.084 285.022 355.966 284.727 355.818 284.402C355.788 284.342 355.759 284.283 355.729 284.224C355.641 284.076 355.788 284.283 355.67 284.165C355.522 283.958 355.345 283.781 355.167 283.604C353.777 282.126 352.328 280.708 350.879 279.289C346.029 274.472 341.12 269.744 336.211 264.986C331.953 260.849 327.694 256.742 323.406 252.634C322.726 251.984 322.046 251.334 321.366 250.654C320.922 250.24 321.602 249.561 322.016 250.004C324.56 252.427 327.073 254.88 329.587 257.303C334.614 262.149 339.671 267.025 344.669 271.901C348.395 275.536 352.181 279.112 355.759 282.894C356.38 283.545 356.735 284.106 357.06 284.993C357.533 286.322 357.859 287.682 358.213 289.041C359.426 293.858 360.461 298.704 361.525 303.551C362.945 310.082 364.335 316.642 365.784 323.202C367.292 330.147 368.86 337.062 370.516 343.947C371.965 349.946 373.473 355.945 375.277 361.855C375.957 364.072 376.667 366.259 377.495 368.416C378.057 369.864 378.678 371.371 379.535 372.671C379.801 373.085 380.038 373.41 380.422 373.735C380.393 373.705 380.807 373.942 380.718 373.912C381.517 374.178 382.433 374.178 383.261 374.267C388.407 374.74 393.612 373.942 398.491 372.287C402.72 370.869 406.742 368.8 410.439 366.318C412.864 364.692 415.259 362.89 417.27 360.732C417.507 360.466 417.714 360.201 417.921 359.935C417.95 359.905 418.098 359.639 418.039 359.757C418.009 359.846 418.039 359.61 418.039 359.787C418.039 359.462 418.039 359.137 417.98 358.782C417.832 357.57 417.477 356.034 417.181 354.734C416.057 349.739 414.727 344.775 413.396 339.84C411.562 333.072 409.67 326.335 407.748 319.597C405.707 312.446 403.607 305.294 401.449 298.172C399.585 292.026 397.693 285.85 395.741 279.732C394.529 275.95 393.346 272.108 391.837 268.444C389.353 262.327 385.184 256.476 379.831 252.368C378.086 251.038 376.401 249.531 374.715 248.113C372.822 246.517 370.93 244.921 369.037 243.325C365.193 240.075 361.378 236.824 357.563 233.544C351.648 228.49 345.763 223.408 339.878 218.325C338.962 217.527 338.074 216.759 337.158 215.961C336.714 215.636 337.394 214.986 337.838 215.37Z" fill="black"/>
<path d="M318.379 236.322C320.627 244.035 322.578 251.866 324.471 259.667C325.388 263.42 326.275 267.173 327.133 270.956C328.227 275.654 329.498 280.294 330.504 284.993C331.509 289.691 332.337 294.597 332.012 299.414C331.953 300.33 331.716 301.187 331.421 302.073C330.445 305.176 329.084 308.19 327.754 311.145C325.802 315.46 323.702 319.745 321.573 323.971C319.059 328.965 316.457 333.929 313.825 338.865C311.134 343.888 308.413 348.882 305.633 353.877C303.12 358.368 300.606 362.831 298.004 367.234C296.022 370.573 294.041 373.912 291.941 377.193C291.261 378.227 290.581 379.261 289.842 380.266C289.428 380.827 289.014 381.448 288.452 381.891C287.446 382.719 285.672 382.246 284.578 381.98C281.739 381.359 279.018 380.236 276.386 379.025C269.91 376.099 263.433 372.346 258.554 367.116C256.691 365.106 254.118 362.683 253.852 359.757C253.733 358.398 254 356.861 254.561 355.591C255.744 352.961 257.282 350.478 258.731 347.996C261.215 343.741 263.729 339.515 266.243 335.259C269.17 330.324 272.068 325.36 274.937 320.395C277.569 315.844 280.142 311.293 282.596 306.654C284.223 303.58 285.968 300.448 287.062 297.138C287.417 296.074 287.476 295.454 287.357 294.331C287.15 292.055 286.825 289.809 286.441 287.593C285.14 280.058 283.099 272.64 280.497 265.459C278.811 260.82 276.889 256.298 274.7 251.866C274.434 251.334 275.233 250.861 275.499 251.393C279.521 259.638 282.774 268.296 285.11 277.191C286.559 282.688 287.653 288.302 288.215 293.947C288.333 295.07 288.363 295.956 288.038 297.049C287.653 298.379 287.062 299.65 286.5 300.891C284.696 304.851 282.596 308.663 280.497 312.475C277.806 317.322 275.055 322.109 272.246 326.896C269.466 331.654 266.657 336.382 263.847 341.14C261.688 344.804 259.5 348.469 257.43 352.192C256.809 353.315 256.158 354.438 255.596 355.591C255.123 356.536 254.857 357.511 254.739 358.693C254.473 361.471 256.572 363.658 258.288 365.579C260.713 368.268 263.404 370.573 266.42 372.583C269.466 374.622 272.689 376.395 276.002 377.931C278.722 379.202 281.532 380.384 284.459 381.064C285.317 381.271 286.263 381.477 287.15 381.418C287.269 381.418 287.387 381.389 287.535 381.359C287.594 381.359 287.653 381.33 287.712 381.3C287.801 381.271 287.594 381.359 287.683 381.3C287.86 381.212 287.683 381.33 287.831 381.212C288.393 380.709 288.747 380.148 289.191 379.557C290.965 377.074 292.562 374.474 294.13 371.873C296.525 367.943 298.832 363.983 301.109 359.994C303.829 355.236 306.491 350.478 309.093 345.661C311.814 340.697 314.476 335.703 317.108 330.649C319.503 326.039 321.869 321.4 324.116 316.731C325.861 313.096 327.606 309.431 329.114 305.708C329.646 304.437 330.149 303.137 330.534 301.807C330.859 300.743 331.066 299.857 331.095 298.823C331.391 289.248 328.227 279.851 326.068 270.631C324.235 262.74 322.342 254.88 320.301 247.049C319.385 243.562 318.468 240.075 317.462 236.617C317.285 235.997 318.202 235.731 318.379 236.322Z" fill="black"/>
<path d="M257.844 136.438C258.406 137.295 258.997 138.123 259.707 138.861C260.417 139.571 261.215 140.103 262.102 140.605C262.635 140.901 262.161 141.698 261.629 141.403C260.683 140.901 259.796 140.28 259.056 139.512C258.287 138.743 257.666 137.827 257.045 136.911C256.898 136.704 257.016 136.379 257.223 136.261C257.43 136.113 257.696 136.202 257.844 136.438Z" fill="black"/>
<path d="M259.352 138.359C262.132 138.123 264.853 137.059 267.425 136.113C270.323 135.079 273.222 133.926 276.208 133.188C281.265 131.946 286.677 133.04 291.645 134.163C297.205 135.434 302.646 137.118 307.999 139.009C309.093 139.393 310.187 139.837 311.311 140.191C313.263 140.782 315.185 141.403 317.107 142.053C320.745 143.294 324.441 144.476 328.138 145.57C332.249 146.811 336.418 147.875 340.559 148.998C340.618 149.027 340.677 149.027 340.766 149.057C341.357 149.204 341.091 150.091 340.529 149.973C337.099 149.145 333.727 148.2 330.326 147.195C326.807 146.161 323.318 145.097 319.858 143.944C317.876 143.294 315.924 142.614 313.943 141.935C312.405 141.403 310.838 141.019 309.3 140.457C304.243 138.595 299.068 136.941 293.834 135.64C290.965 134.931 288.097 134.281 285.169 133.897C282.803 133.601 280.349 133.365 277.983 133.779C272.127 134.754 266.863 137.886 261.067 139.068C260.505 139.187 259.943 139.275 259.352 139.305C258.761 139.334 258.761 138.418 259.352 138.359Z" fill="black"/>
<path d="M290.167 146.249C290.965 147.431 291.586 148.732 292.178 150.032C293.006 151.805 293.804 153.608 294.603 155.41C296.288 159.252 297.915 163.153 299.926 166.847C300.665 168.235 301.464 169.713 302.617 170.806C303.061 171.22 302.38 171.9 301.966 171.457C300.961 170.481 300.222 169.24 299.542 168.029C298.566 166.315 297.708 164.512 296.85 162.709C295.076 158.868 293.45 154.967 291.675 151.155C290.965 149.648 290.285 148.111 289.339 146.722C289.014 146.22 289.812 145.747 290.167 146.249Z" fill="black"/>
<path d="M246.666 179.229C246.429 180.913 246.37 182.627 246.222 184.311C245.956 187.207 245.63 190.133 245.128 192.999C244.655 195.807 244.093 198.585 243.708 201.392C243.472 203.076 243.235 204.761 243.176 206.475C243.176 206.918 243.117 207.42 243.265 207.834C243.235 207.716 243.324 207.923 243.324 207.952C243.353 208.041 243.413 208.1 243.472 208.189C243.62 208.396 243.797 208.603 243.945 208.809C245.069 210.139 246.311 211.351 247.582 212.562C249.416 214.335 251.279 216.049 253.142 217.734C255.301 219.684 257.489 221.635 259.677 223.555C261.777 225.388 263.788 227.308 266.183 228.786C267.928 229.85 269.939 230.707 271.507 232.007C271.921 232.362 272.275 232.805 272.187 233.396C272.068 233.987 271.832 234.608 271.595 235.169C270.176 238.715 268.224 242.084 266.036 245.217C265.001 246.694 263.906 248.172 262.605 249.442C261.807 250.24 260.713 251.215 259.5 251.275C258.702 251.304 257.844 250.92 257.134 250.565C255.922 250.004 254.768 249.295 253.645 248.585C250.451 246.576 247.375 244.33 244.388 242.025C241.135 239.513 237.912 236.942 234.807 234.253C232.323 232.096 229.987 229.82 227.68 227.486C226.231 226.008 224.723 224.56 223.481 222.876C222.12 221.014 221.233 218.886 220.849 216.611C220.582 214.986 220.523 213.331 220.435 211.705C220.346 209.962 220.287 208.218 220.228 206.475C219.961 197.403 219.843 188.33 220.168 179.288C220.316 175.032 220.405 170.659 221.795 166.61C223.067 162.916 225.314 159.813 228.183 157.183C230.992 154.612 233.949 152.248 236.966 149.914C238.77 148.525 240.84 147.106 242.023 145.126C242.348 144.594 242.644 144.033 242.644 143.383C242.644 142.644 242.377 141.905 242.141 141.226C241.786 140.28 241.402 139.393 240.928 138.507C240.219 137.236 239.479 135.995 238.681 134.783C238.356 134.281 239.154 133.808 239.479 134.311C240.307 135.581 241.076 136.852 241.786 138.182C242.259 139.039 242.614 139.896 242.969 140.812C243.413 142.023 243.827 143.294 243.383 144.565C242.584 146.693 240.692 148.17 239.006 149.559C237.025 151.155 234.955 152.632 233.033 154.258C231.909 155.203 230.815 156.179 229.72 157.154C228.478 158.218 227.295 159.37 226.26 160.611C223.333 164.128 221.913 168.472 221.499 172.993C221.144 176.924 221.056 180.883 220.996 184.843C220.937 189.483 220.937 194.122 220.996 198.762C221.056 202.751 221.144 206.741 221.322 210.73C221.381 212.09 221.44 213.449 221.529 214.779C221.736 217.261 222.416 219.625 223.776 221.723C224.9 223.437 226.349 224.885 227.798 226.333C228.922 227.486 229.987 228.668 231.14 229.761C233.772 232.303 236.552 234.667 239.391 236.972C242.555 239.572 245.808 242.084 249.15 244.478C251.722 246.31 254.325 248.172 257.164 249.59C257.578 249.797 258.021 250.004 258.465 250.152C258.79 250.27 259.086 250.358 259.352 250.358C260.387 250.299 261.363 249.295 262.073 248.615C264.794 245.867 266.864 242.409 268.668 239.04C269.466 237.563 270.205 236.056 270.797 234.489C270.915 234.194 271.004 233.898 271.093 233.603C271.122 233.485 271.181 233.366 271.181 233.248C271.211 233.16 271.211 233.219 271.181 233.16C270.915 232.598 270.087 232.214 269.584 231.918C267.573 230.707 265.474 229.643 263.611 228.254C261.334 226.57 259.263 224.531 257.164 222.669C253.29 219.241 249.416 215.813 245.749 212.178C244.684 211.144 243.59 210.08 242.732 208.868C242.141 208.071 242.17 207.154 242.23 206.209C242.377 202.781 243.028 199.383 243.62 196.014C244.329 192.024 244.95 188.035 245.305 183.986C245.453 182.42 245.512 180.854 245.69 179.317C245.808 178.638 246.754 178.638 246.666 179.229Z" fill="black"/>
<path d="M244.3 170.688C241.579 167.378 237.32 165.605 233.062 166.019C232.471 166.078 232.471 165.133 233.062 165.073C237.528 164.66 242.111 166.551 244.95 170.038C245.335 170.481 244.684 171.161 244.3 170.688Z" fill="black"/>
<path d="M417.714 376.986C417.714 376.986 425.077 382.069 426.852 383.369C428.626 384.669 435.309 387.447 437.35 388.452C439.39 389.456 444.004 388.984 445.571 391.436C447.138 393.86 448.854 395.426 447.967 398.942C447.079 402.459 441.993 404.675 436.256 405.473C430.519 406.271 420.02 404.734 416.738 403.73C413.426 402.725 405.944 400.538 402.809 400.42C399.674 400.302 395.238 399.031 394.233 396.165C393.228 393.298 393.021 388.393 393.05 386.353C393.109 384.344 392.163 381.182 393.937 381.212C395.712 381.271 397.634 383.694 401.183 383.339C404.731 382.985 407.452 380.916 409.907 378.581C412.42 376.217 415.91 375.804 417.714 376.986Z" fill="white"/>
<path d="M429.247 385.378C427.62 384.403 425.964 383.428 424.367 382.423C423.037 381.566 421.676 380.739 420.434 379.764C419.784 379.232 419.222 378.552 418.542 378.05C417.507 377.252 416.235 376.661 414.934 376.602C412.036 376.424 410.202 379.35 408.221 380.975C406.121 382.719 403.43 383.31 400.769 383.517C399.438 383.605 398.166 383.369 396.924 382.837C395.919 382.423 395.002 381.803 393.996 381.418C393.878 381.389 393.789 381.359 393.671 381.33C393.582 381.3 393.523 381.359 393.612 381.33C393.582 381.359 393.553 381.655 393.523 381.743C393.464 382.453 393.464 383.162 393.494 383.871C393.523 385.91 393.671 387.949 393.849 389.988C393.996 391.732 394.144 393.475 394.47 395.189C395.179 398.854 399.645 399.533 402.72 399.977C405.914 400.449 409.078 400.981 412.184 401.779C414.431 402.341 416.619 403.05 418.867 403.582C420.7 404.025 422.593 404.262 424.456 404.468C426.97 404.764 429.513 404.912 432.027 404.971C436.433 405.03 440.958 404.616 444.802 402.223C446.695 401.04 447.907 399.267 447.789 396.962C447.641 394.51 446.429 392.264 444.299 391.023C442.466 389.959 440.307 389.634 438.296 389.161C437.35 388.954 436.404 388.718 435.516 388.333C434.452 387.89 433.446 387.358 432.411 386.915C431.347 386.442 430.252 385.999 429.247 385.378C428.715 385.083 429.188 384.255 429.72 384.58C430.785 385.231 431.968 385.674 433.091 386.176C434.126 386.649 435.161 387.21 436.226 387.595C438.267 388.333 440.485 388.57 442.555 389.249C444.654 389.929 446.577 391.141 447.671 393.121C448.824 395.278 449.238 398.144 447.966 400.361C446.872 402.282 444.832 403.405 442.85 404.232C440.81 405.089 438.74 405.562 436.522 405.739C431.494 406.182 426.29 405.739 421.292 404.971C419.37 404.675 417.507 404.173 415.614 403.641C412.805 402.843 409.995 402.104 407.127 401.572C403.962 400.981 400.65 400.863 397.634 399.711C396.185 399.149 394.795 398.322 394.056 396.903C393.434 395.721 393.346 394.303 393.198 393.003C392.932 390.845 392.754 388.658 392.636 386.472C392.547 384.846 392.399 383.132 392.606 381.478C392.873 379.409 395.061 380.857 396.126 381.389C397.338 382.009 398.639 382.571 400.029 382.571C401.567 382.571 403.164 382.305 404.613 381.832C405.914 381.418 407.097 380.709 408.073 379.793C409.108 378.818 410.084 377.754 411.208 376.897C412.331 376.07 413.662 375.479 415.082 375.626C416.412 375.745 417.654 376.277 418.749 377.015C419.429 377.488 419.932 378.079 420.553 378.611C421.854 379.764 423.362 380.65 424.811 381.596C426.408 382.63 428.064 383.576 429.691 384.551C430.223 384.905 429.75 385.703 429.247 385.378Z" fill="black"/>
<path d="M445.335 399.061C441.372 400.981 436.877 401.631 432.5 401.631C430.134 401.631 427.739 401.425 425.403 401.1C423.51 400.834 421.499 400.568 419.665 400.036C418.571 399.711 417.507 399.356 416.412 399.031C415.23 398.676 413.987 398.233 412.775 398.115C410.498 397.908 408.25 397.79 406.003 397.494C404.14 397.258 402.306 396.962 400.502 396.519C398.965 396.165 397.368 395.721 395.978 394.953C395.445 394.657 395.919 393.86 396.451 394.155C397.634 394.805 398.965 395.189 400.266 395.514C401.863 395.899 403.489 396.194 405.145 396.43C407.57 396.785 410.025 397.051 412.479 397.169C413.455 397.228 414.402 397.465 415.318 397.731C416.619 398.085 417.95 398.499 419.222 398.913C420.523 399.326 421.883 399.592 423.214 399.829C425.55 400.243 427.916 400.538 430.282 400.656C435.191 400.893 440.366 400.449 444.861 398.292C445.394 397.967 445.867 398.795 445.335 399.061Z" fill="black"/>
<path d="M255.922 413.216C256.513 414.398 257.371 415.461 258.08 416.584C258.968 417.973 259.884 419.362 261.097 420.485C262.398 421.667 263.965 422.495 265.622 423.174C269.91 424.918 274.523 425.657 279.136 426.011C281.088 426.159 285.435 425.834 287.269 425.154C289.102 424.475 290.137 423.293 290.285 421.342C290.374 420.072 290.196 418.564 289.605 417.441C288.629 415.698 286.441 414.575 285.08 414.013C282.33 412.861 280.704 411.413 279.018 410.142C277.125 408.694 275.942 406.744 275.173 404.498C274.079 401.306 272.867 397.169 272.778 393.978C272.66 390.757 271.033 387.624 267.159 387.536C263.315 387.447 258.997 387.624 255.508 382.541C252.018 377.459 251.752 376.956 250.125 378.729L242.259 388.747C242.259 388.747 240.692 392.146 243.294 395.869C245.867 399.592 252.343 405.946 255.922 413.216Z" fill="white"/>
<path d="M256.336 412.979C257.104 414.457 258.14 415.816 259.056 417.205C260.003 418.623 261.038 419.983 262.428 420.958C265.119 422.849 268.52 423.854 271.713 424.534C274.7 425.154 277.835 425.627 280.91 425.568C282.153 425.538 283.395 425.45 284.637 425.273C285.731 425.125 286.884 424.918 287.89 424.386C288.984 423.795 289.664 422.79 289.782 421.549C289.93 420.16 289.753 418.564 288.954 417.382C287.416 415.107 284.341 414.486 282.123 413.097C280.999 412.388 279.964 411.561 278.9 410.733C277.805 409.876 276.889 408.931 276.12 407.778C275.321 406.537 274.819 405.207 274.375 403.818C273.872 402.311 273.429 400.774 273.044 399.238C272.689 397.819 272.423 396.371 272.305 394.923C272.187 393.682 272.187 392.471 271.713 391.318C271.299 390.254 270.59 389.309 269.584 388.718C268.49 388.067 267.248 388.097 266.035 388.067C263.817 388.008 261.57 387.831 259.559 386.856C256.868 385.585 255.33 383.191 253.704 380.857C253.171 380.089 252.639 379.202 251.9 378.611C251.752 378.493 251.574 378.375 251.456 378.375C251.367 378.375 251.22 378.434 251.042 378.552C250.421 378.995 249.977 379.734 249.504 380.325C247.493 382.896 245.453 385.496 243.442 388.067C243.176 388.392 242.91 388.747 242.643 389.072C242.555 389.19 242.584 389.22 242.614 389.102C242.643 388.984 242.614 389.131 242.584 389.19C242.525 389.338 242.496 389.456 242.466 389.604C241.786 392.057 242.673 394.391 244.152 396.371C245.601 398.292 247.198 400.095 248.706 401.927C250.628 404.262 252.462 406.626 254.088 409.167C254.916 410.32 255.655 411.62 256.336 412.979C256.602 413.511 255.803 413.984 255.537 413.452C252.787 407.955 248.706 403.345 244.832 398.617C243.176 396.608 241.549 394.539 241.342 391.82C241.254 390.727 241.313 389.19 242.022 388.274C243.945 385.822 245.867 383.369 247.789 380.916C248.44 380.089 249.09 379.202 249.77 378.375C250.51 377.518 251.427 376.897 252.432 377.724C253.112 378.256 253.615 379.025 254.118 379.734C255.094 381.064 255.922 382.541 257.075 383.753C258.908 385.733 261.304 386.708 263.965 386.915C266.361 387.122 268.874 386.708 270.856 388.363C271.743 389.102 272.364 390.136 272.719 391.229C273.133 392.471 273.133 393.712 273.251 395.012C273.547 398.204 274.523 401.336 275.558 404.35C276.061 405.828 276.8 407.246 277.835 408.428C278.781 409.522 279.994 410.379 281.117 411.236C282.419 412.181 283.779 413.009 285.258 413.629C286.411 414.132 287.505 414.693 288.481 415.521C289.575 416.437 290.315 417.619 290.551 419.037C290.788 420.337 290.847 421.845 290.285 423.086C289.309 425.332 286.766 425.923 284.548 426.218C281.768 426.602 279.047 426.543 276.268 426.218C272.719 425.804 269.17 425.125 265.858 423.795C264.32 423.204 262.812 422.495 261.511 421.46C260.18 420.426 259.145 419.096 258.228 417.678C257.311 416.289 256.247 414.93 255.508 413.452C255.241 412.92 256.069 412.447 256.336 412.979Z" fill="black"/>
<path d="M245.778 389.309C246.399 394.066 250.214 397.642 252.964 401.306C254.591 403.464 256.099 405.739 257.459 408.103C258.435 409.758 259.322 411.472 260.417 413.068C263.463 417.471 268.017 420.249 273.222 421.431C278.012 422.524 283.04 422.347 287.89 421.756C288.481 421.667 288.481 422.613 287.89 422.702C280.378 423.647 271.98 423.529 265.414 419.274C263.344 417.944 261.57 416.23 260.121 414.279C259.204 413.038 258.435 411.708 257.666 410.349C256.277 407.926 254.857 405.532 253.231 403.257C251.574 400.952 249.711 398.824 248.055 396.519C246.488 394.362 245.216 392.027 244.891 389.368C244.773 388.718 245.719 388.718 245.778 389.309Z" fill="black"/>
<path d="M273.429 377.458C272.068 379.261 271.181 381.477 270.264 383.516C269.643 384.935 269.052 386.353 268.49 387.801C268.283 388.363 267.366 388.126 267.573 387.565C268.135 386.087 268.756 384.61 269.377 383.162C270.294 381.064 271.181 378.818 272.571 376.986C272.985 376.513 273.784 376.986 273.429 377.458Z" fill="black"/>
<path d="M257.4 365.963C256.099 369.48 254.798 373.026 253.467 376.542C253.29 377.045 253.112 377.547 252.905 378.05C252.698 378.611 251.782 378.375 251.989 377.813C253.29 374.297 254.591 370.75 255.922 367.234C256.099 366.731 256.277 366.229 256.484 365.727C256.691 365.165 257.607 365.402 257.4 365.963Z" fill="black"/>
<path d="M394.115 381.005C393.849 380.177 393.612 379.32 393.316 378.493C392.961 377.518 392.488 376.572 391.956 375.656C391.66 375.124 392.459 374.651 392.754 375.183C393.287 376.158 393.789 377.133 394.174 378.168C394.499 379.025 394.736 379.882 395.002 380.768C395.209 381.33 394.292 381.566 394.115 381.005Z" fill="black"/>
<path d="M413.692 376.336C412.213 373.44 410.853 370.455 409.759 367.382C409.552 366.82 410.468 366.554 410.675 367.145C411.74 370.13 413.071 373.055 414.52 375.863C414.756 376.395 413.958 376.867 413.692 376.336Z" fill="black"/>
<path d="M257.43 107.774C258.317 111.674 259.559 115.457 260.89 119.239C261.481 120.983 262.014 122.786 262.073 124.647C262.132 126.627 261.629 128.548 261.038 130.41C260.062 133.335 259.086 136.763 256.04 138.152C253.349 139.364 250.185 138.625 247.464 137.916C245.305 137.354 242.91 136.704 240.958 135.552C240.455 135.256 240.899 134.429 241.431 134.754C242.792 135.581 244.388 136.054 245.897 136.527C247.582 137.029 249.298 137.502 251.072 137.739C252.314 137.916 253.645 137.975 254.857 137.62C257.933 136.734 258.938 133.631 259.885 130.883C260.506 129.08 261.097 127.218 261.127 125.297C261.186 123.554 260.742 121.81 260.21 120.156C259.559 118.176 258.79 116.225 258.169 114.216C257.548 112.177 256.986 110.108 256.513 108.01C256.395 107.448 257.282 107.182 257.43 107.774Z" fill="black"/>
<path d="M234.777 126.361C233.653 125.623 231.702 124.766 230.696 126.184C229.898 127.336 230.341 129.139 230.933 130.262C231.642 131.562 232.766 132.567 234.097 133.188C235.546 133.867 237.409 134.458 239.006 134.015C239.597 133.838 239.834 134.754 239.243 134.931C237.705 135.374 236.078 134.961 234.629 134.429C233.239 133.926 231.968 133.188 231.021 132.065C230.164 131.06 229.572 129.848 229.395 128.519C229.247 127.218 229.484 125.682 230.696 124.943C232.175 124.027 233.92 124.677 235.221 125.563C235.723 125.888 235.28 126.686 234.777 126.361Z" fill="black"/>
<path d="M231.406 127.957C232.264 127.218 233.387 127.691 234.245 128.134C235.103 128.578 235.901 129.198 236.552 129.907C236.966 130.351 236.286 131.03 235.901 130.558C235.369 129.967 234.748 129.464 234.068 129.05C233.742 128.873 233.387 128.696 233.003 128.548C232.737 128.459 232.352 128.341 232.086 128.578C231.909 128.755 231.613 128.755 231.436 128.578C231.258 128.43 231.229 128.134 231.406 127.957Z" fill="black"/>
<path d="M234.955 129.405C234.925 129.435 234.896 129.464 234.866 129.464C234.807 129.523 234.896 129.405 234.866 129.494C234.866 129.494 234.807 129.612 234.836 129.523C234.866 129.464 234.836 129.553 234.836 129.582C234.836 129.612 234.807 129.641 234.807 129.701C234.836 129.582 234.807 129.701 234.807 129.73C234.807 129.789 234.807 129.848 234.807 129.907C234.807 130.026 234.777 129.819 234.807 129.937C234.807 129.967 234.807 129.996 234.836 130.055C234.836 130.114 234.866 130.173 234.896 130.232C234.896 130.262 234.925 130.321 234.896 130.262C234.925 130.292 234.925 130.321 234.955 130.351C234.984 130.41 235.014 130.469 235.043 130.528C235.073 130.558 235.073 130.587 235.103 130.617C235.103 130.646 235.191 130.705 235.132 130.646C235.191 130.705 235.221 130.764 235.28 130.794C235.339 130.853 235.369 130.883 235.428 130.942C235.487 131.001 235.369 130.912 235.457 130.971C235.487 131.001 235.517 131.001 235.546 131.03C235.605 131.06 235.664 131.089 235.724 131.149C235.753 131.178 235.783 131.178 235.812 131.208C235.783 131.178 235.753 131.178 235.812 131.208C235.96 131.267 236.078 131.296 236.226 131.296C236.463 131.326 236.611 131.651 236.552 131.858C236.463 132.124 236.226 132.212 235.99 132.183C235.25 132.094 234.6 131.592 234.215 130.971C233.861 130.351 233.654 129.287 234.304 128.784C234.482 128.637 234.777 128.578 234.955 128.784C235.132 128.903 235.162 129.257 234.955 129.405Z" fill="black"/>
<path d="M254.088 111.379C253.97 111.379 253.851 111.408 253.763 111.408C253.822 111.408 253.792 111.408 253.763 111.408C253.733 111.408 253.704 111.408 253.674 111.438C253.615 111.438 253.556 111.467 253.497 111.467C253.26 111.527 253.053 111.556 252.846 111.645C252.816 111.645 252.698 111.704 252.787 111.674C252.728 111.704 252.698 111.733 252.639 111.733C252.55 111.793 252.432 111.822 252.343 111.881C252.284 111.911 252.255 111.94 252.225 111.97C252.314 111.911 252.195 111.999 252.166 112.029C252.077 112.118 252.018 112.177 251.929 112.265C251.781 112.472 251.427 112.443 251.279 112.265C251.101 112.058 251.131 111.822 251.279 111.615C251.929 110.788 253.112 110.522 254.118 110.433C254.354 110.404 254.591 110.67 254.591 110.906C254.532 111.172 254.354 111.349 254.088 111.379Z" fill="black"/>
<path d="M243.797 119.446C243.738 119.564 243.708 119.83 243.738 119.978C243.767 120.392 243.886 120.776 244.063 121.131C244.152 121.278 244.241 121.426 244.359 121.544C244.477 121.663 244.684 121.722 244.832 121.663C245.069 121.604 245.216 121.367 245.276 121.101C245.335 120.806 245.276 120.451 245.157 120.185C245.039 119.89 244.832 119.624 244.655 119.387C244.595 119.299 244.507 119.21 244.388 119.18C244.27 119.151 244.181 119.121 244.004 119.18C243.886 119.239 243.827 119.358 243.797 119.446Z" fill="black"/>
<path d="M244.181 119.683C244.181 119.683 244.211 119.594 244.211 119.624C244.211 119.653 244.211 119.683 244.181 119.683C244.181 119.712 244.181 119.742 244.181 119.742C244.181 119.742 244.181 119.653 244.181 119.683C244.181 119.801 244.181 119.86 244.181 119.949C244.181 119.978 244.181 120.037 244.181 120.067C244.181 120.067 244.181 120.155 244.181 120.096C244.181 120.037 244.181 120.126 244.181 120.156C244.211 120.244 244.211 120.362 244.241 120.451C244.27 120.54 244.3 120.628 244.329 120.717C244.329 120.747 244.359 120.747 244.359 120.776C244.388 120.835 244.329 120.717 244.359 120.776C244.388 120.835 244.388 120.865 244.418 120.924C244.448 120.953 244.477 121.012 244.477 121.042C244.507 121.072 244.566 121.16 244.507 121.101C244.536 121.131 244.566 121.16 244.595 121.19C244.595 121.19 244.536 121.16 244.566 121.19C244.595 121.219 244.625 121.219 244.655 121.249C244.595 121.219 244.655 121.249 244.684 121.249C244.655 121.249 244.566 121.219 244.684 121.249C244.684 121.249 244.595 121.249 244.655 121.249C244.714 121.249 244.625 121.249 244.625 121.278L244.684 121.249C244.684 121.249 244.625 121.308 244.655 121.278C244.655 121.278 244.714 121.219 244.684 121.249C244.655 121.308 244.714 121.19 244.714 121.19C244.743 121.101 244.684 121.249 244.714 121.16C244.714 121.131 244.743 121.072 244.743 121.042C244.743 120.983 244.743 121.042 244.743 121.072C244.743 121.042 244.743 121.012 244.743 120.953C244.743 120.924 244.743 120.865 244.743 120.835C244.743 120.835 244.743 120.747 244.743 120.776C244.743 120.835 244.743 120.747 244.743 120.747C244.714 120.658 244.684 120.54 244.655 120.451C244.655 120.451 244.625 120.392 244.655 120.421C244.684 120.481 244.625 120.392 244.625 120.392C244.595 120.362 244.595 120.303 244.566 120.274C244.507 120.185 244.448 120.096 244.388 120.008C244.388 119.978 244.359 119.978 244.359 119.949C244.359 119.949 244.3 119.86 244.329 119.919C244.359 119.949 244.329 119.89 244.3 119.89C244.27 119.86 244.241 119.83 244.241 119.801C244.211 119.771 244.181 119.712 244.152 119.683L244.122 119.653C244.181 119.683 244.152 119.683 244.122 119.653H244.152C244.181 119.653 244.181 119.683 244.152 119.653H244.122C244.152 119.653 244.152 119.653 244.181 119.653H244.122C244.093 119.653 244.093 119.653 244.122 119.653C244.241 119.653 244.211 119.653 244.181 119.683C244.152 119.653 244.241 119.624 244.181 119.653C244.122 119.683 244.241 119.594 244.211 119.653C244.181 119.683 244.241 119.594 244.241 119.624C244.241 119.624 244.211 119.653 244.181 119.683C244.063 119.89 243.767 119.978 243.531 119.86C243.324 119.712 243.235 119.446 243.353 119.21C243.531 118.914 243.797 118.737 244.152 118.707C244.448 118.678 244.743 118.855 244.921 119.092C245.335 119.564 245.631 120.096 245.719 120.717C245.778 121.278 245.542 122.017 244.921 122.135C244.566 122.224 244.181 122.076 243.945 121.84C243.738 121.633 243.59 121.338 243.472 121.072C243.353 120.747 243.265 120.421 243.235 120.096C243.206 119.801 243.235 119.505 243.353 119.239C243.472 119.033 243.797 118.944 244.004 119.062C244.241 119.18 244.3 119.446 244.181 119.683Z" fill="black"/>
<path d="M254.147 115.664C254.088 115.782 254.059 116.048 254.088 116.196C254.118 116.609 254.236 116.994 254.413 117.348C254.502 117.496 254.591 117.644 254.709 117.762C254.828 117.88 255.035 117.939 255.182 117.88C255.419 117.821 255.567 117.585 255.626 117.319C255.685 117.023 255.626 116.668 255.508 116.402C255.389 116.107 255.182 115.841 255.005 115.605C254.946 115.516 254.857 115.427 254.739 115.398C254.62 115.368 254.532 115.339 254.354 115.398C254.266 115.457 254.206 115.575 254.147 115.664Z" fill="black"/>
<path d="M254.561 115.9C254.561 115.9 254.591 115.811 254.591 115.841C254.561 115.871 254.561 115.9 254.561 115.9C254.561 115.93 254.561 115.959 254.561 115.959C254.561 115.959 254.561 115.871 254.561 115.9C254.561 116.018 254.561 116.077 254.561 116.166C254.561 116.196 254.561 116.255 254.561 116.284C254.561 116.284 254.561 116.373 254.561 116.314C254.561 116.255 254.561 116.343 254.561 116.373C254.591 116.462 254.591 116.58 254.62 116.668C254.65 116.757 254.68 116.846 254.709 116.934C254.709 116.964 254.739 116.964 254.739 116.994C254.768 117.053 254.709 116.934 254.739 116.994C254.768 117.053 254.768 117.082 254.798 117.141C254.827 117.171 254.857 117.23 254.857 117.259C254.887 117.289 254.946 117.378 254.887 117.319C254.916 117.348 254.946 117.378 254.975 117.407C254.975 117.407 254.916 117.378 254.946 117.407C254.975 117.437 255.005 117.437 255.035 117.466C254.975 117.437 255.035 117.466 255.064 117.466C255.035 117.466 254.946 117.437 255.064 117.466C255.064 117.466 254.975 117.466 255.035 117.466C255.094 117.466 255.005 117.466 255.005 117.496L255.064 117.466C255.064 117.466 255.005 117.525 255.035 117.496C255.035 117.496 255.094 117.437 255.064 117.466C255.035 117.525 255.094 117.407 255.094 117.407C255.123 117.319 255.064 117.466 255.094 117.378C255.094 117.348 255.123 117.289 255.123 117.259C255.123 117.2 255.123 117.259 255.123 117.289C255.123 117.259 255.123 117.23 255.123 117.171C255.123 117.141 255.123 117.082 255.123 117.053C255.123 117.053 255.123 116.964 255.123 116.994C255.123 117.053 255.123 116.964 255.123 116.964C255.094 116.875 255.064 116.757 255.035 116.668C255.035 116.668 255.005 116.609 255.035 116.639C255.064 116.698 255.005 116.609 255.005 116.609C254.975 116.58 254.975 116.521 254.946 116.491C254.887 116.402 254.828 116.314 254.768 116.225C254.768 116.196 254.739 116.196 254.739 116.166C254.739 116.166 254.68 116.077 254.709 116.137C254.739 116.166 254.709 116.107 254.68 116.107C254.65 116.077 254.62 116.048 254.62 116.018C254.591 115.989 254.561 115.93 254.532 115.9L254.502 115.871C254.561 115.9 254.532 115.9 254.502 115.871H254.532C254.561 115.871 254.561 115.9 254.532 115.871H254.502C254.532 115.871 254.532 115.871 254.561 115.871H254.502C254.473 115.871 254.473 115.871 254.502 115.871C254.591 115.841 254.591 115.841 254.561 115.9C254.532 115.871 254.621 115.841 254.561 115.871C254.502 115.9 254.62 115.811 254.591 115.871C254.561 115.9 254.62 115.811 254.62 115.841C254.591 115.841 254.561 115.871 254.561 115.9C254.443 116.107 254.147 116.196 253.911 116.077C253.704 115.93 253.615 115.664 253.733 115.427C253.911 115.132 254.177 114.954 254.532 114.925C254.827 114.895 255.123 115.073 255.301 115.309C255.715 115.782 256.01 116.314 256.099 116.934C256.158 117.496 255.922 118.235 255.301 118.353C254.946 118.442 254.561 118.294 254.325 118.057C254.118 117.85 253.97 117.555 253.852 117.289C253.733 116.964 253.645 116.639 253.615 116.314C253.585 116.018 253.615 115.723 253.733 115.457C253.852 115.25 254.177 115.161 254.384 115.28C254.62 115.398 254.68 115.664 254.561 115.9Z" fill="black"/>
<path d="M240.1 115.191C241.135 114.275 242.496 113.743 243.886 113.684C244.152 113.684 244.359 113.92 244.359 114.157C244.359 114.423 244.152 114.6 243.886 114.629C242.792 114.689 241.609 115.132 240.751 115.871C240.574 116.048 240.278 116.048 240.1 115.871C239.923 115.664 239.893 115.339 240.1 115.191Z" fill="black"/>
<path d="M229.188 129.287C227.088 127.957 225.462 125.8 224.072 123.79C222.682 121.781 221.233 119.505 220.789 117.053C220.523 115.664 220.464 114.245 220.819 112.856C221.174 111.408 221.795 110.049 222.297 108.66C222.386 108.453 222.386 108.512 222.327 108.276C222.298 108.01 222.238 107.774 222.209 107.508C222.12 106.769 222.09 106.06 222.179 105.321C222.327 103.755 222.919 102.277 223.658 100.918C225.994 96.7509 230.548 93.6776 235.221 92.791C236.522 92.5546 237.853 92.4068 239.154 92.1409C240.307 91.9045 241.49 91.6385 242.643 91.3726C244.595 90.9588 246.547 90.6929 248.499 91.1361C251.22 91.7567 253.645 93.4411 255.803 95.1256C256.986 96.0417 257.903 96.9577 258.613 98.2876C259.234 99.4105 259.707 100.652 260.505 101.627C260.89 102.07 261.333 102.425 261.895 102.632C262.457 102.809 262.221 103.725 261.659 103.548C259.293 102.779 258.642 100.002 257.43 98.1398C256.572 96.7509 255.212 95.8644 253.911 94.9187C252.757 94.1208 251.574 93.3525 250.303 92.791C248.499 91.9636 246.636 91.7272 244.684 91.9931C242.436 92.3182 240.248 92.9683 238.001 93.3525C236.906 93.5298 235.783 93.648 234.688 93.914C233.683 94.1504 232.737 94.505 231.79 94.9483C229.543 95.9825 227.473 97.4601 225.876 99.3809C223.983 101.627 222.741 104.523 223.126 107.478C223.155 107.833 223.303 108.246 223.273 108.601C223.244 109.281 222.8 110.019 222.564 110.67C222.12 111.881 221.588 113.093 221.499 114.423C221.322 116.994 222.327 119.299 223.599 121.485C224.929 123.731 226.497 125.918 228.449 127.662C228.833 127.987 229.217 128.312 229.632 128.578C230.164 128.814 229.691 129.612 229.188 129.287Z" fill="black"/>
<path d="M252.787 118.678C253.053 119.299 253.438 119.801 253.94 120.274C254.354 120.658 254.857 120.924 255.301 121.278C255.803 121.692 256.01 122.313 255.803 122.933C255.626 123.465 255.182 123.879 255.094 124.44C255.064 124.677 254.739 124.825 254.532 124.766C254.266 124.706 254.147 124.44 254.207 124.204C254.295 123.643 254.68 123.258 254.887 122.756C255.094 122.254 254.768 122.017 254.384 121.751C253.349 121.101 252.491 120.274 251.989 119.151C251.9 118.914 251.929 118.648 252.166 118.501C252.343 118.412 252.669 118.471 252.787 118.678Z" fill="black"/>
<path d="M254.798 127.425C252.846 128.459 249.771 128.548 247.967 129.228C247.375 129.435 247.198 130.203 247.641 130.617C248.351 131.296 249.711 132.153 252.284 132.212C256.691 132.331 256.158 126.716 254.798 127.425Z" fill="white"/>
<path d="M255.035 127.839C253.349 128.725 251.397 128.873 249.564 129.287C249.209 129.376 247.553 129.553 247.937 130.233C248.055 130.41 248.292 130.587 248.469 130.705C248.736 130.883 249.002 131.03 249.298 131.178C250.126 131.562 251.042 131.71 251.929 131.769C252.61 131.799 253.29 131.799 253.911 131.474C254.768 131.03 255.242 130.114 255.301 129.257C255.33 129.021 255.33 128.785 255.301 128.548C255.301 128.607 255.271 128.371 255.242 128.312C255.242 128.253 255.153 128.016 255.182 128.105C255.153 127.987 255.094 127.928 255.035 127.839C255.064 127.839 255.123 127.928 255.035 127.839C254.975 127.78 255.064 127.839 255.035 127.839C255.005 127.721 255.035 127.898 255.035 127.839C255.005 127.839 255.064 127.839 255.035 127.839C255.005 127.78 255.064 127.868 255.035 127.839C255.035 127.809 255.123 127.839 255.035 127.839C254.975 127.809 255.064 127.809 255.035 127.839C254.502 128.105 254.029 127.307 254.561 127.041C255.596 126.509 256.129 127.721 256.218 128.578C256.336 129.73 255.892 131.03 255.005 131.799C253.586 133.04 251.427 132.833 249.741 132.331C248.943 132.094 248.203 131.71 247.553 131.178C247.227 130.912 246.991 130.587 246.932 130.173C246.873 129.671 247.139 129.169 247.553 128.903C247.996 128.637 248.588 128.519 249.091 128.43C249.712 128.282 250.303 128.193 250.924 128.075C252.136 127.839 253.438 127.632 254.561 127.041C255.094 126.745 255.567 127.543 255.035 127.839Z" fill="black"/>
<path d="M242.466 136.084L245.542 137.679C248.884 139.689 251.93 139.807 253.526 139.925C256.957 140.162 258.495 138.152 258.495 138.152C258.495 138.152 257.667 136.261 257.43 136.675C256.306 138.566 252.669 138.418 252.669 138.418L249.327 137.975C249.327 137.945 245.364 137.118 242.466 136.084Z" fill="black"/>
<path d="M234.038 125.209C235.398 123.022 233.949 120.451 233.328 118.264C232.648 115.871 232.737 113.3 233.506 110.936C233.683 110.374 234.6 110.61 234.423 111.172C233.565 113.772 233.683 116.432 234.57 119.033C235.31 121.16 236.167 123.583 234.866 125.682C234.541 126.184 233.713 125.711 234.038 125.209Z" fill="black"/>
<path d="M233.092 110.551C232.796 109.133 233.18 107.655 234.156 106.591C235.339 105.262 237.173 104.966 238.858 105.055C240.84 105.173 242.555 105.971 244.388 106.621C246.044 107.212 247.937 107.567 249.504 106.532C250.007 106.207 250.48 107.005 249.978 107.33C247.05 109.281 243.797 107.153 240.928 106.326C239.302 105.853 237.113 105.646 235.605 106.562C234.363 107.33 233.713 108.867 234.008 110.285C234.127 110.906 233.239 111.142 233.092 110.551Z" fill="black"/>
<path d="M234.896 109.222C235.28 107.685 236.256 105.557 238.119 105.528C238.385 105.528 238.592 105.735 238.592 106C238.592 106.266 238.385 106.473 238.119 106.473C237.823 106.473 237.557 106.591 237.291 106.769C237.055 106.917 236.818 107.212 236.67 107.448C236.256 108.069 235.99 108.778 235.812 109.488C235.753 109.724 235.487 109.872 235.251 109.813C234.955 109.724 234.837 109.488 234.896 109.222Z" fill="black"/>
<path d="M259.322 105.114C259.411 106.03 259.648 106.946 259.825 107.862C259.973 108.69 260.032 109.547 260.121 110.404C260.298 112.088 260.387 113.832 259.559 115.368C259.263 115.9 258.465 115.427 258.761 114.895C259.559 113.388 259.322 111.645 259.175 110.019C259.086 109.192 258.997 108.365 258.849 107.567C258.672 106.769 258.494 105.941 258.435 105.114C258.347 104.523 259.263 104.523 259.322 105.114Z" fill="black"/>
<path d="M243.945 103.755C245.512 104.582 247.02 105.262 248.795 105.35C250.539 105.439 252.255 105.203 253.999 105.469C254.591 105.557 254.354 106.444 253.763 106.385C251.929 106.119 250.096 106.444 248.262 106.266C246.518 106.119 245.009 105.409 243.501 104.582C242.939 104.286 243.412 103.489 243.945 103.755Z" fill="black"/>
<path d="M251.131 102.041C251.604 102.425 252.195 102.72 252.728 103.016C253.438 103.4 254.177 103.725 254.916 103.991C256.779 104.612 258.849 104.434 260.683 103.755C261.245 103.548 261.481 104.464 260.919 104.671C258.938 105.409 256.661 105.587 254.65 104.907C253.201 104.434 251.634 103.695 250.421 102.72C250.007 102.336 250.658 101.656 251.131 102.041Z" fill="black"/>
<path d="M264.794 138.034C266.006 141.787 261.748 144.328 258.909 145.57C257.193 146.338 255.389 146.693 253.497 146.811C251.722 146.929 249.919 146.988 248.115 146.899C246.163 146.781 244.093 146.486 242.377 145.451C241.845 145.156 242.318 144.328 242.851 144.654C245.601 146.279 249.268 146.102 252.343 145.924C254.059 145.836 255.744 145.688 257.4 145.156C258.938 144.624 260.535 143.826 261.836 142.851C263.226 141.787 264.468 140.103 263.877 138.27C263.699 137.709 264.616 137.443 264.794 138.034Z" fill="black"/>
<path d="M312.879 165.93C310.335 165.133 307.674 164.689 305.071 164.157C302.321 163.596 299.541 163.094 296.85 162.325C296.259 162.148 296.525 161.261 297.087 161.409C299.778 162.177 302.558 162.68 305.308 163.241C307.91 163.773 310.572 164.216 313.115 165.014C313.707 165.192 313.44 166.108 312.879 165.93Z" fill="black"/>
<path d="M388.082 183.691C389.206 182.006 389.117 179.79 389.915 177.899C390.182 177.278 390.743 176.628 391.394 176.805C392.074 177.012 392.163 177.928 392.074 178.637C391.956 179.879 391.424 182.065 391.335 183.336C391.749 180.647 392.873 177.042 393.819 174.471C393.996 173.998 394.203 173.496 394.588 173.141C394.972 172.786 395.623 172.698 396.007 173.023C396.303 173.259 396.362 173.673 396.421 174.057C396.54 175.18 396.481 176.303 396.274 177.426C396.924 175.505 397.604 173.614 398.314 171.722C398.491 171.22 398.698 170.718 399.053 170.363C399.438 169.979 400.029 169.802 400.502 170.068C401.064 170.393 401.123 171.161 401.094 171.811C400.916 174.382 400.384 177.367 399.201 179.672C401.685 175.83 400.68 171.988 403.075 169.27C403.282 169.033 403.519 168.797 403.844 168.738C404.761 168.561 405.145 169.861 405.086 170.777C404.879 174.057 404.376 177.515 401.833 180.972C400.088 182.952 398.314 184.932 396.155 186.439C393.996 187.946 391.424 189.01 388.792 188.833C387.845 188.774 386.781 188.449 386.396 187.592C385.746 186.173 387.254 184.932 388.082 183.691Z" fill="#FFCDB4"/>
<path d="M401.36 180.706C402.691 178.874 403.578 176.835 404.051 174.648C404.258 173.673 404.376 172.668 404.465 171.663C404.524 171.013 404.731 169.831 404.169 169.299C403.519 168.708 402.572 170.659 402.395 171.102C402.011 171.988 401.804 172.934 401.626 173.88C401.182 175.978 400.709 178.046 399.556 179.879C399.231 180.381 398.462 179.938 398.758 179.406C399.526 177.869 399.97 176.214 400.266 174.53C400.384 173.909 401.182 169.979 399.763 170.452C398.994 170.688 398.758 171.811 398.521 172.491C398.196 173.407 397.841 174.353 397.515 175.269C396.865 177.13 396.214 178.992 395.593 180.883C395.298 180.765 395.031 180.647 394.736 180.529C395.505 179.022 395.948 177.396 396.007 175.712C396.007 175.298 396.007 174.914 395.978 174.5C395.948 174.175 395.978 173.555 395.652 173.377C394.884 172.934 394.381 174.323 394.233 174.796C393.198 177.603 392.281 180.529 391.808 183.484C391.719 183.986 390.832 183.898 390.891 183.366C390.98 182.331 391.217 181.297 391.394 180.292C391.512 179.583 391.956 178.194 391.512 177.515C391.069 176.894 390.477 177.899 390.329 178.253C390.093 178.815 389.945 179.435 389.827 180.026C389.59 181.09 389.413 182.154 388.969 183.159C388.496 184.193 387.668 184.961 387.076 185.907C386.455 186.912 386.721 187.887 387.904 188.212C390.27 188.892 393.05 187.798 395.031 186.587C397.545 185.05 399.526 182.804 401.478 180.617C401.892 180.174 402.543 180.824 402.129 181.268C400.059 183.573 397.959 185.937 395.238 187.532C393.967 188.271 392.547 188.862 391.069 189.128C389.797 189.365 388.289 189.453 387.106 188.892C386.1 188.419 385.539 187.355 385.864 186.262C386.248 184.991 387.372 184.164 387.993 183.011C388.644 181.799 388.732 180.351 389.087 179.051C389.353 178.017 389.886 176.303 391.246 176.362C392.606 176.421 392.636 178.106 392.518 179.11C392.34 180.529 391.956 181.947 391.808 183.395C391.512 183.366 391.187 183.307 390.891 183.277C391.187 181.327 391.719 179.435 392.311 177.574C392.577 176.687 392.873 175.801 393.198 174.914C393.464 174.175 393.701 173.318 394.351 172.816C394.913 172.373 395.771 172.254 396.333 172.786C396.954 173.348 396.924 174.412 396.924 175.18C396.954 177.249 396.451 179.258 395.534 181.09C395.298 181.563 394.499 181.238 394.676 180.736C395.268 178.933 395.889 177.13 396.54 175.357C396.865 174.471 397.19 173.555 397.515 172.668C397.782 171.929 397.989 171.131 398.432 170.481C399.172 169.447 400.828 169.152 401.36 170.511C401.626 171.131 401.537 171.811 401.478 172.461C401.419 173.23 401.301 174.027 401.182 174.796C400.887 176.598 400.384 178.372 399.556 179.997C399.29 179.849 399.024 179.672 398.758 179.524C399.881 177.781 400.325 175.83 400.739 173.85C401.064 172.195 401.478 170.511 402.602 169.181C403.075 168.62 403.755 168.117 404.495 168.501C405.086 168.797 405.352 169.477 405.441 170.068C405.559 170.836 405.441 171.663 405.352 172.432C405.264 173.348 405.116 174.234 404.938 175.121C404.435 177.367 403.519 179.465 402.158 181.327C401.833 181.652 401.005 181.208 401.36 180.706Z" fill="black"/>
<path d="M271.743 233.307C274.848 233.189 277.953 232.982 281.029 232.894C282.33 232.864 283.572 232.805 284.873 232.628C285.82 232.509 286.766 232.509 287.712 232.716C288.658 232.953 289.575 233.307 290.492 233.632C291.468 233.987 292.444 234.342 293.39 234.755C294.011 235.051 294.869 235.376 295.253 235.997C296.052 237.238 294.189 237.829 293.301 237.947C291.704 238.154 290.167 237.592 288.599 237.326C286.736 237.001 284.844 237.119 282.981 237.208C282.389 237.238 282.389 236.292 282.981 236.262C284.459 236.203 285.938 236.115 287.416 236.233C288.747 236.351 290.019 236.706 291.35 236.942C292.03 237.06 292.739 237.119 293.42 236.972C293.686 236.913 294.011 236.824 294.248 236.676C294.543 236.499 294.455 236.528 294.336 236.322C294.189 236.115 293.804 235.967 293.597 235.849C293.183 235.642 292.739 235.435 292.325 235.258C291.468 234.903 290.61 234.608 289.753 234.312C288.895 234.017 288.037 233.692 287.15 233.514C286.293 233.337 285.465 233.426 284.607 233.544C283.424 233.692 282.241 233.751 281.058 233.78C277.953 233.839 274.848 234.076 271.772 234.194C271.151 234.253 271.151 233.307 271.743 233.307Z" fill="black"/>
<path d="M283.454 236.233C284.814 236.262 286.174 236.469 287.535 236.617C289.043 236.794 290.551 237.001 292.059 237.208C292.74 237.297 293.42 237.445 294.1 237.651C294.958 237.888 295.874 238.006 296.702 238.302C297.382 238.567 297.915 239.099 298.003 239.838C298.092 240.695 297.471 241.552 296.732 241.877C295.549 242.439 294.189 242.025 292.947 241.848C291.35 241.641 289.753 241.582 288.156 241.67C287.564 241.7 287.564 240.754 288.156 240.725C289.339 240.666 290.551 240.666 291.734 240.784C292.858 240.872 293.982 241.168 295.105 241.227C295.579 241.257 296.14 241.227 296.554 240.932C296.88 240.695 297.175 240.193 297.028 239.779C296.821 239.159 295.993 239.099 295.46 238.981C294.129 238.686 292.858 238.302 291.527 238.095C290.167 237.888 288.806 237.74 287.446 237.563C286.115 237.415 284.785 237.208 283.454 237.179C282.862 237.179 282.862 236.233 283.454 236.233Z" fill="black"/>
<path d="M294.898 241.404C295.726 241.759 295.904 242.793 295.401 243.473C294.839 244.3 293.716 244.655 292.769 244.862C291.645 245.098 290.492 245.157 289.339 245.276C288.067 245.394 286.825 245.542 285.553 245.66C284.962 245.719 284.962 244.773 285.553 244.714C287.417 244.537 289.28 244.33 291.172 244.153C292 244.064 292.858 243.946 293.627 243.65C294.07 243.473 295.372 242.646 294.425 242.232C293.863 241.966 294.337 241.168 294.898 241.404Z" fill="black"/>
<path d="M291.852 244.98C291.291 246.28 289.516 246.812 288.274 247.226C286.707 247.728 285.08 248.024 283.454 248.142C282.862 248.172 282.862 247.256 283.454 247.196C284.903 247.108 286.352 246.842 287.742 246.428C288.422 246.221 289.073 245.985 289.723 245.66C290.256 245.394 290.788 245.098 291.024 244.507C291.261 243.946 292.089 244.419 291.852 244.98Z" fill="black"/>
<path d="M288.629 247.433C287.505 249.088 285.524 249.827 283.661 250.358C281.265 251.038 278.87 251.481 276.386 251.127C274.552 250.89 272.837 250.299 271.092 249.767C269.614 249.324 268.165 248.881 266.686 248.467C265.74 248.201 264.793 247.906 263.847 247.64C263.256 247.462 263.522 246.576 264.084 246.724C266.183 247.315 268.253 247.935 270.324 248.556C271.684 248.97 273.044 249.442 274.434 249.797C276.889 250.418 279.284 250.477 281.768 249.886C283.838 249.383 286.529 248.851 287.801 246.96C288.156 246.458 288.984 246.93 288.629 247.433Z" fill="black"/>
</svg>
