<svg width="22" height="22" viewBox="0 0 22 22" fill="none" xmlns="http://www.w3.org/2000/svg">
<path d="M5.28688 13.7703C5.28688 14.9844 4.295 15.9762 3.08094 15.9762C1.86688 15.9762 0.875 14.9844 0.875 13.7703C0.875 12.5563 1.86688 11.5644 3.08094 11.5644H5.28688V13.7703ZM6.39875 13.7703C6.39875 12.5563 7.39062 11.5644 8.60469 11.5644C9.81875 11.5644 10.8106 12.5563 10.8106 13.7703V19.2941C10.8106 20.5081 9.81875 21.5 8.60469 21.5C7.39062 21.5 6.39875 20.5081 6.39875 19.2941V13.7703ZM8.60469 4.91188C7.39062 4.91188 6.39875 3.92 6.39875 2.70594C6.39875 1.49187 7.39062 0.5 8.60469 0.5C9.81875 0.5 10.8106 1.49187 10.8106 2.70594V4.91188H8.60469ZM8.60469 6.02375C9.81875 6.02375 10.8106 7.01562 10.8106 8.22969C10.8106 9.44375 9.81875 10.4356 8.60469 10.4356H3.08094C1.86688 10.4356 0.875 9.44375 0.875 8.22969C0.875 7.01562 1.86688 6.02375 3.08094 6.02375H8.60469ZM17.4631 8.22969C17.4631 7.01562 18.455 6.02375 19.6691 6.02375C20.8831 6.02375 21.875 7.01562 21.875 8.22969C21.875 9.44375 20.8831 10.4356 19.6691 10.4356H17.4631V8.22969ZM16.3512 8.22969C16.3512 9.44375 15.3594 10.4356 14.1453 10.4356C12.9313 10.4356 11.9394 9.44375 11.9394 8.22969V2.70594C11.9394 1.49187 12.9313 0.5 14.1453 0.5C15.3594 0.5 16.3512 1.49187 16.3512 2.70594V8.22969ZM14.1453 17.0881C15.3594 17.0881 16.3512 18.08 16.3512 19.2941C16.3512 20.5081 15.3594 21.5 14.1453 21.5C12.9313 21.5 11.9394 20.5081 11.9394 19.2941V17.0881H14.1453ZM14.1453 15.9762C12.9313 15.9762 11.9394 14.9844 11.9394 13.7703C11.9394 12.5563 12.9313 11.5644 14.1453 11.5644H19.6691C20.8831 11.5644 21.875 12.5563 21.875 13.7703C21.875 14.9844 20.8831 15.9762 19.6691 15.9762H14.1453Z" fill="#9CA3AF"/>
</svg>
