<svg width="25" height="25" viewBox="0 0 25 25" fill="none" xmlns="http://www.w3.org/2000/svg">
<g clip-path="url(#clip0_4376_892)">
<path d="M10.0737 5.02625C8.47509 5.58083 7.09642 6.63346 6.14023 8.0295C5.18404 9.42554 4.70073 11.0914 4.7613 12.7825C4.82186 14.4735 5.4231 16.1005 6.47671 17.4246C7.53032 18.7486 8.98077 19.6999 10.615 20.1387C11.9399 20.4806 13.328 20.4956 14.66 20.1825C15.8666 19.9115 16.9822 19.3317 17.8975 18.5C18.8501 17.6079 19.5415 16.4731 19.8975 15.2175C20.2844 13.8521 20.3532 12.4162 20.0987 11.02H12.6587V14.1062H16.9675C16.8814 14.5985 16.6968 15.0683 16.4249 15.4875C16.153 15.9068 15.7993 16.2669 15.385 16.5462C14.8588 16.8943 14.2657 17.1285 13.6437 17.2337C13.0199 17.3497 12.3801 17.3497 11.7562 17.2337C11.124 17.103 10.5259 16.8421 9.99999 16.4675C9.15518 15.8695 8.52084 15.0199 8.18749 14.04C7.84851 13.0417 7.84851 11.9595 8.18749 10.9612C8.42478 10.2615 8.81703 9.62442 9.33499 9.0975C9.92773 8.48343 10.6782 8.04449 11.5039 7.82884C12.3297 7.61319 13.1989 7.62916 14.0162 7.875C14.6547 8.07099 15.2386 8.41342 15.7212 8.875C16.2071 8.39166 16.6921 7.90708 17.1762 7.42125C17.4262 7.16 17.6987 6.91125 17.945 6.64375C17.2082 5.95809 16.3433 5.42457 15.4 5.07375C13.6821 4.44998 11.8025 4.43322 10.0737 5.02625Z" fill="white"/>
<path d="M10.0738 5.02624C11.8023 4.43282 13.682 4.44914 15.4 5.07249C16.3435 5.4257 17.208 5.96179 17.9438 6.64999C17.6938 6.91749 17.43 7.16749 17.175 7.42749C16.69 7.91166 16.2054 8.39416 15.7213 8.87499C15.2386 8.41342 14.6547 8.07098 14.0163 7.87499C13.1992 7.6283 12.33 7.6114 11.504 7.82617C10.678 8.04094 9.92714 8.47907 9.33375 9.09249C8.81579 9.61941 8.42353 10.2565 8.18625 10.9562L5.595 8.94999C6.52251 7.1107 8.12844 5.70377 10.0738 5.02624Z" fill="#E33629"/>
<path d="M4.9075 10.9375C5.04678 10.2473 5.278 9.5788 5.595 8.95001L8.18625 10.9613C7.84727 11.9595 7.84727 13.0418 8.18625 14.04C7.32292 14.7067 6.45917 15.3767 5.595 16.05C4.80144 14.4704 4.55941 12.6706 4.9075 10.9375Z" fill="#F8BD00"/>
<path d="M12.6588 11.0187H20.0988C20.3533 12.4149 20.2844 13.8508 19.8975 15.2162C19.5416 16.4718 18.8501 17.6067 17.8975 18.4987C17.0613 17.8462 16.2213 17.1987 15.385 16.5462C15.7996 16.2666 16.1535 15.9061 16.4254 15.4864C16.6973 15.0667 16.8817 14.5964 16.9675 14.1037H12.6588C12.6575 13.0762 12.6588 12.0475 12.6588 11.0187Z" fill="#587DBD"/>
<path d="M5.59375 16.05C6.45792 15.3833 7.32167 14.7133 8.185 14.04C8.51901 15.0202 9.15426 15.8698 10 16.4675C10.5275 16.8403 11.1269 17.0991 11.76 17.2275C12.3838 17.3435 13.0237 17.3435 13.6475 17.2275C14.2695 17.1222 14.8626 16.888 15.3888 16.54C16.225 17.1925 17.065 17.84 17.9012 18.4925C16.9861 19.3246 15.8705 19.9048 14.6637 20.1762C13.3318 20.4894 11.9437 20.4743 10.6188 20.1325C9.57088 19.8527 8.59209 19.3595 7.74375 18.6837C6.84583 17.9708 6.11244 17.0724 5.59375 16.05Z" fill="#319F43"/>
</g>
<defs>
<clipPath id="clip0_4376_892">
<rect width="16" height="16" fill="white" transform="translate(4.5 4.5)"/>
</clipPath>
</defs>
</svg>
