<svg width="21" height="24" viewBox="0 0 21 24" fill="none" xmlns="http://www.w3.org/2000/svg">
<path d="M18.0776 4.87969C18.0704 4.8293 18.0459 4.783 18.0082 4.74877C17.9706 4.71453 17.9221 4.69452 17.8713 4.69219C17.7776 4.69219 16.1262 4.65469 16.1262 4.65469C16.1262 4.65469 15.1132 3.67875 14.7377 3.30328V23.5875L20.6294 22.125C20.6294 22.125 18.0963 4.99219 18.0776 4.87969ZM13.4055 3.30328C13.3155 3.01938 13.2025 2.74331 13.0676 2.47781C12.5782 1.53984 11.8479 1.03125 10.9844 1.03125C10.9214 1.02906 10.8583 1.03537 10.7969 1.05C10.7782 1.0125 10.7407 0.993751 10.7219 0.956251C10.3469 0.545158 9.85943 0.357658 9.27725 0.375001C8.15225 0.412501 7.02725 1.21875 6.1249 2.66391C5.48693 3.67735 4.9999 4.95328 4.86771 5.94797C3.57303 6.34172 2.67256 6.62344 2.65381 6.64219C1.99756 6.84844 1.97834 6.86719 1.90381 7.48594C1.84756 7.95469 0.122559 21.165 0.122559 21.165L14.306 23.625V3.07828C14.237 3.08088 14.1681 3.08714 14.0997 3.09703C14.0997 3.09703 13.8372 3.17203 13.4055 3.30328ZM10.8162 4.11047C10.0662 4.33547 9.23975 4.59797 8.43303 4.84219C8.65803 3.96 9.1085 3.07828 9.63396 2.49844C9.84021 2.29219 10.1219 2.04797 10.4407 1.89797C10.7599 2.57156 10.8349 3.49125 10.8162 4.11047ZM9.27725 1.14563C9.5136 1.13818 9.74745 1.19591 9.95318 1.3125C9.65318 1.4625 9.35271 1.70672 9.07146 1.98797C8.3585 2.75766 7.81428 3.95672 7.58928 5.10281C6.91334 5.30953 6.23787 5.51578 5.62053 5.70328C6.03115 3.90375 7.55084 1.18313 9.27725 1.14563ZM7.10084 11.4661C7.17584 12.6666 10.3469 12.9295 10.5344 15.7627C10.6657 17.9958 9.35225 19.5155 7.45709 19.6284C5.16818 19.7784 3.911 18.4275 3.911 18.4275L4.3985 16.365C4.3985 16.365 5.65568 17.3222 6.66912 17.2472C7.32537 17.2097 7.57006 16.6655 7.55084 16.29C7.45709 14.7141 4.86771 14.8078 4.69897 12.2184C4.54896 10.0416 5.9749 7.84641 9.12725 7.63969C10.346 7.56469 10.9662 7.86516 10.9662 7.86516L10.2532 10.5652C10.2532 10.5652 9.44647 10.1902 8.48928 10.2652C7.10084 10.3594 7.08209 11.2406 7.10084 11.4661ZM11.5666 3.885C11.5666 3.3225 11.4916 2.51531 11.2287 1.83985C12.0921 2.0086 12.5046 2.96485 12.6926 3.5475C12.3547 3.64125 11.9794 3.75375 11.5666 3.885Z" fill="#9CA3AF"/>
</svg>
