<svg width="31" height="14" viewBox="0 0 31 14" fill="none" xmlns="http://www.w3.org/2000/svg">
<path d="M8.60957 1.78281L6.57988 2.21406L6.57051 8.88906C6.57051 10.1219 7.49863 10.9188 8.73145 10.9188C9.41582 10.9188 9.91738 10.7922 10.1939 10.6422V9.05781C9.92676 9.16562 8.61426 9.55 8.61426 8.32188V5.35938H10.1939V3.5875H8.61426L8.60957 1.78281ZM12.7861 4.20156L12.6596 3.5875H10.8596V10.7687H12.9361V5.93594C13.4283 5.28906 14.258 5.41563 14.5252 5.5V3.5875C14.2439 3.48906 13.2736 3.30625 12.7861 4.20156ZM17.1127 0.8125L15.0221 1.25781V2.95469L17.1127 2.50937V0.8125ZM2.97988 5.70156C2.97988 5.37813 3.25176 5.25156 3.6877 5.24688C4.32051 5.24688 5.12676 5.43906 5.75957 5.78125V3.82187C5.07051 3.55 4.38145 3.44219 3.69238 3.44219C2.00488 3.44219 0.879883 4.32344 0.879883 5.79531C0.879883 8.10156 4.04395 7.72656 4.04395 8.72031C4.04395 9.10469 3.71113 9.23125 3.24707 9.23125C2.55801 9.23125 1.66738 8.94531 0.968945 8.56562V10.4406C1.74238 10.7734 2.5252 10.9141 3.24238 10.9141C4.97207 10.9141 6.1627 10.1734 6.1627 8.67344C6.1627 6.19375 2.97988 6.63906 2.97988 5.70156ZM30.8752 7.2625C30.8752 5.12969 29.8439 3.44687 27.8658 3.44687C25.8877 3.44687 24.683 5.12969 24.683 7.24844C24.683 9.75625 26.1033 10.9141 28.1283 10.9141C29.1221 10.9141 29.8674 10.6891 30.4346 10.375V8.80938C29.8674 9.09531 29.2158 9.26875 28.3908 9.26875C27.5799 9.26875 26.8674 8.98281 26.7736 8.00781H30.8471C30.8564 7.9 30.8752 7.46406 30.8752 7.2625ZM26.7549 6.475C26.7549 5.5375 27.3314 5.14375 27.8518 5.14375C28.3627 5.14375 28.9064 5.5375 28.9064 6.475H26.7549ZM21.4627 3.44687C20.6471 3.44687 20.1221 3.83125 19.8314 4.09844L19.7236 3.58281H17.8908V13.1828L19.9721 12.7422L19.9768 10.3891C20.2768 10.6094 20.7221 10.9141 21.4486 10.9141C22.9393 10.9141 24.2986 9.82656 24.2986 7.18281C24.3033 4.76406 22.9252 3.44687 21.4627 3.44687ZM20.9658 9.18906C20.4783 9.18906 20.1877 9.01094 19.9861 8.79531L19.9721 5.70156C20.1877 5.4625 20.4877 5.28906 20.9658 5.28906C21.7252 5.28906 22.2502 6.14219 22.2502 7.22969C22.2549 8.35 21.7393 9.18906 20.9658 9.18906ZM15.0268 10.7687H17.1174V3.5875H15.0268V10.7687Z" fill="#9CA3AF"/>
</svg>
